M48
; DRILL file {KiCad 9.0.2} date 2025-06-26T21:32:35+0800
; FORMAT={-:-/ absolute / metric / decimal}
; #@! TF.CreationDate,2025-06-26T21:32:35+08:00
; #@! TF.GenerationSoftware,Kicad,Pcbnew,9.0.2
; #@! TF.FileFunction,Plated,1,2,PTH
FMAT,2
METRIC
; #@! TA.AperFunction,Plated,PTH,ViaDrill
T1C0.300
; #@! TA.AperFunction,Plated,PTH,ComponentDrill
T2C0.700
; #@! TA.AperFunction,Plated,PTH,ComponentDrill
T3C0.750
; #@! TA.AperFunction,Plated,PTH,ComponentDrill
T4C0.762
; #@! TA.AperFunction,Plated,PTH,ComponentDrill
T5C0.800
; #@! TA.AperFunction,Plated,PTH,ComponentDrill
T6C0.900
; #@! TA.AperFunction,Plated,PTH,ComponentDrill
T7C1.000
; #@! TA.AperFunction,Plated,PTH,ComponentDrill
T8C1.100
; #@! TA.AperFunction,Plated,PTH,ComponentDrill
T9C1.600
; #@! TA.AperFunction,Plated,PTH,ComponentDrill
T10C1.800
%
G90
G05
T1
X73.25Y-117.75
X79.5Y-117.75
X85.75Y-99.75
X92.0Y-117.75
X98.5Y-117.75
X101.75Y-85.5
X104.5Y-117.75
X111.0Y-148.25
X117.0Y-117.75
X125.75Y-109.3
X129.5Y-117.75
X136.25Y-117.75
X142.25Y-117.75
X148.75Y-148.25
X149.5Y-102.5
X152.75Y-111.5
X153.6Y-96.6
X154.75Y-117.75
X155.8Y-98.6
X161.25Y-148.25
X166.4Y-100.6
X166.4Y-106.2
X167.25Y-117.75
X178.25Y-113.0
X179.75Y-117.75
X184.75Y-95.5
X186.5Y-117.75
X192.25Y-109.4
X192.5Y-117.75
X196.0Y-104.0
X198.0Y-87.8
X199.0Y-148.25
X203.0Y-81.4
X205.0Y-117.75
X217.5Y-117.75
X220.25Y-116.0
X225.25Y-114.0
T3
X70.5Y-68.95
X72.5Y-68.95
X153.73Y-92.25
X155.0Y-92.25
X156.27Y-92.25
X186.23Y-87.86
X187.5Y-87.86
X188.77Y-87.86
X193.46Y-88.0
X194.73Y-88.0
X196.0Y-88.0
X199.05Y-102.0
X199.05Y-104.0
X228.0Y-58.7
X230.0Y-58.7
T4
X59.75Y-126.4
X59.75Y-128.9
X59.75Y-131.4
X59.75Y-136.4
X59.75Y-138.9
X62.25Y-126.4
X62.25Y-128.9
X62.25Y-131.4
X62.25Y-136.4
X62.25Y-138.9
T5
X54.5Y-82.05
X54.5Y-86.55
X54.5Y-90.05
X54.5Y-94.55
X54.5Y-98.05
X54.5Y-105.95
X54.5Y-109.5
X54.5Y-113.05
X54.6Y-102.55
X59.5Y-82.05
X59.5Y-86.55
X59.5Y-90.05
X59.5Y-94.55
X59.5Y-98.05
X59.5Y-105.95
X59.5Y-109.5
X59.5Y-113.05
X59.6Y-102.55
X62.5Y-94.55
X62.5Y-98.05
X63.0Y-102.4
X63.0Y-105.95
X63.0Y-109.5
X63.0Y-113.05
X67.5Y-94.55
X67.5Y-98.05
X68.0Y-102.4
X68.0Y-105.95
X68.0Y-109.5
X68.0Y-113.05
X79.6Y-66.0
X79.6Y-71.0
X87.69Y-95.5
X88.5Y-64.5
X88.5Y-67.04
X88.5Y-69.58
X89.0Y-89.5
X94.0Y-89.5
X94.5Y-64.5
X94.5Y-67.04
X94.5Y-69.58
X95.31Y-95.5
X99.65Y-87.95
X99.65Y-90.49
X99.65Y-93.03
X99.65Y-95.57
X100.5Y-64.5
X100.5Y-67.04
X100.5Y-69.58
X106.5Y-64.5
X106.5Y-67.04
X106.5Y-69.58
X106.5Y-78.5
X106.5Y-83.5
X107.27Y-87.95
X107.27Y-90.49
X107.27Y-93.03
X107.27Y-95.57
X110.795Y-81.0
X112.0Y-87.69
X112.0Y-95.31
X112.5Y-64.5
X112.5Y-67.04
X112.5Y-69.58
X113.295Y-81.0
X118.5Y-64.5
X118.5Y-67.04
X118.5Y-69.58
X122.69Y-101.15
X122.69Y-104.7
X124.5Y-64.5
X124.5Y-67.04
X124.5Y-69.58
X125.0Y-91.89
X125.0Y-96.39
X127.5Y-79.27
X127.5Y-86.89
X130.0Y-91.89
X130.0Y-96.39
X130.31Y-101.15
X130.31Y-104.7
X130.5Y-64.5
X130.5Y-67.04
X130.5Y-69.58
X133.5Y-91.89
X133.5Y-96.39
X136.0Y-79.27
X136.0Y-86.89
X136.5Y-64.5
X136.5Y-67.04
X136.5Y-69.58
X136.77Y-102.5
X138.5Y-91.89
X138.5Y-96.39
X139.31Y-102.5
X141.85Y-102.5
X142.0Y-91.89
X142.5Y-64.5
X142.5Y-67.04
X142.5Y-69.58
X147.0Y-91.89
X148.5Y-64.5
X148.5Y-67.04
X148.5Y-69.58
X154.5Y-64.5
X154.5Y-67.04
X154.5Y-69.58
X160.5Y-64.5
X160.5Y-67.04
X160.5Y-69.58
X166.5Y-64.5
X166.5Y-67.04
X166.5Y-69.58
X172.5Y-64.5
X172.5Y-67.04
X172.5Y-69.58
X172.7Y-94.7
X172.7Y-97.24
X172.7Y-99.78
X172.7Y-102.32
X178.5Y-64.5
X178.5Y-67.04
X178.5Y-69.58
X180.32Y-94.7
X180.32Y-97.24
X180.32Y-99.78
X180.32Y-102.32
X184.5Y-64.5
X184.5Y-67.04
X184.5Y-69.58
X184.5Y-104.5
X187.295Y-98.25
X189.795Y-98.25
X190.5Y-64.5
X190.5Y-67.04
X190.5Y-69.58
X190.5Y-80.0
X192.12Y-104.5
X196.5Y-64.5
X196.5Y-67.04
X196.5Y-69.58
X198.12Y-80.0
X202.5Y-64.5
X202.5Y-67.04
X202.5Y-69.58
X229.89Y-118.55
X237.51Y-118.55
T6
X242.475Y-116.0
X245.015Y-116.0
T7
X235.219Y-59.25
X235.219Y-61.75
X235.219Y-64.25
T8
X69.0Y-75.2
X69.0Y-79.7
X79.16Y-75.2
X79.16Y-79.7
T2
G00X210.8Y-66.845
M15
G01X210.8Y-67.645
M16
G05
G00X215.2Y-58.845
M15
G01X215.2Y-59.645
M16
G05
G00X215.2Y-61.845
M15
G01X215.2Y-62.645
M16
G05
G00X215.2Y-65.845
M15
G01X215.2Y-66.645
M16
G05
T5
G00X233.2Y-128.25
M15
G01X234.0Y-128.25
M16
G05
G00X233.2Y-141.5
M15
G01X234.0Y-141.5
M16
G05
G00X236.1Y-128.25
M15
G01X236.9Y-128.25
M16
G05
G00X236.1Y-141.5
M15
G01X236.9Y-141.5
M16
G05
G00X239.0Y-128.25
M15
G01X239.8Y-128.25
M16
G05
G00X239.0Y-141.5
M15
G01X239.8Y-141.5
M16
G05
T9
G00X59.0Y-60.55
M15
G01X59.0Y-61.45
M16
G05
G00X62.3Y-65.7
M15
G01X61.7Y-65.7
M16
G05
G00X65.0Y-60.55
M15
G01X65.0Y-61.45
M16
G05
T10
G00X242.919Y-57.35
M15
G01X242.519Y-57.35
M16
G05
G00X242.919Y-66.15
M15
G01X242.519Y-66.15
M16
G05
M30
