%TF.GenerationSoftware,KiCad,Pcbnew,8.0.2*%
%TF.CreationDate,2025-05-17T21:18:52+08:00*%
%TF.ProjectId,TouchTone555,546f7563-6854-46f6-9e65-3535352e6b69,v1.2*%
%TF.SameCoordinates,Original*%
%TF.FileFunction,Soldermask,Bot*%
%TF.FilePolarity,Negative*%
%FSLAX46Y46*%
G04 Gerber Fmt 4.6, Leading zero omitted, Abs format (unit mm)*
G04 Created by KiCad (PCBNEW 8.0.2) date 2025-05-17 21:18:52*
%MOMM*%
%LPD*%
G01*
G04 APERTURE LIST*
G04 Aperture macros list*
%AMRoundRect*
0 Rectangle with rounded corners*
0 $1 Rounding radius*
0 $2 $3 $4 $5 $6 $7 $8 $9 X,Y pos of 4 corners*
0 Add a 4 corners polygon primitive as box body*
4,1,4,$2,$3,$4,$5,$6,$7,$8,$9,$2,$3,0*
0 Add four circle primitives for the rounded corners*
1,1,$1+$1,$2,$3*
1,1,$1+$1,$4,$5*
1,1,$1+$1,$6,$7*
1,1,$1+$1,$8,$9*
0 Add four rect primitives between the rounded corners*
20,1,$1+$1,$2,$3,$4,$5,0*
20,1,$1+$1,$4,$5,$6,$7,0*
20,1,$1+$1,$6,$7,$8,$9,0*
20,1,$1+$1,$8,$9,$2,$3,0*%
%AMFreePoly0*
4,1,19,1.059954,0.882520,1.097008,0.831520,1.102000,0.800000,1.102000,-0.800000,1.082520,-0.859954,1.031520,-0.897008,1.000000,-0.902000,-1.000000,-0.902000,-1.059954,-0.882520,-1.097008,-0.831520,-1.102000,-0.800000,-1.102000,0.480000,-1.082520,0.539954,-1.072125,0.552125,-0.752125,0.872125,-0.695956,0.900744,-0.680000,0.902000,1.000000,0.902000,1.059954,0.882520,1.059954,0.882520,
$1*%
G04 Aperture macros list end*
%ADD10R,2.200000X2.200000*%
%ADD11O,2.200000X2.200000*%
%ADD12C,1.524000*%
%ADD13C,1.600000*%
%ADD14O,1.600000X1.600000*%
%ADD15R,1.600000X1.600000*%
%ADD16FreePoly0,0.000000*%
%ADD17RoundRect,0.320313X-0.781687X-0.581687X0.781687X-0.581687X0.781687X0.581687X-0.781687X0.581687X0*%
%ADD18RoundRect,0.250000X-0.350000X-0.625000X0.350000X-0.625000X0.350000X0.625000X-0.350000X0.625000X0*%
%ADD19O,1.200000X1.750000*%
%ADD20C,1.440000*%
%ADD21R,1.050000X1.500000*%
%ADD22O,1.050000X1.500000*%
%ADD23O,2.600000X3.500000*%
%ADD24O,3.200000X2.600000*%
%ADD25RoundRect,0.250000X-0.625000X0.350000X-0.625000X-0.350000X0.625000X-0.350000X0.625000X0.350000X0*%
%ADD26O,1.750000X1.200000*%
%ADD27RoundRect,0.250000X0.350000X0.625000X-0.350000X0.625000X-0.350000X-0.625000X0.350000X-0.625000X0*%
%ADD28RoundRect,0.102000X-0.754000X0.754000X-0.754000X-0.754000X0.754000X-0.754000X0.754000X0.754000X0*%
%ADD29C,1.712000*%
%ADD30O,4.804000X2.504000*%
%ADD31R,1.800000X1.800000*%
%ADD32C,1.800000*%
G04 APERTURE END LIST*
D10*
%TO.C,D1*%
X79160000Y-75200000D03*
D11*
X69000000Y-75200000D03*
%TD*%
D12*
%TO.C,SW3*%
X59750000Y-138900000D03*
X59750000Y-136400000D03*
X59750000Y-131400000D03*
X59750000Y-128900000D03*
X59750000Y-126400000D03*
X62250000Y-138900000D03*
X62250000Y-136400000D03*
X62250000Y-131400000D03*
X62250000Y-128900000D03*
X62250000Y-126400000D03*
%TD*%
D13*
%TO.C,R7*%
X190500000Y-80000000D03*
D14*
X198120000Y-80000000D03*
%TD*%
D13*
%TO.C,R1*%
X112000000Y-87690000D03*
D14*
X112000000Y-95310000D03*
%TD*%
D15*
%TO.C,C18*%
X187294888Y-98250000D03*
D13*
X189794888Y-98250000D03*
%TD*%
D16*
%TO.C,SW2*%
X233600000Y-141500000D03*
D17*
X236500000Y-141500000D03*
X239400000Y-141500000D03*
%TD*%
D18*
%TO.C,J4*%
X228000000Y-58700000D03*
D19*
X230000000Y-58700000D03*
%TD*%
D20*
%TO.C,VR15*%
X130500000Y-69580000D03*
X130500000Y-67040000D03*
X130500000Y-64500000D03*
%TD*%
D13*
%TO.C,C6*%
X54500000Y-98050000D03*
X59500000Y-98050000D03*
%TD*%
%TO.C,C16*%
X63000000Y-113050000D03*
X68000000Y-113050000D03*
%TD*%
D21*
%TO.C,Q3*%
X193460000Y-88000000D03*
D22*
X194730000Y-88000000D03*
X196000000Y-88000000D03*
%TD*%
D20*
%TO.C,VR4*%
X190500000Y-69580000D03*
X190500000Y-67040000D03*
X190500000Y-64500000D03*
%TD*%
%TO.C,VR5*%
X184500000Y-69580000D03*
X184500000Y-67040000D03*
X184500000Y-64500000D03*
%TD*%
D10*
%TO.C,D3*%
X79160000Y-79700000D03*
D11*
X69000000Y-79700000D03*
%TD*%
D13*
%TO.C,C21*%
X125000000Y-91890000D03*
X130000000Y-91890000D03*
%TD*%
D20*
%TO.C,VR8*%
X166500000Y-69580000D03*
X166500000Y-67040000D03*
X166500000Y-64500000D03*
%TD*%
%TO.C,VR22*%
X88500000Y-69580000D03*
X88500000Y-67040000D03*
X88500000Y-64500000D03*
%TD*%
D13*
%TO.C,C7*%
X62500000Y-94550000D03*
X67500000Y-94550000D03*
%TD*%
%TO.C,R2*%
X122690000Y-101150000D03*
D14*
X130310000Y-101150000D03*
%TD*%
D13*
%TO.C,C19*%
X142000000Y-91890000D03*
X147000000Y-91890000D03*
%TD*%
%TO.C,C11*%
X54500000Y-109500000D03*
X59500000Y-109500000D03*
%TD*%
D20*
%TO.C,VR11*%
X148500000Y-69580000D03*
X148500000Y-67040000D03*
X148500000Y-64500000D03*
%TD*%
D13*
%TO.C,R6*%
X87690000Y-95500000D03*
D14*
X95310000Y-95500000D03*
%TD*%
D13*
%TO.C,C5*%
X54500000Y-94550000D03*
X59500000Y-94550000D03*
%TD*%
D20*
%TO.C,VR20*%
X100500000Y-69580000D03*
X100500000Y-67040000D03*
X100500000Y-64500000D03*
%TD*%
D13*
%TO.C,R5*%
X237510000Y-118550000D03*
D14*
X229890000Y-118550000D03*
%TD*%
D20*
%TO.C,VR14*%
X136500000Y-69580000D03*
X136500000Y-67040000D03*
X136500000Y-64500000D03*
%TD*%
%TO.C,VR9*%
X160500000Y-69580000D03*
X160500000Y-67040000D03*
X160500000Y-64500000D03*
%TD*%
D13*
%TO.C,C9*%
X54600000Y-102550000D03*
X59600000Y-102550000D03*
%TD*%
%TO.C,R8*%
X130310000Y-104700000D03*
D14*
X122690000Y-104700000D03*
%TD*%
D13*
%TO.C,R9*%
X192120000Y-104500000D03*
D14*
X184500000Y-104500000D03*
%TD*%
D20*
%TO.C,VR17*%
X118500000Y-69580000D03*
X118500000Y-67040000D03*
X118500000Y-64500000D03*
%TD*%
D13*
%TO.C,C15*%
X63000000Y-109500000D03*
X68000000Y-109500000D03*
%TD*%
D20*
%TO.C,VR3*%
X196500000Y-69580000D03*
X196500000Y-67040000D03*
X196500000Y-64500000D03*
%TD*%
%TO.C,VR6*%
X178500000Y-69580000D03*
X178500000Y-67040000D03*
X178500000Y-64500000D03*
%TD*%
D15*
%TO.C,U2*%
X172700000Y-94700000D03*
D14*
X172700000Y-97240000D03*
X172700000Y-99780000D03*
X172700000Y-102320000D03*
X180320000Y-102320000D03*
X180320000Y-99780000D03*
X180320000Y-97240000D03*
X180320000Y-94700000D03*
%TD*%
D13*
%TO.C,C27*%
X79600000Y-71000000D03*
X79600000Y-66000000D03*
%TD*%
D21*
%TO.C,Q1*%
X153730000Y-92250000D03*
D22*
X155000000Y-92250000D03*
X156270000Y-92250000D03*
%TD*%
D20*
%TO.C,VR10*%
X154500000Y-69580000D03*
X154500000Y-67040000D03*
X154500000Y-64500000D03*
%TD*%
D23*
%TO.C,J1*%
X65000000Y-61000000D03*
X59000000Y-61000000D03*
D24*
X62000000Y-65700000D03*
%TD*%
D21*
%TO.C,Q2*%
X186230000Y-87860000D03*
D22*
X187500000Y-87860000D03*
X188770000Y-87860000D03*
%TD*%
D20*
%TO.C,VR2*%
X202500000Y-69580000D03*
X202500000Y-67040000D03*
X202500000Y-64500000D03*
%TD*%
D13*
%TO.C,C2*%
X54500000Y-82050000D03*
X59500000Y-82050000D03*
%TD*%
%TO.C,C17*%
X106500000Y-78500000D03*
X106500000Y-83500000D03*
%TD*%
%TO.C,C13*%
X63000000Y-102400000D03*
X68000000Y-102400000D03*
%TD*%
%TO.C,R4*%
X136000000Y-79270000D03*
D14*
X136000000Y-86890000D03*
%TD*%
D13*
%TO.C,C20*%
X133500000Y-91890000D03*
X138500000Y-91890000D03*
%TD*%
D15*
%TO.C,U1*%
X99650000Y-87950000D03*
D14*
X99650000Y-90490000D03*
X99650000Y-93030000D03*
X99650000Y-95570000D03*
X107270000Y-95570000D03*
X107270000Y-93030000D03*
X107270000Y-90490000D03*
X107270000Y-87950000D03*
%TD*%
D25*
%TO.C,J5*%
X199050000Y-102000000D03*
D26*
X199050000Y-104000000D03*
%TD*%
D13*
%TO.C,C1*%
X94000000Y-89500000D03*
X89000000Y-89500000D03*
%TD*%
D15*
%TO.C,C24*%
X110794888Y-81000000D03*
D13*
X113294888Y-81000000D03*
%TD*%
%TO.C,C3*%
X54500000Y-86550000D03*
X59500000Y-86550000D03*
%TD*%
D20*
%TO.C,VR13*%
X142500000Y-69580000D03*
X142500000Y-67040000D03*
X142500000Y-64500000D03*
%TD*%
D13*
%TO.C,C12*%
X54500000Y-113050000D03*
X59500000Y-113050000D03*
%TD*%
D27*
%TO.C,J2*%
X72500000Y-68950000D03*
D19*
X70500000Y-68950000D03*
%TD*%
D13*
%TO.C,C14*%
X63000000Y-105950000D03*
X68000000Y-105950000D03*
%TD*%
%TO.C,R3*%
X127500000Y-79270000D03*
D14*
X127500000Y-86890000D03*
%TD*%
D28*
%TO.C,A5K1*%
X235219500Y-59250000D03*
D29*
X235219500Y-61750000D03*
X235219500Y-64250000D03*
D30*
X242719500Y-57350000D03*
X242719500Y-66150000D03*
%TD*%
D13*
%TO.C,C8*%
X62500000Y-98050000D03*
X67500000Y-98050000D03*
%TD*%
%TO.C,C4*%
X54500000Y-90050000D03*
X59500000Y-90050000D03*
%TD*%
%TO.C,C23*%
X133500000Y-96390000D03*
X138500000Y-96390000D03*
%TD*%
%TO.C,C22*%
X125000000Y-96390000D03*
X130000000Y-96390000D03*
%TD*%
D20*
%TO.C,VR18*%
X112500000Y-69580000D03*
X112500000Y-67040000D03*
X112500000Y-64500000D03*
%TD*%
%TO.C,VR1*%
X141850000Y-102500000D03*
X139310000Y-102500000D03*
X136770000Y-102500000D03*
%TD*%
%TO.C,VR19*%
X106500000Y-69580000D03*
X106500000Y-67040000D03*
X106500000Y-64500000D03*
%TD*%
D13*
%TO.C,C10*%
X54500000Y-105950000D03*
X59500000Y-105950000D03*
%TD*%
D16*
%TO.C,SW1*%
X233600000Y-128250000D03*
D17*
X236500000Y-128250000D03*
X239400000Y-128250000D03*
%TD*%
D20*
%TO.C,VR7*%
X172500000Y-69580000D03*
X172500000Y-67040000D03*
X172500000Y-64500000D03*
%TD*%
%TO.C,VR21*%
X94500000Y-69580000D03*
X94500000Y-67040000D03*
X94500000Y-64500000D03*
%TD*%
D13*
%TO.C,J3*%
X210800000Y-67245000D03*
X215200000Y-66245000D03*
X215200000Y-62245000D03*
X215200000Y-59245000D03*
%TD*%
D31*
%TO.C,D2*%
X242475000Y-116000000D03*
D32*
X245015000Y-116000000D03*
%TD*%
D20*
%TO.C,VR16*%
X124500000Y-69580000D03*
X124500000Y-67040000D03*
X124500000Y-64500000D03*
%TD*%
M02*
