M48
; DRILL file {KiCad 8.0.2} date 2025-05-17T21:18:53+0800
; FORMAT={-:-/ absolute / inch / decimal}
; #@! TF.CreationDate,2025-05-17T21:18:53+08:00
; #@! TF.GenerationSoftware,Kicad,Pcbnew,8.0.2
; #@! TF.FileFunction,Plated,1,2,PTH
FMAT,2
INCH
; #@! TA.AperFunction,Plated,PTH,ViaDrill
T1C0.0118
; #@! TA.AperFunction,Plated,PTH,ComponentDrill
T2C0.0276
; #@! TA.AperFunction,Plated,PTH,ComponentDrill
T3C0.0295
; #@! TA.AperFunction,Plated,PTH,ComponentDrill
T4C0.0300
; #@! TA.AperFunction,Plated,PTH,ComponentDrill
T5C0.0315
; #@! TA.AperFunction,Plated,PTH,ComponentDrill
T6C0.0354
; #@! TA.AperFunction,Plated,PTH,ComponentDrill
T7C0.0394
; #@! TA.AperFunction,Plated,PTH,ComponentDrill
T8C0.0433
; #@! TA.AperFunction,Plated,PTH,ComponentDrill
T9C0.0630
; #@! TA.AperFunction,Plated,PTH,ComponentDrill
T10C0.0709
%
G90
G05
T1
X2.8839Y-4.6358
X3.1299Y-4.6358
X3.376Y-3.9272
X3.622Y-4.6358
X3.878Y-4.6358
X4.0059Y-3.3661
X4.1142Y-4.6358
X4.3701Y-5.8366
X4.6063Y-4.6358
X4.9508Y-4.3031
X5.0984Y-4.6358
X5.3642Y-4.6358
X5.6004Y-4.6358
X5.8563Y-5.8366
X5.8858Y-4.0354
X6.0138Y-4.3898
X6.0472Y-3.8031
X6.0925Y-4.6358
X6.1339Y-3.8819
X6.3484Y-5.8366
X6.5512Y-3.9606
X6.5512Y-4.1811
X6.5846Y-4.6358
X7.0177Y-4.4488
X7.0768Y-4.6358
X7.2736Y-3.7598
X7.3425Y-4.6358
X7.5689Y-4.3071
X7.5787Y-4.6358
X7.7165Y-4.0945
X7.7953Y-3.4567
X7.8346Y-5.8366
X7.9921Y-3.2047
X8.0709Y-4.6358
X8.563Y-4.6358
X8.6713Y-4.5669
X8.8681Y-4.4882
T3
X2.7756Y-2.7146
X2.8543Y-2.7146
X6.0524Y-3.6319
X6.1024Y-3.6319
X6.1524Y-3.6319
X7.3319Y-3.4591
X7.3819Y-3.4591
X7.4319Y-3.4591
X7.6165Y-3.4646
X7.6665Y-3.4646
X7.7165Y-3.4646
X7.8366Y-4.0157
X7.8366Y-4.0945
X8.9764Y-2.311
X9.0551Y-2.311
T4
X2.3524Y-4.9764
X2.3524Y-5.0748
X2.3524Y-5.1732
X2.3524Y-5.3701
X2.3524Y-5.4685
X2.4508Y-4.9764
X2.4508Y-5.0748
X2.4508Y-5.1732
X2.4508Y-5.3701
X2.4508Y-5.4685
T5
X2.1457Y-3.2303
X2.1457Y-3.4075
X2.1457Y-3.5453
X2.1457Y-3.7224
X2.1457Y-3.8602
X2.1457Y-4.1713
X2.1457Y-4.311
X2.1457Y-4.4508
X2.1496Y-4.0374
X2.3425Y-3.2303
X2.3425Y-3.4075
X2.3425Y-3.5453
X2.3425Y-3.7224
X2.3425Y-3.8602
X2.3425Y-4.1713
X2.3425Y-4.311
X2.3425Y-4.4508
X2.3465Y-4.0374
X2.4606Y-3.7224
X2.4606Y-3.8602
X2.4803Y-4.0315
X2.4803Y-4.1713
X2.4803Y-4.311
X2.4803Y-4.4508
X2.6575Y-3.7224
X2.6575Y-3.8602
X2.6772Y-4.0315
X2.6772Y-4.1713
X2.6772Y-4.311
X2.6772Y-4.4508
X3.1339Y-2.5984
X3.1339Y-2.7953
X3.4524Y-3.7598
X3.4843Y-2.5394
X3.4843Y-2.6394
X3.4843Y-2.7394
X3.5039Y-3.5236
X3.7008Y-3.5236
X3.7205Y-2.5394
X3.7205Y-2.6394
X3.7205Y-2.7394
X3.7524Y-3.7598
X3.9232Y-3.4626
X3.9232Y-3.5626
X3.9232Y-3.6626
X3.9232Y-3.7626
X3.9567Y-2.5394
X3.9567Y-2.6394
X3.9567Y-2.7394
X4.1929Y-2.5394
X4.1929Y-2.6394
X4.1929Y-2.7394
X4.1929Y-3.0906
X4.1929Y-3.2874
X4.2232Y-3.4626
X4.2232Y-3.5626
X4.2232Y-3.6626
X4.2232Y-3.7626
X4.362Y-3.189
X4.4094Y-3.4524
X4.4094Y-3.7524
X4.4291Y-2.5394
X4.4291Y-2.6394
X4.4291Y-2.7394
X4.4604Y-3.189
X4.6654Y-2.5394
X4.6654Y-2.6394
X4.6654Y-2.7394
X4.8303Y-3.9823
X4.8303Y-4.122
X4.9016Y-2.5394
X4.9016Y-2.6394
X4.9016Y-2.7394
X4.9213Y-3.6177
X4.9213Y-3.7949
X5.0197Y-3.1209
X5.0197Y-3.4209
X5.1181Y-3.6177
X5.1181Y-3.7949
X5.1303Y-3.9823
X5.1303Y-4.122
X5.1378Y-2.5394
X5.1378Y-2.6394
X5.1378Y-2.7394
X5.2559Y-3.6177
X5.2559Y-3.7949
X5.3543Y-3.1209
X5.3543Y-3.4209
X5.374Y-2.5394
X5.374Y-2.6394
X5.374Y-2.7394
X5.3846Y-4.0354
X5.4528Y-3.6177
X5.4528Y-3.7949
X5.4846Y-4.0354
X5.5846Y-4.0354
X5.5906Y-3.6177
X5.6102Y-2.5394
X5.6102Y-2.6394
X5.6102Y-2.7394
X5.7874Y-3.6177
X5.8465Y-2.5394
X5.8465Y-2.6394
X5.8465Y-2.7394
X6.0827Y-2.5394
X6.0827Y-2.6394
X6.0827Y-2.7394
X6.3189Y-2.5394
X6.3189Y-2.6394
X6.3189Y-2.7394
X6.5551Y-2.5394
X6.5551Y-2.6394
X6.5551Y-2.7394
X6.7913Y-2.5394
X6.7913Y-2.6394
X6.7913Y-2.7394
X6.7992Y-3.7283
X6.7992Y-3.8283
X6.7992Y-3.9283
X6.7992Y-4.0283
X7.0276Y-2.5394
X7.0276Y-2.6394
X7.0276Y-2.7394
X7.0992Y-3.7283
X7.0992Y-3.8283
X7.0992Y-3.9283
X7.0992Y-4.0283
X7.2638Y-2.5394
X7.2638Y-2.6394
X7.2638Y-2.7394
X7.2638Y-4.1142
X7.3738Y-3.8681
X7.4722Y-3.8681
X7.5Y-2.5394
X7.5Y-2.6394
X7.5Y-2.7394
X7.5Y-3.1496
X7.5638Y-4.1142
X7.7362Y-2.5394
X7.7362Y-2.6394
X7.7362Y-2.7394
X7.8Y-3.1496
X7.9724Y-2.5394
X7.9724Y-2.6394
X7.9724Y-2.7394
X9.0508Y-4.6673
X9.3508Y-4.6673
T6
X9.5463Y-4.5669
X9.6463Y-4.5669
T7
X9.2606Y-2.3327
X9.2606Y-2.4311
X9.2606Y-2.5295
T8
X2.7165Y-2.9606
X2.7165Y-3.1378
X3.1165Y-2.9606
X3.1165Y-3.1378
T2
G00X8.2992Y-2.6317
M15
G01X8.2992Y-2.6632
M16
G05
G00X8.4724Y-2.3167
M15
G01X8.4724Y-2.3482
M16
G05
G00X8.4724Y-2.4348
M15
G01X8.4724Y-2.4663
M16
G05
G00X8.4724Y-2.5923
M15
G01X8.4724Y-2.6238
M16
G05
T5
G00X9.1811Y-5.0492
M15
G01X9.2126Y-5.0492
M16
G05
G00X9.1811Y-5.5709
M15
G01X9.2126Y-5.5709
M16
G05
G00X9.2953Y-5.0492
M15
G01X9.3268Y-5.0492
M16
G05
G00X9.2953Y-5.5709
M15
G01X9.3268Y-5.5709
M16
G05
G00X9.4094Y-5.0492
M15
G01X9.4409Y-5.0492
M16
G05
G00X9.4094Y-5.5709
M15
G01X9.4409Y-5.5709
M16
G05
T9
G00X2.3228Y-2.3839
M15
G01X2.3228Y-2.4193
M16
G05
G00X2.4528Y-2.5866
M15
G01X2.4291Y-2.5866
M16
G05
G00X2.5591Y-2.3839
M15
G01X2.5591Y-2.4193
M16
G05
T10
G00X9.5638Y-2.2579
M15
G01X9.548Y-2.2579
M16
G05
G00X9.5638Y-2.6043
M15
G01X9.548Y-2.6043
M16
G05
M30
