%TF.GenerationSoftware,KiCad,Pcbnew,8.0.2*%
%TF.CreationDate,2025-05-17T21:18:54+08:00*%
%TF.ProjectId,TouchTone555,546f7563-6854-46f6-9e65-3535352e6b69,v1.2*%
%TF.SameCoordinates,Original*%
%TF.FileFunction,Drillmap*%
%TF.FilePolarity,Positive*%
%FSLAX45Y45*%
G04 Gerber Fmt 4.5, Leading zero omitted, Abs format (unit mm)*
G04 Created by KiCad (PCBNEW 8.0.2) date 2025-05-17 21:18:54*
%MOMM*%
%LPD*%
G01*
G04 APERTURE LIST*
%ADD10C,0.050000*%
%ADD11C,0.200000*%
%ADD12C,0.100000*%
%ADD13C,0.110000*%
%ADD14C,0.160000*%
%ADD15C,0.180000*%
G04 APERTURE END LIST*
D10*
X5000000Y-5400000D02*
X25000000Y-5400000D01*
X25000000Y-15000000D01*
X5000000Y-15000000D01*
X5000000Y-5400000D01*
D11*
D12*
X7310000Y-11760000D02*
X7340000Y-11790000D01*
X7340000Y-11760000D02*
X7310000Y-11790000D01*
X7935000Y-11760000D02*
X7965000Y-11790000D01*
X7965000Y-11760000D02*
X7935000Y-11790000D01*
X8560000Y-9960000D02*
X8590000Y-9990000D01*
X8590000Y-9960000D02*
X8560000Y-9990000D01*
X9185000Y-11760000D02*
X9215000Y-11790000D01*
X9215000Y-11760000D02*
X9185000Y-11790000D01*
X9835000Y-11760000D02*
X9865000Y-11790000D01*
X9865000Y-11760000D02*
X9835000Y-11790000D01*
X10160000Y-8535000D02*
X10190000Y-8565000D01*
X10190000Y-8535000D02*
X10160000Y-8565000D01*
X10435000Y-11760000D02*
X10465000Y-11790000D01*
X10465000Y-11760000D02*
X10435000Y-11790000D01*
X11085000Y-14810000D02*
X11115000Y-14840000D01*
X11115000Y-14810000D02*
X11085000Y-14840000D01*
X11685000Y-11760000D02*
X11715000Y-11790000D01*
X11715000Y-11760000D02*
X11685000Y-11790000D01*
X12560000Y-10915000D02*
X12590000Y-10945000D01*
X12590000Y-10915000D02*
X12560000Y-10945000D01*
X12935000Y-11760000D02*
X12965000Y-11790000D01*
X12965000Y-11760000D02*
X12935000Y-11790000D01*
X13610000Y-11760000D02*
X13640000Y-11790000D01*
X13640000Y-11760000D02*
X13610000Y-11790000D01*
X14210000Y-11760000D02*
X14240000Y-11790000D01*
X14240000Y-11760000D02*
X14210000Y-11790000D01*
X14860000Y-14810000D02*
X14890000Y-14840000D01*
X14890000Y-14810000D02*
X14860000Y-14840000D01*
X14935000Y-10235000D02*
X14965000Y-10265000D01*
X14965000Y-10235000D02*
X14935000Y-10265000D01*
X15260000Y-11135000D02*
X15290000Y-11165000D01*
X15290000Y-11135000D02*
X15260000Y-11165000D01*
X15345000Y-9645000D02*
X15375000Y-9675000D01*
X15375000Y-9645000D02*
X15345000Y-9675000D01*
X15460000Y-11760000D02*
X15490000Y-11790000D01*
X15490000Y-11760000D02*
X15460000Y-11790000D01*
X15565000Y-9845000D02*
X15595000Y-9875000D01*
X15595000Y-9845000D02*
X15565000Y-9875000D01*
X16110000Y-14810000D02*
X16140000Y-14840000D01*
X16140000Y-14810000D02*
X16110000Y-14840000D01*
X16625000Y-10045000D02*
X16655000Y-10075000D01*
X16655000Y-10045000D02*
X16625000Y-10075000D01*
X16625000Y-10605000D02*
X16655000Y-10635000D01*
X16655000Y-10605000D02*
X16625000Y-10635000D01*
X16710000Y-11760000D02*
X16740000Y-11790000D01*
X16740000Y-11760000D02*
X16710000Y-11790000D01*
X17810000Y-11285000D02*
X17840000Y-11315000D01*
X17840000Y-11285000D02*
X17810000Y-11315000D01*
X17960000Y-11760000D02*
X17990000Y-11790000D01*
X17990000Y-11760000D02*
X17960000Y-11790000D01*
X18460000Y-9535000D02*
X18490000Y-9565000D01*
X18490000Y-9535000D02*
X18460000Y-9565000D01*
X18635000Y-11760000D02*
X18665000Y-11790000D01*
X18665000Y-11760000D02*
X18635000Y-11790000D01*
X19210000Y-10925000D02*
X19240000Y-10955000D01*
X19240000Y-10925000D02*
X19210000Y-10955000D01*
X19235000Y-11760000D02*
X19265000Y-11790000D01*
X19265000Y-11760000D02*
X19235000Y-11790000D01*
X19585000Y-10385000D02*
X19615000Y-10415000D01*
X19615000Y-10385000D02*
X19585000Y-10415000D01*
X19785000Y-8765000D02*
X19815000Y-8795000D01*
X19815000Y-8765000D02*
X19785000Y-8795000D01*
X19885000Y-14810000D02*
X19915000Y-14840000D01*
X19915000Y-14810000D02*
X19885000Y-14840000D01*
X20285000Y-8125000D02*
X20315000Y-8155000D01*
X20315000Y-8125000D02*
X20285000Y-8155000D01*
X20485000Y-11760000D02*
X20515000Y-11790000D01*
X20515000Y-11760000D02*
X20485000Y-11790000D01*
X21735000Y-11760000D02*
X21765000Y-11790000D01*
X21765000Y-11760000D02*
X21735000Y-11790000D01*
X22010000Y-11585000D02*
X22040000Y-11615000D01*
X22040000Y-11585000D02*
X22010000Y-11615000D01*
X22510000Y-11385000D02*
X22540000Y-11415000D01*
X22540000Y-11385000D02*
X22510000Y-11415000D01*
X21115000Y-6724500D02*
G75*
G02*
X21045000Y-6724500I-35000J0D01*
G01*
X21045000Y-6724500D02*
G75*
G02*
X21115000Y-6724500I35000J0D01*
G01*
X21045000Y-6684500D02*
X21045000Y-6764500D01*
X21115000Y-6764500D02*
G75*
G02*
X21045000Y-6764500I-35000J0D01*
G01*
X21115000Y-6764500D02*
X21115000Y-6684500D01*
X21115000Y-6684500D02*
G75*
G03*
X21045000Y-6684500I-35000J0D01*
G01*
X21555000Y-5924500D02*
G75*
G02*
X21485000Y-5924500I-35000J0D01*
G01*
X21485000Y-5924500D02*
G75*
G02*
X21555000Y-5924500I35000J0D01*
G01*
X21485000Y-5884500D02*
X21485000Y-5964500D01*
X21555000Y-5964500D02*
G75*
G02*
X21485000Y-5964500I-35000J0D01*
G01*
X21555000Y-5964500D02*
X21555000Y-5884500D01*
X21555000Y-5884500D02*
G75*
G03*
X21485000Y-5884500I-35000J0D01*
G01*
X21555000Y-6224500D02*
G75*
G02*
X21485000Y-6224500I-35000J0D01*
G01*
X21485000Y-6224500D02*
G75*
G02*
X21555000Y-6224500I35000J0D01*
G01*
X21485000Y-6184500D02*
X21485000Y-6264500D01*
X21555000Y-6264500D02*
G75*
G02*
X21485000Y-6264500I-35000J0D01*
G01*
X21555000Y-6264500D02*
X21555000Y-6184500D01*
X21555000Y-6184500D02*
G75*
G03*
X21485000Y-6184500I-35000J0D01*
G01*
X21555000Y-6624500D02*
G75*
G02*
X21485000Y-6624500I-35000J0D01*
G01*
X21485000Y-6624500D02*
G75*
G02*
X21555000Y-6624500I35000J0D01*
G01*
X21485000Y-6584500D02*
X21485000Y-6664500D01*
X21555000Y-6664500D02*
G75*
G02*
X21485000Y-6664500I-35000J0D01*
G01*
X21555000Y-6664500D02*
X21555000Y-6584500D01*
X21555000Y-6584500D02*
G75*
G03*
X21485000Y-6584500I-35000J0D01*
G01*
X7050000Y-6857500D02*
X7050000Y-6932500D01*
X7012500Y-6895000D02*
X7087500Y-6895000D01*
X7250000Y-6857500D02*
X7250000Y-6932500D01*
X7212500Y-6895000D02*
X7287500Y-6895000D01*
X15373000Y-9187500D02*
X15373000Y-9262500D01*
X15335500Y-9225000D02*
X15410500Y-9225000D01*
X15500000Y-9187500D02*
X15500000Y-9262500D01*
X15462500Y-9225000D02*
X15537500Y-9225000D01*
X15627000Y-9187500D02*
X15627000Y-9262500D01*
X15589500Y-9225000D02*
X15664500Y-9225000D01*
X18623000Y-8748500D02*
X18623000Y-8823500D01*
X18585500Y-8786000D02*
X18660500Y-8786000D01*
X18750000Y-8748500D02*
X18750000Y-8823500D01*
X18712500Y-8786000D02*
X18787500Y-8786000D01*
X18877000Y-8748500D02*
X18877000Y-8823500D01*
X18839500Y-8786000D02*
X18914500Y-8786000D01*
X19346000Y-8762500D02*
X19346000Y-8837500D01*
X19308500Y-8800000D02*
X19383500Y-8800000D01*
X19473000Y-8762500D02*
X19473000Y-8837500D01*
X19435500Y-8800000D02*
X19510500Y-8800000D01*
X19600000Y-8762500D02*
X19600000Y-8837500D01*
X19562500Y-8800000D02*
X19637500Y-8800000D01*
X19905000Y-10162500D02*
X19905000Y-10237500D01*
X19867500Y-10200000D02*
X19942500Y-10200000D01*
X19905000Y-10362500D02*
X19905000Y-10437500D01*
X19867500Y-10400000D02*
X19942500Y-10400000D01*
X22800000Y-5832500D02*
X22800000Y-5907500D01*
X22762500Y-5870000D02*
X22837500Y-5870000D01*
X23000000Y-5832500D02*
X23000000Y-5907500D01*
X22962500Y-5870000D02*
X23037500Y-5870000D01*
X6001941Y-12666941D02*
X6001941Y-12613059D01*
X5948059Y-12613059D01*
X5948059Y-12666941D01*
X6001941Y-12666941D01*
X6001941Y-12916941D02*
X6001941Y-12863059D01*
X5948059Y-12863059D01*
X5948059Y-12916941D01*
X6001941Y-12916941D01*
X6001941Y-13166941D02*
X6001941Y-13113059D01*
X5948059Y-13113059D01*
X5948059Y-13166941D01*
X6001941Y-13166941D01*
X6001941Y-13666941D02*
X6001941Y-13613059D01*
X5948059Y-13613059D01*
X5948059Y-13666941D01*
X6001941Y-13666941D01*
X6001941Y-13916941D02*
X6001941Y-13863059D01*
X5948059Y-13863059D01*
X5948059Y-13916941D01*
X6001941Y-13916941D01*
X6251941Y-12666941D02*
X6251941Y-12613059D01*
X6198059Y-12613059D01*
X6198059Y-12666941D01*
X6251941Y-12666941D01*
X6251941Y-12916941D02*
X6251941Y-12863059D01*
X6198059Y-12863059D01*
X6198059Y-12916941D01*
X6251941Y-12916941D01*
X6251941Y-13166941D02*
X6251941Y-13113059D01*
X6198059Y-13113059D01*
X6198059Y-13166941D01*
X6251941Y-13166941D01*
X6251941Y-13666941D02*
X6251941Y-13613059D01*
X6198059Y-13613059D01*
X6198059Y-13666941D01*
X6251941Y-13666941D01*
X6251941Y-13916941D02*
X6251941Y-13863059D01*
X6198059Y-13863059D01*
X6198059Y-13916941D01*
X6251941Y-13916941D01*
X5450000Y-8245000D02*
X5490000Y-8205000D01*
X5450000Y-8165000D01*
X5410000Y-8205000D01*
X5450000Y-8245000D01*
X5450000Y-8695000D02*
X5490000Y-8655000D01*
X5450000Y-8615000D01*
X5410000Y-8655000D01*
X5450000Y-8695000D01*
X5450000Y-9045000D02*
X5490000Y-9005000D01*
X5450000Y-8965000D01*
X5410000Y-9005000D01*
X5450000Y-9045000D01*
X5450000Y-9495000D02*
X5490000Y-9455000D01*
X5450000Y-9415000D01*
X5410000Y-9455000D01*
X5450000Y-9495000D01*
X5450000Y-9845000D02*
X5490000Y-9805000D01*
X5450000Y-9765000D01*
X5410000Y-9805000D01*
X5450000Y-9845000D01*
X5450000Y-10635000D02*
X5490000Y-10595000D01*
X5450000Y-10555000D01*
X5410000Y-10595000D01*
X5450000Y-10635000D01*
X5450000Y-10990000D02*
X5490000Y-10950000D01*
X5450000Y-10910000D01*
X5410000Y-10950000D01*
X5450000Y-10990000D01*
X5450000Y-11345000D02*
X5490000Y-11305000D01*
X5450000Y-11265000D01*
X5410000Y-11305000D01*
X5450000Y-11345000D01*
X5460000Y-10295000D02*
X5500000Y-10255000D01*
X5460000Y-10215000D01*
X5420000Y-10255000D01*
X5460000Y-10295000D01*
X5950000Y-8245000D02*
X5990000Y-8205000D01*
X5950000Y-8165000D01*
X5910000Y-8205000D01*
X5950000Y-8245000D01*
X5950000Y-8695000D02*
X5990000Y-8655000D01*
X5950000Y-8615000D01*
X5910000Y-8655000D01*
X5950000Y-8695000D01*
X5950000Y-9045000D02*
X5990000Y-9005000D01*
X5950000Y-8965000D01*
X5910000Y-9005000D01*
X5950000Y-9045000D01*
X5950000Y-9495000D02*
X5990000Y-9455000D01*
X5950000Y-9415000D01*
X5910000Y-9455000D01*
X5950000Y-9495000D01*
X5950000Y-9845000D02*
X5990000Y-9805000D01*
X5950000Y-9765000D01*
X5910000Y-9805000D01*
X5950000Y-9845000D01*
X5950000Y-10635000D02*
X5990000Y-10595000D01*
X5950000Y-10555000D01*
X5910000Y-10595000D01*
X5950000Y-10635000D01*
X5950000Y-10990000D02*
X5990000Y-10950000D01*
X5950000Y-10910000D01*
X5910000Y-10950000D01*
X5950000Y-10990000D01*
X5950000Y-11345000D02*
X5990000Y-11305000D01*
X5950000Y-11265000D01*
X5910000Y-11305000D01*
X5950000Y-11345000D01*
X5960000Y-10295000D02*
X6000000Y-10255000D01*
X5960000Y-10215000D01*
X5920000Y-10255000D01*
X5960000Y-10295000D01*
X6250000Y-9495000D02*
X6290000Y-9455000D01*
X6250000Y-9415000D01*
X6210000Y-9455000D01*
X6250000Y-9495000D01*
X6250000Y-9845000D02*
X6290000Y-9805000D01*
X6250000Y-9765000D01*
X6210000Y-9805000D01*
X6250000Y-9845000D01*
X6300000Y-10280000D02*
X6340000Y-10240000D01*
X6300000Y-10200000D01*
X6260000Y-10240000D01*
X6300000Y-10280000D01*
X6300000Y-10635000D02*
X6340000Y-10595000D01*
X6300000Y-10555000D01*
X6260000Y-10595000D01*
X6300000Y-10635000D01*
X6300000Y-10990000D02*
X6340000Y-10950000D01*
X6300000Y-10910000D01*
X6260000Y-10950000D01*
X6300000Y-10990000D01*
X6300000Y-11345000D02*
X6340000Y-11305000D01*
X6300000Y-11265000D01*
X6260000Y-11305000D01*
X6300000Y-11345000D01*
X6750000Y-9495000D02*
X6790000Y-9455000D01*
X6750000Y-9415000D01*
X6710000Y-9455000D01*
X6750000Y-9495000D01*
X6750000Y-9845000D02*
X6790000Y-9805000D01*
X6750000Y-9765000D01*
X6710000Y-9805000D01*
X6750000Y-9845000D01*
X6800000Y-10280000D02*
X6840000Y-10240000D01*
X6800000Y-10200000D01*
X6760000Y-10240000D01*
X6800000Y-10280000D01*
X6800000Y-10635000D02*
X6840000Y-10595000D01*
X6800000Y-10555000D01*
X6760000Y-10595000D01*
X6800000Y-10635000D01*
X6800000Y-10990000D02*
X6840000Y-10950000D01*
X6800000Y-10910000D01*
X6760000Y-10950000D01*
X6800000Y-10990000D01*
X6800000Y-11345000D02*
X6840000Y-11305000D01*
X6800000Y-11265000D01*
X6760000Y-11305000D01*
X6800000Y-11345000D01*
X7960000Y-6640000D02*
X8000000Y-6600000D01*
X7960000Y-6560000D01*
X7920000Y-6600000D01*
X7960000Y-6640000D01*
X7960000Y-7140000D02*
X8000000Y-7100000D01*
X7960000Y-7060000D01*
X7920000Y-7100000D01*
X7960000Y-7140000D01*
X8769000Y-9590000D02*
X8809000Y-9550000D01*
X8769000Y-9510000D01*
X8729000Y-9550000D01*
X8769000Y-9590000D01*
X8850000Y-6490000D02*
X8890000Y-6450000D01*
X8850000Y-6410000D01*
X8810000Y-6450000D01*
X8850000Y-6490000D01*
X8850000Y-6744000D02*
X8890000Y-6704000D01*
X8850000Y-6664000D01*
X8810000Y-6704000D01*
X8850000Y-6744000D01*
X8850000Y-6998000D02*
X8890000Y-6958000D01*
X8850000Y-6918000D01*
X8810000Y-6958000D01*
X8850000Y-6998000D01*
X8900000Y-8990000D02*
X8940000Y-8950000D01*
X8900000Y-8910000D01*
X8860000Y-8950000D01*
X8900000Y-8990000D01*
X9400000Y-8990000D02*
X9440000Y-8950000D01*
X9400000Y-8910000D01*
X9360000Y-8950000D01*
X9400000Y-8990000D01*
X9450000Y-6490000D02*
X9490000Y-6450000D01*
X9450000Y-6410000D01*
X9410000Y-6450000D01*
X9450000Y-6490000D01*
X9450000Y-6744000D02*
X9490000Y-6704000D01*
X9450000Y-6664000D01*
X9410000Y-6704000D01*
X9450000Y-6744000D01*
X9450000Y-6998000D02*
X9490000Y-6958000D01*
X9450000Y-6918000D01*
X9410000Y-6958000D01*
X9450000Y-6998000D01*
X9531000Y-9590000D02*
X9571000Y-9550000D01*
X9531000Y-9510000D01*
X9491000Y-9550000D01*
X9531000Y-9590000D01*
X9965000Y-8835000D02*
X10005000Y-8795000D01*
X9965000Y-8755000D01*
X9925000Y-8795000D01*
X9965000Y-8835000D01*
X9965000Y-9089000D02*
X10005000Y-9049000D01*
X9965000Y-9009000D01*
X9925000Y-9049000D01*
X9965000Y-9089000D01*
X9965000Y-9343000D02*
X10005000Y-9303000D01*
X9965000Y-9263000D01*
X9925000Y-9303000D01*
X9965000Y-9343000D01*
X9965000Y-9597000D02*
X10005000Y-9557000D01*
X9965000Y-9517000D01*
X9925000Y-9557000D01*
X9965000Y-9597000D01*
X10050000Y-6490000D02*
X10090000Y-6450000D01*
X10050000Y-6410000D01*
X10010000Y-6450000D01*
X10050000Y-6490000D01*
X10050000Y-6744000D02*
X10090000Y-6704000D01*
X10050000Y-6664000D01*
X10010000Y-6704000D01*
X10050000Y-6744000D01*
X10050000Y-6998000D02*
X10090000Y-6958000D01*
X10050000Y-6918000D01*
X10010000Y-6958000D01*
X10050000Y-6998000D01*
X10650000Y-6490000D02*
X10690000Y-6450000D01*
X10650000Y-6410000D01*
X10610000Y-6450000D01*
X10650000Y-6490000D01*
X10650000Y-6744000D02*
X10690000Y-6704000D01*
X10650000Y-6664000D01*
X10610000Y-6704000D01*
X10650000Y-6744000D01*
X10650000Y-6998000D02*
X10690000Y-6958000D01*
X10650000Y-6918000D01*
X10610000Y-6958000D01*
X10650000Y-6998000D01*
X10650000Y-7890000D02*
X10690000Y-7850000D01*
X10650000Y-7810000D01*
X10610000Y-7850000D01*
X10650000Y-7890000D01*
X10650000Y-8390000D02*
X10690000Y-8350000D01*
X10650000Y-8310000D01*
X10610000Y-8350000D01*
X10650000Y-8390000D01*
X10727000Y-8835000D02*
X10767000Y-8795000D01*
X10727000Y-8755000D01*
X10687000Y-8795000D01*
X10727000Y-8835000D01*
X10727000Y-9089000D02*
X10767000Y-9049000D01*
X10727000Y-9009000D01*
X10687000Y-9049000D01*
X10727000Y-9089000D01*
X10727000Y-9343000D02*
X10767000Y-9303000D01*
X10727000Y-9263000D01*
X10687000Y-9303000D01*
X10727000Y-9343000D01*
X10727000Y-9597000D02*
X10767000Y-9557000D01*
X10727000Y-9517000D01*
X10687000Y-9557000D01*
X10727000Y-9597000D01*
X11079489Y-8140000D02*
X11119489Y-8100000D01*
X11079489Y-8060000D01*
X11039489Y-8100000D01*
X11079489Y-8140000D01*
X11200000Y-8809000D02*
X11240000Y-8769000D01*
X11200000Y-8729000D01*
X11160000Y-8769000D01*
X11200000Y-8809000D01*
X11200000Y-9571000D02*
X11240000Y-9531000D01*
X11200000Y-9491000D01*
X11160000Y-9531000D01*
X11200000Y-9571000D01*
X11250000Y-6490000D02*
X11290000Y-6450000D01*
X11250000Y-6410000D01*
X11210000Y-6450000D01*
X11250000Y-6490000D01*
X11250000Y-6744000D02*
X11290000Y-6704000D01*
X11250000Y-6664000D01*
X11210000Y-6704000D01*
X11250000Y-6744000D01*
X11250000Y-6998000D02*
X11290000Y-6958000D01*
X11250000Y-6918000D01*
X11210000Y-6958000D01*
X11250000Y-6998000D01*
X11329489Y-8140000D02*
X11369489Y-8100000D01*
X11329489Y-8060000D01*
X11289489Y-8100000D01*
X11329489Y-8140000D01*
X11850000Y-6490000D02*
X11890000Y-6450000D01*
X11850000Y-6410000D01*
X11810000Y-6450000D01*
X11850000Y-6490000D01*
X11850000Y-6744000D02*
X11890000Y-6704000D01*
X11850000Y-6664000D01*
X11810000Y-6704000D01*
X11850000Y-6744000D01*
X11850000Y-6998000D02*
X11890000Y-6958000D01*
X11850000Y-6918000D01*
X11810000Y-6958000D01*
X11850000Y-6998000D01*
X12269000Y-10155000D02*
X12309000Y-10115000D01*
X12269000Y-10075000D01*
X12229000Y-10115000D01*
X12269000Y-10155000D01*
X12269000Y-10510000D02*
X12309000Y-10470000D01*
X12269000Y-10430000D01*
X12229000Y-10470000D01*
X12269000Y-10510000D01*
X12450000Y-6490000D02*
X12490000Y-6450000D01*
X12450000Y-6410000D01*
X12410000Y-6450000D01*
X12450000Y-6490000D01*
X12450000Y-6744000D02*
X12490000Y-6704000D01*
X12450000Y-6664000D01*
X12410000Y-6704000D01*
X12450000Y-6744000D01*
X12450000Y-6998000D02*
X12490000Y-6958000D01*
X12450000Y-6918000D01*
X12410000Y-6958000D01*
X12450000Y-6998000D01*
X12500000Y-9229000D02*
X12540000Y-9189000D01*
X12500000Y-9149000D01*
X12460000Y-9189000D01*
X12500000Y-9229000D01*
X12500000Y-9679000D02*
X12540000Y-9639000D01*
X12500000Y-9599000D01*
X12460000Y-9639000D01*
X12500000Y-9679000D01*
X12750000Y-7967000D02*
X12790000Y-7927000D01*
X12750000Y-7887000D01*
X12710000Y-7927000D01*
X12750000Y-7967000D01*
X12750000Y-8729000D02*
X12790000Y-8689000D01*
X12750000Y-8649000D01*
X12710000Y-8689000D01*
X12750000Y-8729000D01*
X13000000Y-9229000D02*
X13040000Y-9189000D01*
X13000000Y-9149000D01*
X12960000Y-9189000D01*
X13000000Y-9229000D01*
X13000000Y-9679000D02*
X13040000Y-9639000D01*
X13000000Y-9599000D01*
X12960000Y-9639000D01*
X13000000Y-9679000D01*
X13031000Y-10155000D02*
X13071000Y-10115000D01*
X13031000Y-10075000D01*
X12991000Y-10115000D01*
X13031000Y-10155000D01*
X13031000Y-10510000D02*
X13071000Y-10470000D01*
X13031000Y-10430000D01*
X12991000Y-10470000D01*
X13031000Y-10510000D01*
X13050000Y-6490000D02*
X13090000Y-6450000D01*
X13050000Y-6410000D01*
X13010000Y-6450000D01*
X13050000Y-6490000D01*
X13050000Y-6744000D02*
X13090000Y-6704000D01*
X13050000Y-6664000D01*
X13010000Y-6704000D01*
X13050000Y-6744000D01*
X13050000Y-6998000D02*
X13090000Y-6958000D01*
X13050000Y-6918000D01*
X13010000Y-6958000D01*
X13050000Y-6998000D01*
X13350000Y-9229000D02*
X13390000Y-9189000D01*
X13350000Y-9149000D01*
X13310000Y-9189000D01*
X13350000Y-9229000D01*
X13350000Y-9679000D02*
X13390000Y-9639000D01*
X13350000Y-9599000D01*
X13310000Y-9639000D01*
X13350000Y-9679000D01*
X13600000Y-7967000D02*
X13640000Y-7927000D01*
X13600000Y-7887000D01*
X13560000Y-7927000D01*
X13600000Y-7967000D01*
X13600000Y-8729000D02*
X13640000Y-8689000D01*
X13600000Y-8649000D01*
X13560000Y-8689000D01*
X13600000Y-8729000D01*
X13650000Y-6490000D02*
X13690000Y-6450000D01*
X13650000Y-6410000D01*
X13610000Y-6450000D01*
X13650000Y-6490000D01*
X13650000Y-6744000D02*
X13690000Y-6704000D01*
X13650000Y-6664000D01*
X13610000Y-6704000D01*
X13650000Y-6744000D01*
X13650000Y-6998000D02*
X13690000Y-6958000D01*
X13650000Y-6918000D01*
X13610000Y-6958000D01*
X13650000Y-6998000D01*
X13677000Y-10290000D02*
X13717000Y-10250000D01*
X13677000Y-10210000D01*
X13637000Y-10250000D01*
X13677000Y-10290000D01*
X13850000Y-9229000D02*
X13890000Y-9189000D01*
X13850000Y-9149000D01*
X13810000Y-9189000D01*
X13850000Y-9229000D01*
X13850000Y-9679000D02*
X13890000Y-9639000D01*
X13850000Y-9599000D01*
X13810000Y-9639000D01*
X13850000Y-9679000D01*
X13931000Y-10290000D02*
X13971000Y-10250000D01*
X13931000Y-10210000D01*
X13891000Y-10250000D01*
X13931000Y-10290000D01*
X14185000Y-10290000D02*
X14225000Y-10250000D01*
X14185000Y-10210000D01*
X14145000Y-10250000D01*
X14185000Y-10290000D01*
X14200000Y-9229000D02*
X14240000Y-9189000D01*
X14200000Y-9149000D01*
X14160000Y-9189000D01*
X14200000Y-9229000D01*
X14250000Y-6490000D02*
X14290000Y-6450000D01*
X14250000Y-6410000D01*
X14210000Y-6450000D01*
X14250000Y-6490000D01*
X14250000Y-6744000D02*
X14290000Y-6704000D01*
X14250000Y-6664000D01*
X14210000Y-6704000D01*
X14250000Y-6744000D01*
X14250000Y-6998000D02*
X14290000Y-6958000D01*
X14250000Y-6918000D01*
X14210000Y-6958000D01*
X14250000Y-6998000D01*
X14700000Y-9229000D02*
X14740000Y-9189000D01*
X14700000Y-9149000D01*
X14660000Y-9189000D01*
X14700000Y-9229000D01*
X14850000Y-6490000D02*
X14890000Y-6450000D01*
X14850000Y-6410000D01*
X14810000Y-6450000D01*
X14850000Y-6490000D01*
X14850000Y-6744000D02*
X14890000Y-6704000D01*
X14850000Y-6664000D01*
X14810000Y-6704000D01*
X14850000Y-6744000D01*
X14850000Y-6998000D02*
X14890000Y-6958000D01*
X14850000Y-6918000D01*
X14810000Y-6958000D01*
X14850000Y-6998000D01*
X15450000Y-6490000D02*
X15490000Y-6450000D01*
X15450000Y-6410000D01*
X15410000Y-6450000D01*
X15450000Y-6490000D01*
X15450000Y-6744000D02*
X15490000Y-6704000D01*
X15450000Y-6664000D01*
X15410000Y-6704000D01*
X15450000Y-6744000D01*
X15450000Y-6998000D02*
X15490000Y-6958000D01*
X15450000Y-6918000D01*
X15410000Y-6958000D01*
X15450000Y-6998000D01*
X16050000Y-6490000D02*
X16090000Y-6450000D01*
X16050000Y-6410000D01*
X16010000Y-6450000D01*
X16050000Y-6490000D01*
X16050000Y-6744000D02*
X16090000Y-6704000D01*
X16050000Y-6664000D01*
X16010000Y-6704000D01*
X16050000Y-6744000D01*
X16050000Y-6998000D02*
X16090000Y-6958000D01*
X16050000Y-6918000D01*
X16010000Y-6958000D01*
X16050000Y-6998000D01*
X16650000Y-6490000D02*
X16690000Y-6450000D01*
X16650000Y-6410000D01*
X16610000Y-6450000D01*
X16650000Y-6490000D01*
X16650000Y-6744000D02*
X16690000Y-6704000D01*
X16650000Y-6664000D01*
X16610000Y-6704000D01*
X16650000Y-6744000D01*
X16650000Y-6998000D02*
X16690000Y-6958000D01*
X16650000Y-6918000D01*
X16610000Y-6958000D01*
X16650000Y-6998000D01*
X17250000Y-6490000D02*
X17290000Y-6450000D01*
X17250000Y-6410000D01*
X17210000Y-6450000D01*
X17250000Y-6490000D01*
X17250000Y-6744000D02*
X17290000Y-6704000D01*
X17250000Y-6664000D01*
X17210000Y-6704000D01*
X17250000Y-6744000D01*
X17250000Y-6998000D02*
X17290000Y-6958000D01*
X17250000Y-6918000D01*
X17210000Y-6958000D01*
X17250000Y-6998000D01*
X17270000Y-9510000D02*
X17310000Y-9470000D01*
X17270000Y-9430000D01*
X17230000Y-9470000D01*
X17270000Y-9510000D01*
X17270000Y-9764000D02*
X17310000Y-9724000D01*
X17270000Y-9684000D01*
X17230000Y-9724000D01*
X17270000Y-9764000D01*
X17270000Y-10018000D02*
X17310000Y-9978000D01*
X17270000Y-9938000D01*
X17230000Y-9978000D01*
X17270000Y-10018000D01*
X17270000Y-10272000D02*
X17310000Y-10232000D01*
X17270000Y-10192000D01*
X17230000Y-10232000D01*
X17270000Y-10272000D01*
X17850000Y-6490000D02*
X17890000Y-6450000D01*
X17850000Y-6410000D01*
X17810000Y-6450000D01*
X17850000Y-6490000D01*
X17850000Y-6744000D02*
X17890000Y-6704000D01*
X17850000Y-6664000D01*
X17810000Y-6704000D01*
X17850000Y-6744000D01*
X17850000Y-6998000D02*
X17890000Y-6958000D01*
X17850000Y-6918000D01*
X17810000Y-6958000D01*
X17850000Y-6998000D01*
X18032000Y-9510000D02*
X18072000Y-9470000D01*
X18032000Y-9430000D01*
X17992000Y-9470000D01*
X18032000Y-9510000D01*
X18032000Y-9764000D02*
X18072000Y-9724000D01*
X18032000Y-9684000D01*
X17992000Y-9724000D01*
X18032000Y-9764000D01*
X18032000Y-10018000D02*
X18072000Y-9978000D01*
X18032000Y-9938000D01*
X17992000Y-9978000D01*
X18032000Y-10018000D01*
X18032000Y-10272000D02*
X18072000Y-10232000D01*
X18032000Y-10192000D01*
X17992000Y-10232000D01*
X18032000Y-10272000D01*
X18450000Y-6490000D02*
X18490000Y-6450000D01*
X18450000Y-6410000D01*
X18410000Y-6450000D01*
X18450000Y-6490000D01*
X18450000Y-6744000D02*
X18490000Y-6704000D01*
X18450000Y-6664000D01*
X18410000Y-6704000D01*
X18450000Y-6744000D01*
X18450000Y-6998000D02*
X18490000Y-6958000D01*
X18450000Y-6918000D01*
X18410000Y-6958000D01*
X18450000Y-6998000D01*
X18450000Y-10490000D02*
X18490000Y-10450000D01*
X18450000Y-10410000D01*
X18410000Y-10450000D01*
X18450000Y-10490000D01*
X18729489Y-9865000D02*
X18769489Y-9825000D01*
X18729489Y-9785000D01*
X18689489Y-9825000D01*
X18729489Y-9865000D01*
X18979489Y-9865000D02*
X19019489Y-9825000D01*
X18979489Y-9785000D01*
X18939489Y-9825000D01*
X18979489Y-9865000D01*
X19050000Y-6490000D02*
X19090000Y-6450000D01*
X19050000Y-6410000D01*
X19010000Y-6450000D01*
X19050000Y-6490000D01*
X19050000Y-6744000D02*
X19090000Y-6704000D01*
X19050000Y-6664000D01*
X19010000Y-6704000D01*
X19050000Y-6744000D01*
X19050000Y-6998000D02*
X19090000Y-6958000D01*
X19050000Y-6918000D01*
X19010000Y-6958000D01*
X19050000Y-6998000D01*
X19050000Y-8040000D02*
X19090000Y-8000000D01*
X19050000Y-7960000D01*
X19010000Y-8000000D01*
X19050000Y-8040000D01*
X19212000Y-10490000D02*
X19252000Y-10450000D01*
X19212000Y-10410000D01*
X19172000Y-10450000D01*
X19212000Y-10490000D01*
X19650000Y-6490000D02*
X19690000Y-6450000D01*
X19650000Y-6410000D01*
X19610000Y-6450000D01*
X19650000Y-6490000D01*
X19650000Y-6744000D02*
X19690000Y-6704000D01*
X19650000Y-6664000D01*
X19610000Y-6704000D01*
X19650000Y-6744000D01*
X19650000Y-6998000D02*
X19690000Y-6958000D01*
X19650000Y-6918000D01*
X19610000Y-6958000D01*
X19650000Y-6998000D01*
X19812000Y-8040000D02*
X19852000Y-8000000D01*
X19812000Y-7960000D01*
X19772000Y-8000000D01*
X19812000Y-8040000D01*
X20250000Y-6490000D02*
X20290000Y-6450000D01*
X20250000Y-6410000D01*
X20210000Y-6450000D01*
X20250000Y-6490000D01*
X20250000Y-6744000D02*
X20290000Y-6704000D01*
X20250000Y-6664000D01*
X20210000Y-6704000D01*
X20250000Y-6744000D01*
X20250000Y-6998000D02*
X20290000Y-6958000D01*
X20250000Y-6918000D01*
X20210000Y-6958000D01*
X20250000Y-6998000D01*
X22989000Y-11895000D02*
X23029000Y-11855000D01*
X22989000Y-11815000D01*
X22949000Y-11855000D01*
X22989000Y-11895000D01*
X23360000Y-12865000D02*
X23400000Y-12825000D01*
X23360000Y-12785000D01*
X23320000Y-12825000D01*
X23360000Y-12865000D01*
X23320000Y-12865000D02*
X23400000Y-12865000D01*
X23400000Y-12785000D02*
G75*
G02*
X23400000Y-12865000I0J-40000D01*
G01*
X23400000Y-12785000D02*
X23320000Y-12785000D01*
X23320000Y-12785000D02*
G75*
G03*
X23320000Y-12865000I0J-40000D01*
G01*
X23360000Y-14190000D02*
X23400000Y-14150000D01*
X23360000Y-14110000D01*
X23320000Y-14150000D01*
X23360000Y-14190000D01*
X23320000Y-14190000D02*
X23400000Y-14190000D01*
X23400000Y-14110000D02*
G75*
G02*
X23400000Y-14190000I0J-40000D01*
G01*
X23400000Y-14110000D02*
X23320000Y-14110000D01*
X23320000Y-14110000D02*
G75*
G03*
X23320000Y-14190000I0J-40000D01*
G01*
X23650000Y-12865000D02*
X23690000Y-12825000D01*
X23650000Y-12785000D01*
X23610000Y-12825000D01*
X23650000Y-12865000D01*
X23610000Y-12865000D02*
X23690000Y-12865000D01*
X23690000Y-12785000D02*
G75*
G02*
X23690000Y-12865000I0J-40000D01*
G01*
X23690000Y-12785000D02*
X23610000Y-12785000D01*
X23610000Y-12785000D02*
G75*
G03*
X23610000Y-12865000I0J-40000D01*
G01*
X23650000Y-14190000D02*
X23690000Y-14150000D01*
X23650000Y-14110000D01*
X23610000Y-14150000D01*
X23650000Y-14190000D01*
X23610000Y-14190000D02*
X23690000Y-14190000D01*
X23690000Y-14110000D02*
G75*
G02*
X23690000Y-14190000I0J-40000D01*
G01*
X23690000Y-14110000D02*
X23610000Y-14110000D01*
X23610000Y-14110000D02*
G75*
G03*
X23610000Y-14190000I0J-40000D01*
G01*
X23751000Y-11895000D02*
X23791000Y-11855000D01*
X23751000Y-11815000D01*
X23711000Y-11855000D01*
X23751000Y-11895000D01*
X23940000Y-12865000D02*
X23980000Y-12825000D01*
X23940000Y-12785000D01*
X23900000Y-12825000D01*
X23940000Y-12865000D01*
X23900000Y-12865000D02*
X23980000Y-12865000D01*
X23980000Y-12785000D02*
G75*
G02*
X23980000Y-12865000I0J-40000D01*
G01*
X23980000Y-12785000D02*
X23900000Y-12785000D01*
X23900000Y-12785000D02*
G75*
G03*
X23900000Y-12865000I0J-40000D01*
G01*
X23940000Y-14190000D02*
X23980000Y-14150000D01*
X23940000Y-14110000D01*
X23900000Y-14150000D01*
X23940000Y-14190000D01*
X23900000Y-14190000D02*
X23980000Y-14190000D01*
X23980000Y-14110000D02*
G75*
G02*
X23980000Y-14190000I0J-40000D01*
G01*
X23980000Y-14110000D02*
X23900000Y-14110000D01*
X23900000Y-14110000D02*
G75*
G03*
X23900000Y-14190000I0J-40000D01*
G01*
X24202500Y-11555000D02*
X24292500Y-11645000D01*
X24292500Y-11555000D02*
X24202500Y-11645000D01*
X24292500Y-11600000D02*
G75*
G02*
X24202500Y-11600000I-45000J0D01*
G01*
X24202500Y-11600000D02*
G75*
G02*
X24292500Y-11600000I45000J0D01*
G01*
X24456500Y-11555000D02*
X24546500Y-11645000D01*
X24546500Y-11555000D02*
X24456500Y-11645000D01*
X24546500Y-11600000D02*
G75*
G02*
X24456500Y-11600000I-45000J0D01*
G01*
X24456500Y-11600000D02*
G75*
G02*
X24546500Y-11600000I45000J0D01*
G01*
X23471950Y-5875000D02*
X23571950Y-5975000D01*
X23571950Y-5875000D02*
X23471950Y-5975000D01*
X23521950Y-5875000D02*
X23521950Y-5975000D01*
X23471950Y-5925000D02*
X23571950Y-5925000D01*
X23471950Y-6125000D02*
X23571950Y-6225000D01*
X23571950Y-6125000D02*
X23471950Y-6225000D01*
X23521950Y-6125000D02*
X23521950Y-6225000D01*
X23471950Y-6175000D02*
X23571950Y-6175000D01*
X23471950Y-6375000D02*
X23571950Y-6475000D01*
X23571950Y-6375000D02*
X23471950Y-6475000D01*
X23521950Y-6375000D02*
X23521950Y-6475000D01*
X23471950Y-6425000D02*
X23571950Y-6425000D01*
D13*
X6845000Y-7465000D02*
X6955000Y-7575000D01*
X6955000Y-7465000D02*
X6845000Y-7575000D01*
X6938891Y-7558891D02*
X6938891Y-7481109D01*
X6861109Y-7481109D01*
X6861109Y-7558891D01*
X6938891Y-7558891D01*
X6845000Y-7915000D02*
X6955000Y-8025000D01*
X6955000Y-7915000D02*
X6845000Y-8025000D01*
X6938891Y-8008891D02*
X6938891Y-7931109D01*
X6861109Y-7931109D01*
X6861109Y-8008891D01*
X6938891Y-8008891D01*
X7861000Y-7465000D02*
X7971000Y-7575000D01*
X7971000Y-7465000D02*
X7861000Y-7575000D01*
X7954891Y-7558891D02*
X7954891Y-7481109D01*
X7877109Y-7481109D01*
X7877109Y-7558891D01*
X7954891Y-7558891D01*
X7861000Y-7915000D02*
X7971000Y-8025000D01*
X7971000Y-7915000D02*
X7861000Y-8025000D01*
X7954891Y-8008891D02*
X7954891Y-7931109D01*
X7877109Y-7931109D01*
X7877109Y-8008891D01*
X7954891Y-8008891D01*
D14*
X5820000Y-6020000D02*
X5980000Y-6180000D01*
X5980000Y-6020000D02*
X5820000Y-6180000D01*
X5900000Y-6180000D02*
X5980000Y-6100000D01*
X5900000Y-6020000D01*
X5820000Y-6100000D01*
X5900000Y-6180000D01*
D12*
X5820000Y-6055000D02*
X5820000Y-6145000D01*
X5980000Y-6145000D02*
G75*
G02*
X5820000Y-6145000I-80000J0D01*
G01*
X5980000Y-6145000D02*
X5980000Y-6055000D01*
X5980000Y-6055000D02*
G75*
G03*
X5820000Y-6055000I-80000J0D01*
G01*
D14*
X6120000Y-6490000D02*
X6280000Y-6650000D01*
X6280000Y-6490000D02*
X6120000Y-6650000D01*
X6200000Y-6650000D02*
X6280000Y-6570000D01*
X6200000Y-6490000D01*
X6120000Y-6570000D01*
X6200000Y-6650000D01*
D12*
X6230000Y-6490000D02*
X6170000Y-6490000D01*
X6170000Y-6650000D02*
G75*
G02*
X6170000Y-6490000I0J80000D01*
G01*
X6170000Y-6650000D02*
X6230000Y-6650000D01*
X6230000Y-6650000D02*
G75*
G03*
X6230000Y-6490000I0J80000D01*
G01*
D14*
X6420000Y-6020000D02*
X6580000Y-6180000D01*
X6580000Y-6020000D02*
X6420000Y-6180000D01*
X6500000Y-6180000D02*
X6580000Y-6100000D01*
X6500000Y-6020000D01*
X6420000Y-6100000D01*
X6500000Y-6180000D01*
D12*
X6420000Y-6055000D02*
X6420000Y-6145000D01*
X6580000Y-6145000D02*
G75*
G02*
X6420000Y-6145000I-80000J0D01*
G01*
X6580000Y-6145000D02*
X6580000Y-6055000D01*
X6580000Y-6055000D02*
G75*
G03*
X6420000Y-6055000I-80000J0D01*
G01*
D15*
X24271950Y-5645000D02*
X24271950Y-5825000D01*
X24181950Y-5735000D02*
X24361950Y-5735000D01*
X24361950Y-5735000D02*
G75*
G02*
X24181950Y-5735000I-90000J0D01*
G01*
X24181950Y-5735000D02*
G75*
G02*
X24361950Y-5735000I90000J0D01*
G01*
D12*
X24291950Y-5645000D02*
X24251950Y-5645000D01*
X24251950Y-5825000D02*
G75*
G02*
X24251950Y-5645000I0J90000D01*
G01*
X24251950Y-5825000D02*
X24291950Y-5825000D01*
X24291950Y-5825000D02*
G75*
G03*
X24291950Y-5645000I0J90000D01*
G01*
D15*
X24271950Y-6525000D02*
X24271950Y-6705000D01*
X24181950Y-6615000D02*
X24361950Y-6615000D01*
X24361950Y-6615000D02*
G75*
G02*
X24181950Y-6615000I-90000J0D01*
G01*
X24181950Y-6615000D02*
G75*
G02*
X24361950Y-6615000I90000J0D01*
G01*
D12*
X24291950Y-6525000D02*
X24251950Y-6525000D01*
X24251950Y-6705000D02*
G75*
G02*
X24251950Y-6525000I0J90000D01*
G01*
X24251950Y-6705000D02*
X24291950Y-6705000D01*
X24291950Y-6705000D02*
G75*
G03*
X24291950Y-6525000I0J90000D01*
G01*
D11*
X5258277Y-15313984D02*
X5258277Y-15113984D01*
X5258277Y-15113984D02*
X5305896Y-15113984D01*
X5305896Y-15113984D02*
X5334467Y-15123508D01*
X5334467Y-15123508D02*
X5353515Y-15142555D01*
X5353515Y-15142555D02*
X5363039Y-15161603D01*
X5363039Y-15161603D02*
X5372563Y-15199698D01*
X5372563Y-15199698D02*
X5372563Y-15228269D01*
X5372563Y-15228269D02*
X5363039Y-15266365D01*
X5363039Y-15266365D02*
X5353515Y-15285412D01*
X5353515Y-15285412D02*
X5334467Y-15304460D01*
X5334467Y-15304460D02*
X5305896Y-15313984D01*
X5305896Y-15313984D02*
X5258277Y-15313984D01*
X5458277Y-15313984D02*
X5458277Y-15180650D01*
X5458277Y-15218746D02*
X5467801Y-15199698D01*
X5467801Y-15199698D02*
X5477324Y-15190174D01*
X5477324Y-15190174D02*
X5496372Y-15180650D01*
X5496372Y-15180650D02*
X5515420Y-15180650D01*
X5582086Y-15313984D02*
X5582086Y-15180650D01*
X5582086Y-15113984D02*
X5572563Y-15123508D01*
X5572563Y-15123508D02*
X5582086Y-15133031D01*
X5582086Y-15133031D02*
X5591610Y-15123508D01*
X5591610Y-15123508D02*
X5582086Y-15113984D01*
X5582086Y-15113984D02*
X5582086Y-15133031D01*
X5705896Y-15313984D02*
X5686848Y-15304460D01*
X5686848Y-15304460D02*
X5677324Y-15285412D01*
X5677324Y-15285412D02*
X5677324Y-15113984D01*
X5810658Y-15313984D02*
X5791610Y-15304460D01*
X5791610Y-15304460D02*
X5782086Y-15285412D01*
X5782086Y-15285412D02*
X5782086Y-15113984D01*
X6039229Y-15313984D02*
X6039229Y-15113984D01*
X6039229Y-15113984D02*
X6105896Y-15256841D01*
X6105896Y-15256841D02*
X6172562Y-15113984D01*
X6172562Y-15113984D02*
X6172562Y-15313984D01*
X6353515Y-15313984D02*
X6353515Y-15209222D01*
X6353515Y-15209222D02*
X6343991Y-15190174D01*
X6343991Y-15190174D02*
X6324943Y-15180650D01*
X6324943Y-15180650D02*
X6286848Y-15180650D01*
X6286848Y-15180650D02*
X6267801Y-15190174D01*
X6353515Y-15304460D02*
X6334467Y-15313984D01*
X6334467Y-15313984D02*
X6286848Y-15313984D01*
X6286848Y-15313984D02*
X6267801Y-15304460D01*
X6267801Y-15304460D02*
X6258277Y-15285412D01*
X6258277Y-15285412D02*
X6258277Y-15266365D01*
X6258277Y-15266365D02*
X6267801Y-15247317D01*
X6267801Y-15247317D02*
X6286848Y-15237793D01*
X6286848Y-15237793D02*
X6334467Y-15237793D01*
X6334467Y-15237793D02*
X6353515Y-15228269D01*
X6448753Y-15180650D02*
X6448753Y-15380650D01*
X6448753Y-15190174D02*
X6467801Y-15180650D01*
X6467801Y-15180650D02*
X6505896Y-15180650D01*
X6505896Y-15180650D02*
X6524943Y-15190174D01*
X6524943Y-15190174D02*
X6534467Y-15199698D01*
X6534467Y-15199698D02*
X6543991Y-15218746D01*
X6543991Y-15218746D02*
X6543991Y-15275888D01*
X6543991Y-15275888D02*
X6534467Y-15294936D01*
X6534467Y-15294936D02*
X6524943Y-15304460D01*
X6524943Y-15304460D02*
X6505896Y-15313984D01*
X6505896Y-15313984D02*
X6467801Y-15313984D01*
X6467801Y-15313984D02*
X6448753Y-15304460D01*
X6629705Y-15294936D02*
X6639229Y-15304460D01*
X6639229Y-15304460D02*
X6629705Y-15313984D01*
X6629705Y-15313984D02*
X6620182Y-15304460D01*
X6620182Y-15304460D02*
X6629705Y-15294936D01*
X6629705Y-15294936D02*
X6629705Y-15313984D01*
X6629705Y-15190174D02*
X6639229Y-15199698D01*
X6639229Y-15199698D02*
X6629705Y-15209222D01*
X6629705Y-15209222D02*
X6620182Y-15199698D01*
X6620182Y-15199698D02*
X6629705Y-15190174D01*
X6629705Y-15190174D02*
X6629705Y-15209222D01*
D12*
X4967500Y-15627500D02*
X4997500Y-15657500D01*
X4997500Y-15627500D02*
X4967500Y-15657500D01*
D11*
X5296372Y-15533984D02*
X5315420Y-15533984D01*
X5315420Y-15533984D02*
X5334467Y-15543508D01*
X5334467Y-15543508D02*
X5343991Y-15553031D01*
X5343991Y-15553031D02*
X5353515Y-15572079D01*
X5353515Y-15572079D02*
X5363039Y-15610174D01*
X5363039Y-15610174D02*
X5363039Y-15657793D01*
X5363039Y-15657793D02*
X5353515Y-15695888D01*
X5353515Y-15695888D02*
X5343991Y-15714936D01*
X5343991Y-15714936D02*
X5334467Y-15724460D01*
X5334467Y-15724460D02*
X5315420Y-15733984D01*
X5315420Y-15733984D02*
X5296372Y-15733984D01*
X5296372Y-15733984D02*
X5277324Y-15724460D01*
X5277324Y-15724460D02*
X5267801Y-15714936D01*
X5267801Y-15714936D02*
X5258277Y-15695888D01*
X5258277Y-15695888D02*
X5248753Y-15657793D01*
X5248753Y-15657793D02*
X5248753Y-15610174D01*
X5248753Y-15610174D02*
X5258277Y-15572079D01*
X5258277Y-15572079D02*
X5267801Y-15553031D01*
X5267801Y-15553031D02*
X5277324Y-15543508D01*
X5277324Y-15543508D02*
X5296372Y-15533984D01*
X5448753Y-15714936D02*
X5458277Y-15724460D01*
X5458277Y-15724460D02*
X5448753Y-15733984D01*
X5448753Y-15733984D02*
X5439229Y-15724460D01*
X5439229Y-15724460D02*
X5448753Y-15714936D01*
X5448753Y-15714936D02*
X5448753Y-15733984D01*
X5524944Y-15533984D02*
X5648753Y-15533984D01*
X5648753Y-15533984D02*
X5582086Y-15610174D01*
X5582086Y-15610174D02*
X5610658Y-15610174D01*
X5610658Y-15610174D02*
X5629705Y-15619698D01*
X5629705Y-15619698D02*
X5639229Y-15629222D01*
X5639229Y-15629222D02*
X5648753Y-15648269D01*
X5648753Y-15648269D02*
X5648753Y-15695888D01*
X5648753Y-15695888D02*
X5639229Y-15714936D01*
X5639229Y-15714936D02*
X5629705Y-15724460D01*
X5629705Y-15724460D02*
X5610658Y-15733984D01*
X5610658Y-15733984D02*
X5553515Y-15733984D01*
X5553515Y-15733984D02*
X5534467Y-15724460D01*
X5534467Y-15724460D02*
X5524944Y-15714936D01*
X5772562Y-15533984D02*
X5791610Y-15533984D01*
X5791610Y-15533984D02*
X5810658Y-15543508D01*
X5810658Y-15543508D02*
X5820182Y-15553031D01*
X5820182Y-15553031D02*
X5829705Y-15572079D01*
X5829705Y-15572079D02*
X5839229Y-15610174D01*
X5839229Y-15610174D02*
X5839229Y-15657793D01*
X5839229Y-15657793D02*
X5829705Y-15695888D01*
X5829705Y-15695888D02*
X5820182Y-15714936D01*
X5820182Y-15714936D02*
X5810658Y-15724460D01*
X5810658Y-15724460D02*
X5791610Y-15733984D01*
X5791610Y-15733984D02*
X5772562Y-15733984D01*
X5772562Y-15733984D02*
X5753515Y-15724460D01*
X5753515Y-15724460D02*
X5743991Y-15714936D01*
X5743991Y-15714936D02*
X5734467Y-15695888D01*
X5734467Y-15695888D02*
X5724943Y-15657793D01*
X5724943Y-15657793D02*
X5724943Y-15610174D01*
X5724943Y-15610174D02*
X5734467Y-15572079D01*
X5734467Y-15572079D02*
X5743991Y-15553031D01*
X5743991Y-15553031D02*
X5753515Y-15543508D01*
X5753515Y-15543508D02*
X5772562Y-15533984D01*
X5963039Y-15533984D02*
X5982086Y-15533984D01*
X5982086Y-15533984D02*
X6001134Y-15543508D01*
X6001134Y-15543508D02*
X6010658Y-15553031D01*
X6010658Y-15553031D02*
X6020182Y-15572079D01*
X6020182Y-15572079D02*
X6029705Y-15610174D01*
X6029705Y-15610174D02*
X6029705Y-15657793D01*
X6029705Y-15657793D02*
X6020182Y-15695888D01*
X6020182Y-15695888D02*
X6010658Y-15714936D01*
X6010658Y-15714936D02*
X6001134Y-15724460D01*
X6001134Y-15724460D02*
X5982086Y-15733984D01*
X5982086Y-15733984D02*
X5963039Y-15733984D01*
X5963039Y-15733984D02*
X5943991Y-15724460D01*
X5943991Y-15724460D02*
X5934467Y-15714936D01*
X5934467Y-15714936D02*
X5924943Y-15695888D01*
X5924943Y-15695888D02*
X5915420Y-15657793D01*
X5915420Y-15657793D02*
X5915420Y-15610174D01*
X5915420Y-15610174D02*
X5924943Y-15572079D01*
X5924943Y-15572079D02*
X5934467Y-15553031D01*
X5934467Y-15553031D02*
X5943991Y-15543508D01*
X5943991Y-15543508D02*
X5963039Y-15533984D01*
X6115420Y-15733984D02*
X6115420Y-15600650D01*
X6115420Y-15619698D02*
X6124943Y-15610174D01*
X6124943Y-15610174D02*
X6143991Y-15600650D01*
X6143991Y-15600650D02*
X6172563Y-15600650D01*
X6172563Y-15600650D02*
X6191610Y-15610174D01*
X6191610Y-15610174D02*
X6201134Y-15629222D01*
X6201134Y-15629222D02*
X6201134Y-15733984D01*
X6201134Y-15629222D02*
X6210658Y-15610174D01*
X6210658Y-15610174D02*
X6229705Y-15600650D01*
X6229705Y-15600650D02*
X6258277Y-15600650D01*
X6258277Y-15600650D02*
X6277324Y-15610174D01*
X6277324Y-15610174D02*
X6286848Y-15629222D01*
X6286848Y-15629222D02*
X6286848Y-15733984D01*
X6382086Y-15733984D02*
X6382086Y-15600650D01*
X6382086Y-15619698D02*
X6391610Y-15610174D01*
X6391610Y-15610174D02*
X6410658Y-15600650D01*
X6410658Y-15600650D02*
X6439229Y-15600650D01*
X6439229Y-15600650D02*
X6458277Y-15610174D01*
X6458277Y-15610174D02*
X6467801Y-15629222D01*
X6467801Y-15629222D02*
X6467801Y-15733984D01*
X6467801Y-15629222D02*
X6477324Y-15610174D01*
X6477324Y-15610174D02*
X6496372Y-15600650D01*
X6496372Y-15600650D02*
X6524943Y-15600650D01*
X6524943Y-15600650D02*
X6543991Y-15610174D01*
X6543991Y-15610174D02*
X6553515Y-15629222D01*
X6553515Y-15629222D02*
X6553515Y-15733984D01*
X6943991Y-15524460D02*
X6772563Y-15781603D01*
X7201134Y-15533984D02*
X7220182Y-15533984D01*
X7220182Y-15533984D02*
X7239229Y-15543508D01*
X7239229Y-15543508D02*
X7248753Y-15553031D01*
X7248753Y-15553031D02*
X7258277Y-15572079D01*
X7258277Y-15572079D02*
X7267801Y-15610174D01*
X7267801Y-15610174D02*
X7267801Y-15657793D01*
X7267801Y-15657793D02*
X7258277Y-15695888D01*
X7258277Y-15695888D02*
X7248753Y-15714936D01*
X7248753Y-15714936D02*
X7239229Y-15724460D01*
X7239229Y-15724460D02*
X7220182Y-15733984D01*
X7220182Y-15733984D02*
X7201134Y-15733984D01*
X7201134Y-15733984D02*
X7182086Y-15724460D01*
X7182086Y-15724460D02*
X7172563Y-15714936D01*
X7172563Y-15714936D02*
X7163039Y-15695888D01*
X7163039Y-15695888D02*
X7153515Y-15657793D01*
X7153515Y-15657793D02*
X7153515Y-15610174D01*
X7153515Y-15610174D02*
X7163039Y-15572079D01*
X7163039Y-15572079D02*
X7172563Y-15553031D01*
X7172563Y-15553031D02*
X7182086Y-15543508D01*
X7182086Y-15543508D02*
X7201134Y-15533984D01*
X7353515Y-15714936D02*
X7363039Y-15724460D01*
X7363039Y-15724460D02*
X7353515Y-15733984D01*
X7353515Y-15733984D02*
X7343991Y-15724460D01*
X7343991Y-15724460D02*
X7353515Y-15714936D01*
X7353515Y-15714936D02*
X7353515Y-15733984D01*
X7486848Y-15533984D02*
X7505896Y-15533984D01*
X7505896Y-15533984D02*
X7524944Y-15543508D01*
X7524944Y-15543508D02*
X7534467Y-15553031D01*
X7534467Y-15553031D02*
X7543991Y-15572079D01*
X7543991Y-15572079D02*
X7553515Y-15610174D01*
X7553515Y-15610174D02*
X7553515Y-15657793D01*
X7553515Y-15657793D02*
X7543991Y-15695888D01*
X7543991Y-15695888D02*
X7534467Y-15714936D01*
X7534467Y-15714936D02*
X7524944Y-15724460D01*
X7524944Y-15724460D02*
X7505896Y-15733984D01*
X7505896Y-15733984D02*
X7486848Y-15733984D01*
X7486848Y-15733984D02*
X7467801Y-15724460D01*
X7467801Y-15724460D02*
X7458277Y-15714936D01*
X7458277Y-15714936D02*
X7448753Y-15695888D01*
X7448753Y-15695888D02*
X7439229Y-15657793D01*
X7439229Y-15657793D02*
X7439229Y-15610174D01*
X7439229Y-15610174D02*
X7448753Y-15572079D01*
X7448753Y-15572079D02*
X7458277Y-15553031D01*
X7458277Y-15553031D02*
X7467801Y-15543508D01*
X7467801Y-15543508D02*
X7486848Y-15533984D01*
X7743991Y-15733984D02*
X7629706Y-15733984D01*
X7686848Y-15733984D02*
X7686848Y-15533984D01*
X7686848Y-15533984D02*
X7667801Y-15562555D01*
X7667801Y-15562555D02*
X7648753Y-15581603D01*
X7648753Y-15581603D02*
X7629706Y-15591127D01*
X7934467Y-15733984D02*
X7820182Y-15733984D01*
X7877325Y-15733984D02*
X7877325Y-15533984D01*
X7877325Y-15533984D02*
X7858277Y-15562555D01*
X7858277Y-15562555D02*
X7839229Y-15581603D01*
X7839229Y-15581603D02*
X7820182Y-15591127D01*
X8048753Y-15619698D02*
X8029706Y-15610174D01*
X8029706Y-15610174D02*
X8020182Y-15600650D01*
X8020182Y-15600650D02*
X8010658Y-15581603D01*
X8010658Y-15581603D02*
X8010658Y-15572079D01*
X8010658Y-15572079D02*
X8020182Y-15553031D01*
X8020182Y-15553031D02*
X8029706Y-15543508D01*
X8029706Y-15543508D02*
X8048753Y-15533984D01*
X8048753Y-15533984D02*
X8086848Y-15533984D01*
X8086848Y-15533984D02*
X8105896Y-15543508D01*
X8105896Y-15543508D02*
X8115420Y-15553031D01*
X8115420Y-15553031D02*
X8124944Y-15572079D01*
X8124944Y-15572079D02*
X8124944Y-15581603D01*
X8124944Y-15581603D02*
X8115420Y-15600650D01*
X8115420Y-15600650D02*
X8105896Y-15610174D01*
X8105896Y-15610174D02*
X8086848Y-15619698D01*
X8086848Y-15619698D02*
X8048753Y-15619698D01*
X8048753Y-15619698D02*
X8029706Y-15629222D01*
X8029706Y-15629222D02*
X8020182Y-15638746D01*
X8020182Y-15638746D02*
X8010658Y-15657793D01*
X8010658Y-15657793D02*
X8010658Y-15695888D01*
X8010658Y-15695888D02*
X8020182Y-15714936D01*
X8020182Y-15714936D02*
X8029706Y-15724460D01*
X8029706Y-15724460D02*
X8048753Y-15733984D01*
X8048753Y-15733984D02*
X8086848Y-15733984D01*
X8086848Y-15733984D02*
X8105896Y-15724460D01*
X8105896Y-15724460D02*
X8115420Y-15714936D01*
X8115420Y-15714936D02*
X8124944Y-15695888D01*
X8124944Y-15695888D02*
X8124944Y-15657793D01*
X8124944Y-15657793D02*
X8115420Y-15638746D01*
X8115420Y-15638746D02*
X8105896Y-15629222D01*
X8105896Y-15629222D02*
X8086848Y-15619698D01*
X8201134Y-15533984D02*
X8201134Y-15572079D01*
X8277325Y-15533984D02*
X8277325Y-15572079D01*
X8572563Y-15810174D02*
X8563039Y-15800650D01*
X8563039Y-15800650D02*
X8543991Y-15772079D01*
X8543991Y-15772079D02*
X8534468Y-15753031D01*
X8534468Y-15753031D02*
X8524944Y-15724460D01*
X8524944Y-15724460D02*
X8515420Y-15676841D01*
X8515420Y-15676841D02*
X8515420Y-15638746D01*
X8515420Y-15638746D02*
X8524944Y-15591127D01*
X8524944Y-15591127D02*
X8534468Y-15562555D01*
X8534468Y-15562555D02*
X8543991Y-15543508D01*
X8543991Y-15543508D02*
X8563039Y-15514936D01*
X8563039Y-15514936D02*
X8572563Y-15505412D01*
X8629706Y-15533984D02*
X8753515Y-15533984D01*
X8753515Y-15533984D02*
X8686849Y-15610174D01*
X8686849Y-15610174D02*
X8715420Y-15610174D01*
X8715420Y-15610174D02*
X8734468Y-15619698D01*
X8734468Y-15619698D02*
X8743991Y-15629222D01*
X8743991Y-15629222D02*
X8753515Y-15648269D01*
X8753515Y-15648269D02*
X8753515Y-15695888D01*
X8753515Y-15695888D02*
X8743991Y-15714936D01*
X8743991Y-15714936D02*
X8734468Y-15724460D01*
X8734468Y-15724460D02*
X8715420Y-15733984D01*
X8715420Y-15733984D02*
X8658277Y-15733984D01*
X8658277Y-15733984D02*
X8639230Y-15724460D01*
X8639230Y-15724460D02*
X8629706Y-15714936D01*
X8820182Y-15533984D02*
X8953515Y-15533984D01*
X8953515Y-15533984D02*
X8867801Y-15733984D01*
X9182087Y-15733984D02*
X9182087Y-15533984D01*
X9267801Y-15733984D02*
X9267801Y-15629222D01*
X9267801Y-15629222D02*
X9258277Y-15610174D01*
X9258277Y-15610174D02*
X9239230Y-15600650D01*
X9239230Y-15600650D02*
X9210658Y-15600650D01*
X9210658Y-15600650D02*
X9191611Y-15610174D01*
X9191611Y-15610174D02*
X9182087Y-15619698D01*
X9391611Y-15733984D02*
X9372563Y-15724460D01*
X9372563Y-15724460D02*
X9363039Y-15714936D01*
X9363039Y-15714936D02*
X9353515Y-15695888D01*
X9353515Y-15695888D02*
X9353515Y-15638746D01*
X9353515Y-15638746D02*
X9363039Y-15619698D01*
X9363039Y-15619698D02*
X9372563Y-15610174D01*
X9372563Y-15610174D02*
X9391611Y-15600650D01*
X9391611Y-15600650D02*
X9420182Y-15600650D01*
X9420182Y-15600650D02*
X9439230Y-15610174D01*
X9439230Y-15610174D02*
X9448753Y-15619698D01*
X9448753Y-15619698D02*
X9458277Y-15638746D01*
X9458277Y-15638746D02*
X9458277Y-15695888D01*
X9458277Y-15695888D02*
X9448753Y-15714936D01*
X9448753Y-15714936D02*
X9439230Y-15724460D01*
X9439230Y-15724460D02*
X9420182Y-15733984D01*
X9420182Y-15733984D02*
X9391611Y-15733984D01*
X9572563Y-15733984D02*
X9553515Y-15724460D01*
X9553515Y-15724460D02*
X9543992Y-15705412D01*
X9543992Y-15705412D02*
X9543992Y-15533984D01*
X9724944Y-15724460D02*
X9705896Y-15733984D01*
X9705896Y-15733984D02*
X9667801Y-15733984D01*
X9667801Y-15733984D02*
X9648753Y-15724460D01*
X9648753Y-15724460D02*
X9639230Y-15705412D01*
X9639230Y-15705412D02*
X9639230Y-15629222D01*
X9639230Y-15629222D02*
X9648753Y-15610174D01*
X9648753Y-15610174D02*
X9667801Y-15600650D01*
X9667801Y-15600650D02*
X9705896Y-15600650D01*
X9705896Y-15600650D02*
X9724944Y-15610174D01*
X9724944Y-15610174D02*
X9734468Y-15629222D01*
X9734468Y-15629222D02*
X9734468Y-15648269D01*
X9734468Y-15648269D02*
X9639230Y-15667317D01*
X9810658Y-15724460D02*
X9829706Y-15733984D01*
X9829706Y-15733984D02*
X9867801Y-15733984D01*
X9867801Y-15733984D02*
X9886849Y-15724460D01*
X9886849Y-15724460D02*
X9896373Y-15705412D01*
X9896373Y-15705412D02*
X9896373Y-15695888D01*
X9896373Y-15695888D02*
X9886849Y-15676841D01*
X9886849Y-15676841D02*
X9867801Y-15667317D01*
X9867801Y-15667317D02*
X9839230Y-15667317D01*
X9839230Y-15667317D02*
X9820182Y-15657793D01*
X9820182Y-15657793D02*
X9810658Y-15638746D01*
X9810658Y-15638746D02*
X9810658Y-15629222D01*
X9810658Y-15629222D02*
X9820182Y-15610174D01*
X9820182Y-15610174D02*
X9839230Y-15600650D01*
X9839230Y-15600650D02*
X9867801Y-15600650D01*
X9867801Y-15600650D02*
X9886849Y-15610174D01*
X9963039Y-15810174D02*
X9972563Y-15800650D01*
X9972563Y-15800650D02*
X9991611Y-15772079D01*
X9991611Y-15772079D02*
X10001134Y-15753031D01*
X10001134Y-15753031D02*
X10010658Y-15724460D01*
X10010658Y-15724460D02*
X10020182Y-15676841D01*
X10020182Y-15676841D02*
X10020182Y-15638746D01*
X10020182Y-15638746D02*
X10010658Y-15591127D01*
X10010658Y-15591127D02*
X10001134Y-15562555D01*
X10001134Y-15562555D02*
X9991611Y-15543508D01*
X9991611Y-15543508D02*
X9972563Y-15514936D01*
X9972563Y-15514936D02*
X9963039Y-15505412D01*
D12*
X4997500Y-15906500D02*
G75*
G02*
X4927500Y-15906500I-35000J0D01*
G01*
X4927500Y-15906500D02*
G75*
G02*
X4997500Y-15906500I35000J0D01*
G01*
D11*
X5296372Y-15797984D02*
X5315420Y-15797984D01*
X5315420Y-15797984D02*
X5334467Y-15807508D01*
X5334467Y-15807508D02*
X5343991Y-15817031D01*
X5343991Y-15817031D02*
X5353515Y-15836079D01*
X5353515Y-15836079D02*
X5363039Y-15874174D01*
X5363039Y-15874174D02*
X5363039Y-15921793D01*
X5363039Y-15921793D02*
X5353515Y-15959888D01*
X5353515Y-15959888D02*
X5343991Y-15978936D01*
X5343991Y-15978936D02*
X5334467Y-15988460D01*
X5334467Y-15988460D02*
X5315420Y-15997984D01*
X5315420Y-15997984D02*
X5296372Y-15997984D01*
X5296372Y-15997984D02*
X5277324Y-15988460D01*
X5277324Y-15988460D02*
X5267801Y-15978936D01*
X5267801Y-15978936D02*
X5258277Y-15959888D01*
X5258277Y-15959888D02*
X5248753Y-15921793D01*
X5248753Y-15921793D02*
X5248753Y-15874174D01*
X5248753Y-15874174D02*
X5258277Y-15836079D01*
X5258277Y-15836079D02*
X5267801Y-15817031D01*
X5267801Y-15817031D02*
X5277324Y-15807508D01*
X5277324Y-15807508D02*
X5296372Y-15797984D01*
X5448753Y-15978936D02*
X5458277Y-15988460D01*
X5458277Y-15988460D02*
X5448753Y-15997984D01*
X5448753Y-15997984D02*
X5439229Y-15988460D01*
X5439229Y-15988460D02*
X5448753Y-15978936D01*
X5448753Y-15978936D02*
X5448753Y-15997984D01*
X5524944Y-15797984D02*
X5658277Y-15797984D01*
X5658277Y-15797984D02*
X5572563Y-15997984D01*
X5772562Y-15797984D02*
X5791610Y-15797984D01*
X5791610Y-15797984D02*
X5810658Y-15807508D01*
X5810658Y-15807508D02*
X5820182Y-15817031D01*
X5820182Y-15817031D02*
X5829705Y-15836079D01*
X5829705Y-15836079D02*
X5839229Y-15874174D01*
X5839229Y-15874174D02*
X5839229Y-15921793D01*
X5839229Y-15921793D02*
X5829705Y-15959888D01*
X5829705Y-15959888D02*
X5820182Y-15978936D01*
X5820182Y-15978936D02*
X5810658Y-15988460D01*
X5810658Y-15988460D02*
X5791610Y-15997984D01*
X5791610Y-15997984D02*
X5772562Y-15997984D01*
X5772562Y-15997984D02*
X5753515Y-15988460D01*
X5753515Y-15988460D02*
X5743991Y-15978936D01*
X5743991Y-15978936D02*
X5734467Y-15959888D01*
X5734467Y-15959888D02*
X5724943Y-15921793D01*
X5724943Y-15921793D02*
X5724943Y-15874174D01*
X5724943Y-15874174D02*
X5734467Y-15836079D01*
X5734467Y-15836079D02*
X5743991Y-15817031D01*
X5743991Y-15817031D02*
X5753515Y-15807508D01*
X5753515Y-15807508D02*
X5772562Y-15797984D01*
X5963039Y-15797984D02*
X5982086Y-15797984D01*
X5982086Y-15797984D02*
X6001134Y-15807508D01*
X6001134Y-15807508D02*
X6010658Y-15817031D01*
X6010658Y-15817031D02*
X6020182Y-15836079D01*
X6020182Y-15836079D02*
X6029705Y-15874174D01*
X6029705Y-15874174D02*
X6029705Y-15921793D01*
X6029705Y-15921793D02*
X6020182Y-15959888D01*
X6020182Y-15959888D02*
X6010658Y-15978936D01*
X6010658Y-15978936D02*
X6001134Y-15988460D01*
X6001134Y-15988460D02*
X5982086Y-15997984D01*
X5982086Y-15997984D02*
X5963039Y-15997984D01*
X5963039Y-15997984D02*
X5943991Y-15988460D01*
X5943991Y-15988460D02*
X5934467Y-15978936D01*
X5934467Y-15978936D02*
X5924943Y-15959888D01*
X5924943Y-15959888D02*
X5915420Y-15921793D01*
X5915420Y-15921793D02*
X5915420Y-15874174D01*
X5915420Y-15874174D02*
X5924943Y-15836079D01*
X5924943Y-15836079D02*
X5934467Y-15817031D01*
X5934467Y-15817031D02*
X5943991Y-15807508D01*
X5943991Y-15807508D02*
X5963039Y-15797984D01*
X6115420Y-15997984D02*
X6115420Y-15864650D01*
X6115420Y-15883698D02*
X6124943Y-15874174D01*
X6124943Y-15874174D02*
X6143991Y-15864650D01*
X6143991Y-15864650D02*
X6172563Y-15864650D01*
X6172563Y-15864650D02*
X6191610Y-15874174D01*
X6191610Y-15874174D02*
X6201134Y-15893222D01*
X6201134Y-15893222D02*
X6201134Y-15997984D01*
X6201134Y-15893222D02*
X6210658Y-15874174D01*
X6210658Y-15874174D02*
X6229705Y-15864650D01*
X6229705Y-15864650D02*
X6258277Y-15864650D01*
X6258277Y-15864650D02*
X6277324Y-15874174D01*
X6277324Y-15874174D02*
X6286848Y-15893222D01*
X6286848Y-15893222D02*
X6286848Y-15997984D01*
X6382086Y-15997984D02*
X6382086Y-15864650D01*
X6382086Y-15883698D02*
X6391610Y-15874174D01*
X6391610Y-15874174D02*
X6410658Y-15864650D01*
X6410658Y-15864650D02*
X6439229Y-15864650D01*
X6439229Y-15864650D02*
X6458277Y-15874174D01*
X6458277Y-15874174D02*
X6467801Y-15893222D01*
X6467801Y-15893222D02*
X6467801Y-15997984D01*
X6467801Y-15893222D02*
X6477324Y-15874174D01*
X6477324Y-15874174D02*
X6496372Y-15864650D01*
X6496372Y-15864650D02*
X6524943Y-15864650D01*
X6524943Y-15864650D02*
X6543991Y-15874174D01*
X6543991Y-15874174D02*
X6553515Y-15893222D01*
X6553515Y-15893222D02*
X6553515Y-15997984D01*
X6943991Y-15788460D02*
X6772563Y-16045603D01*
X7201134Y-15797984D02*
X7220182Y-15797984D01*
X7220182Y-15797984D02*
X7239229Y-15807508D01*
X7239229Y-15807508D02*
X7248753Y-15817031D01*
X7248753Y-15817031D02*
X7258277Y-15836079D01*
X7258277Y-15836079D02*
X7267801Y-15874174D01*
X7267801Y-15874174D02*
X7267801Y-15921793D01*
X7267801Y-15921793D02*
X7258277Y-15959888D01*
X7258277Y-15959888D02*
X7248753Y-15978936D01*
X7248753Y-15978936D02*
X7239229Y-15988460D01*
X7239229Y-15988460D02*
X7220182Y-15997984D01*
X7220182Y-15997984D02*
X7201134Y-15997984D01*
X7201134Y-15997984D02*
X7182086Y-15988460D01*
X7182086Y-15988460D02*
X7172563Y-15978936D01*
X7172563Y-15978936D02*
X7163039Y-15959888D01*
X7163039Y-15959888D02*
X7153515Y-15921793D01*
X7153515Y-15921793D02*
X7153515Y-15874174D01*
X7153515Y-15874174D02*
X7163039Y-15836079D01*
X7163039Y-15836079D02*
X7172563Y-15817031D01*
X7172563Y-15817031D02*
X7182086Y-15807508D01*
X7182086Y-15807508D02*
X7201134Y-15797984D01*
X7353515Y-15978936D02*
X7363039Y-15988460D01*
X7363039Y-15988460D02*
X7353515Y-15997984D01*
X7353515Y-15997984D02*
X7343991Y-15988460D01*
X7343991Y-15988460D02*
X7353515Y-15978936D01*
X7353515Y-15978936D02*
X7353515Y-15997984D01*
X7486848Y-15797984D02*
X7505896Y-15797984D01*
X7505896Y-15797984D02*
X7524944Y-15807508D01*
X7524944Y-15807508D02*
X7534467Y-15817031D01*
X7534467Y-15817031D02*
X7543991Y-15836079D01*
X7543991Y-15836079D02*
X7553515Y-15874174D01*
X7553515Y-15874174D02*
X7553515Y-15921793D01*
X7553515Y-15921793D02*
X7543991Y-15959888D01*
X7543991Y-15959888D02*
X7534467Y-15978936D01*
X7534467Y-15978936D02*
X7524944Y-15988460D01*
X7524944Y-15988460D02*
X7505896Y-15997984D01*
X7505896Y-15997984D02*
X7486848Y-15997984D01*
X7486848Y-15997984D02*
X7467801Y-15988460D01*
X7467801Y-15988460D02*
X7458277Y-15978936D01*
X7458277Y-15978936D02*
X7448753Y-15959888D01*
X7448753Y-15959888D02*
X7439229Y-15921793D01*
X7439229Y-15921793D02*
X7439229Y-15874174D01*
X7439229Y-15874174D02*
X7448753Y-15836079D01*
X7448753Y-15836079D02*
X7458277Y-15817031D01*
X7458277Y-15817031D02*
X7467801Y-15807508D01*
X7467801Y-15807508D02*
X7486848Y-15797984D01*
X7629706Y-15817031D02*
X7639229Y-15807508D01*
X7639229Y-15807508D02*
X7658277Y-15797984D01*
X7658277Y-15797984D02*
X7705896Y-15797984D01*
X7705896Y-15797984D02*
X7724944Y-15807508D01*
X7724944Y-15807508D02*
X7734467Y-15817031D01*
X7734467Y-15817031D02*
X7743991Y-15836079D01*
X7743991Y-15836079D02*
X7743991Y-15855127D01*
X7743991Y-15855127D02*
X7734467Y-15883698D01*
X7734467Y-15883698D02*
X7620182Y-15997984D01*
X7620182Y-15997984D02*
X7743991Y-15997984D01*
X7810658Y-15797984D02*
X7943991Y-15797984D01*
X7943991Y-15797984D02*
X7858277Y-15997984D01*
X8105896Y-15797984D02*
X8067801Y-15797984D01*
X8067801Y-15797984D02*
X8048753Y-15807508D01*
X8048753Y-15807508D02*
X8039229Y-15817031D01*
X8039229Y-15817031D02*
X8020182Y-15845603D01*
X8020182Y-15845603D02*
X8010658Y-15883698D01*
X8010658Y-15883698D02*
X8010658Y-15959888D01*
X8010658Y-15959888D02*
X8020182Y-15978936D01*
X8020182Y-15978936D02*
X8029706Y-15988460D01*
X8029706Y-15988460D02*
X8048753Y-15997984D01*
X8048753Y-15997984D02*
X8086848Y-15997984D01*
X8086848Y-15997984D02*
X8105896Y-15988460D01*
X8105896Y-15988460D02*
X8115420Y-15978936D01*
X8115420Y-15978936D02*
X8124944Y-15959888D01*
X8124944Y-15959888D02*
X8124944Y-15912269D01*
X8124944Y-15912269D02*
X8115420Y-15893222D01*
X8115420Y-15893222D02*
X8105896Y-15883698D01*
X8105896Y-15883698D02*
X8086848Y-15874174D01*
X8086848Y-15874174D02*
X8048753Y-15874174D01*
X8048753Y-15874174D02*
X8029706Y-15883698D01*
X8029706Y-15883698D02*
X8020182Y-15893222D01*
X8020182Y-15893222D02*
X8010658Y-15912269D01*
X8201134Y-15797984D02*
X8201134Y-15836079D01*
X8277325Y-15797984D02*
X8277325Y-15836079D01*
X8572563Y-16074174D02*
X8563039Y-16064650D01*
X8563039Y-16064650D02*
X8543991Y-16036079D01*
X8543991Y-16036079D02*
X8534468Y-16017031D01*
X8534468Y-16017031D02*
X8524944Y-15988460D01*
X8524944Y-15988460D02*
X8515420Y-15940841D01*
X8515420Y-15940841D02*
X8515420Y-15902746D01*
X8515420Y-15902746D02*
X8524944Y-15855127D01*
X8524944Y-15855127D02*
X8534468Y-15826555D01*
X8534468Y-15826555D02*
X8543991Y-15807508D01*
X8543991Y-15807508D02*
X8563039Y-15778936D01*
X8563039Y-15778936D02*
X8572563Y-15769412D01*
X8686849Y-15797984D02*
X8705896Y-15797984D01*
X8705896Y-15797984D02*
X8724944Y-15807508D01*
X8724944Y-15807508D02*
X8734468Y-15817031D01*
X8734468Y-15817031D02*
X8743991Y-15836079D01*
X8743991Y-15836079D02*
X8753515Y-15874174D01*
X8753515Y-15874174D02*
X8753515Y-15921793D01*
X8753515Y-15921793D02*
X8743991Y-15959888D01*
X8743991Y-15959888D02*
X8734468Y-15978936D01*
X8734468Y-15978936D02*
X8724944Y-15988460D01*
X8724944Y-15988460D02*
X8705896Y-15997984D01*
X8705896Y-15997984D02*
X8686849Y-15997984D01*
X8686849Y-15997984D02*
X8667801Y-15988460D01*
X8667801Y-15988460D02*
X8658277Y-15978936D01*
X8658277Y-15978936D02*
X8648753Y-15959888D01*
X8648753Y-15959888D02*
X8639230Y-15921793D01*
X8639230Y-15921793D02*
X8639230Y-15874174D01*
X8639230Y-15874174D02*
X8648753Y-15836079D01*
X8648753Y-15836079D02*
X8658277Y-15817031D01*
X8658277Y-15817031D02*
X8667801Y-15807508D01*
X8667801Y-15807508D02*
X8686849Y-15797984D01*
X8991611Y-15997984D02*
X8991611Y-15797984D01*
X9077325Y-15997984D02*
X9077325Y-15893222D01*
X9077325Y-15893222D02*
X9067801Y-15874174D01*
X9067801Y-15874174D02*
X9048753Y-15864650D01*
X9048753Y-15864650D02*
X9020182Y-15864650D01*
X9020182Y-15864650D02*
X9001134Y-15874174D01*
X9001134Y-15874174D02*
X8991611Y-15883698D01*
X9201134Y-15997984D02*
X9182087Y-15988460D01*
X9182087Y-15988460D02*
X9172563Y-15978936D01*
X9172563Y-15978936D02*
X9163039Y-15959888D01*
X9163039Y-15959888D02*
X9163039Y-15902746D01*
X9163039Y-15902746D02*
X9172563Y-15883698D01*
X9172563Y-15883698D02*
X9182087Y-15874174D01*
X9182087Y-15874174D02*
X9201134Y-15864650D01*
X9201134Y-15864650D02*
X9229706Y-15864650D01*
X9229706Y-15864650D02*
X9248753Y-15874174D01*
X9248753Y-15874174D02*
X9258277Y-15883698D01*
X9258277Y-15883698D02*
X9267801Y-15902746D01*
X9267801Y-15902746D02*
X9267801Y-15959888D01*
X9267801Y-15959888D02*
X9258277Y-15978936D01*
X9258277Y-15978936D02*
X9248753Y-15988460D01*
X9248753Y-15988460D02*
X9229706Y-15997984D01*
X9229706Y-15997984D02*
X9201134Y-15997984D01*
X9382087Y-15997984D02*
X9363039Y-15988460D01*
X9363039Y-15988460D02*
X9353515Y-15969412D01*
X9353515Y-15969412D02*
X9353515Y-15797984D01*
X9534468Y-15988460D02*
X9515420Y-15997984D01*
X9515420Y-15997984D02*
X9477325Y-15997984D01*
X9477325Y-15997984D02*
X9458277Y-15988460D01*
X9458277Y-15988460D02*
X9448753Y-15969412D01*
X9448753Y-15969412D02*
X9448753Y-15893222D01*
X9448753Y-15893222D02*
X9458277Y-15874174D01*
X9458277Y-15874174D02*
X9477325Y-15864650D01*
X9477325Y-15864650D02*
X9515420Y-15864650D01*
X9515420Y-15864650D02*
X9534468Y-15874174D01*
X9534468Y-15874174D02*
X9543992Y-15893222D01*
X9543992Y-15893222D02*
X9543992Y-15912269D01*
X9543992Y-15912269D02*
X9448753Y-15931317D01*
X9620182Y-15988460D02*
X9639230Y-15997984D01*
X9639230Y-15997984D02*
X9677325Y-15997984D01*
X9677325Y-15997984D02*
X9696373Y-15988460D01*
X9696373Y-15988460D02*
X9705896Y-15969412D01*
X9705896Y-15969412D02*
X9705896Y-15959888D01*
X9705896Y-15959888D02*
X9696373Y-15940841D01*
X9696373Y-15940841D02*
X9677325Y-15931317D01*
X9677325Y-15931317D02*
X9648753Y-15931317D01*
X9648753Y-15931317D02*
X9629706Y-15921793D01*
X9629706Y-15921793D02*
X9620182Y-15902746D01*
X9620182Y-15902746D02*
X9620182Y-15893222D01*
X9620182Y-15893222D02*
X9629706Y-15874174D01*
X9629706Y-15874174D02*
X9648753Y-15864650D01*
X9648753Y-15864650D02*
X9677325Y-15864650D01*
X9677325Y-15864650D02*
X9696373Y-15874174D01*
X9943992Y-15921793D02*
X10096373Y-15921793D01*
X10020182Y-15997984D02*
X10020182Y-15845603D01*
X10429706Y-15864650D02*
X10429706Y-15997984D01*
X10382087Y-15788460D02*
X10334468Y-15931317D01*
X10334468Y-15931317D02*
X10458277Y-15931317D01*
X10677325Y-15988460D02*
X10696373Y-15997984D01*
X10696373Y-15997984D02*
X10734468Y-15997984D01*
X10734468Y-15997984D02*
X10753516Y-15988460D01*
X10753516Y-15988460D02*
X10763039Y-15969412D01*
X10763039Y-15969412D02*
X10763039Y-15959888D01*
X10763039Y-15959888D02*
X10753516Y-15940841D01*
X10753516Y-15940841D02*
X10734468Y-15931317D01*
X10734468Y-15931317D02*
X10705896Y-15931317D01*
X10705896Y-15931317D02*
X10686849Y-15921793D01*
X10686849Y-15921793D02*
X10677325Y-15902746D01*
X10677325Y-15902746D02*
X10677325Y-15893222D01*
X10677325Y-15893222D02*
X10686849Y-15874174D01*
X10686849Y-15874174D02*
X10705896Y-15864650D01*
X10705896Y-15864650D02*
X10734468Y-15864650D01*
X10734468Y-15864650D02*
X10753516Y-15874174D01*
X10877325Y-15997984D02*
X10858277Y-15988460D01*
X10858277Y-15988460D02*
X10848754Y-15969412D01*
X10848754Y-15969412D02*
X10848754Y-15797984D01*
X10982087Y-15997984D02*
X10963039Y-15988460D01*
X10963039Y-15988460D02*
X10953516Y-15978936D01*
X10953516Y-15978936D02*
X10943992Y-15959888D01*
X10943992Y-15959888D02*
X10943992Y-15902746D01*
X10943992Y-15902746D02*
X10953516Y-15883698D01*
X10953516Y-15883698D02*
X10963039Y-15874174D01*
X10963039Y-15874174D02*
X10982087Y-15864650D01*
X10982087Y-15864650D02*
X11010658Y-15864650D01*
X11010658Y-15864650D02*
X11029706Y-15874174D01*
X11029706Y-15874174D02*
X11039230Y-15883698D01*
X11039230Y-15883698D02*
X11048754Y-15902746D01*
X11048754Y-15902746D02*
X11048754Y-15959888D01*
X11048754Y-15959888D02*
X11039230Y-15978936D01*
X11039230Y-15978936D02*
X11029706Y-15988460D01*
X11029706Y-15988460D02*
X11010658Y-15997984D01*
X11010658Y-15997984D02*
X10982087Y-15997984D01*
X11105897Y-15864650D02*
X11182087Y-15864650D01*
X11134468Y-15797984D02*
X11134468Y-15969412D01*
X11134468Y-15969412D02*
X11143992Y-15988460D01*
X11143992Y-15988460D02*
X11163039Y-15997984D01*
X11163039Y-15997984D02*
X11182087Y-15997984D01*
X11239230Y-15988460D02*
X11258277Y-15997984D01*
X11258277Y-15997984D02*
X11296373Y-15997984D01*
X11296373Y-15997984D02*
X11315420Y-15988460D01*
X11315420Y-15988460D02*
X11324944Y-15969412D01*
X11324944Y-15969412D02*
X11324944Y-15959888D01*
X11324944Y-15959888D02*
X11315420Y-15940841D01*
X11315420Y-15940841D02*
X11296373Y-15931317D01*
X11296373Y-15931317D02*
X11267801Y-15931317D01*
X11267801Y-15931317D02*
X11248754Y-15921793D01*
X11248754Y-15921793D02*
X11239230Y-15902746D01*
X11239230Y-15902746D02*
X11239230Y-15893222D01*
X11239230Y-15893222D02*
X11248754Y-15874174D01*
X11248754Y-15874174D02*
X11267801Y-15864650D01*
X11267801Y-15864650D02*
X11296373Y-15864650D01*
X11296373Y-15864650D02*
X11315420Y-15874174D01*
X11391611Y-16074174D02*
X11401135Y-16064650D01*
X11401135Y-16064650D02*
X11420182Y-16036079D01*
X11420182Y-16036079D02*
X11429706Y-16017031D01*
X11429706Y-16017031D02*
X11439230Y-15988460D01*
X11439230Y-15988460D02*
X11448754Y-15940841D01*
X11448754Y-15940841D02*
X11448754Y-15902746D01*
X11448754Y-15902746D02*
X11439230Y-15855127D01*
X11439230Y-15855127D02*
X11429706Y-15826555D01*
X11429706Y-15826555D02*
X11420182Y-15807508D01*
X11420182Y-15807508D02*
X11401135Y-15778936D01*
X11401135Y-15778936D02*
X11391611Y-15769412D01*
D12*
X4960000Y-16133000D02*
X4960000Y-16208000D01*
X4922500Y-16170500D02*
X4997500Y-16170500D01*
D11*
X5296372Y-16061984D02*
X5315420Y-16061984D01*
X5315420Y-16061984D02*
X5334467Y-16071508D01*
X5334467Y-16071508D02*
X5343991Y-16081031D01*
X5343991Y-16081031D02*
X5353515Y-16100079D01*
X5353515Y-16100079D02*
X5363039Y-16138174D01*
X5363039Y-16138174D02*
X5363039Y-16185793D01*
X5363039Y-16185793D02*
X5353515Y-16223888D01*
X5353515Y-16223888D02*
X5343991Y-16242936D01*
X5343991Y-16242936D02*
X5334467Y-16252460D01*
X5334467Y-16252460D02*
X5315420Y-16261984D01*
X5315420Y-16261984D02*
X5296372Y-16261984D01*
X5296372Y-16261984D02*
X5277324Y-16252460D01*
X5277324Y-16252460D02*
X5267801Y-16242936D01*
X5267801Y-16242936D02*
X5258277Y-16223888D01*
X5258277Y-16223888D02*
X5248753Y-16185793D01*
X5248753Y-16185793D02*
X5248753Y-16138174D01*
X5248753Y-16138174D02*
X5258277Y-16100079D01*
X5258277Y-16100079D02*
X5267801Y-16081031D01*
X5267801Y-16081031D02*
X5277324Y-16071508D01*
X5277324Y-16071508D02*
X5296372Y-16061984D01*
X5448753Y-16242936D02*
X5458277Y-16252460D01*
X5458277Y-16252460D02*
X5448753Y-16261984D01*
X5448753Y-16261984D02*
X5439229Y-16252460D01*
X5439229Y-16252460D02*
X5448753Y-16242936D01*
X5448753Y-16242936D02*
X5448753Y-16261984D01*
X5524944Y-16061984D02*
X5658277Y-16061984D01*
X5658277Y-16061984D02*
X5572563Y-16261984D01*
X5829705Y-16061984D02*
X5734467Y-16061984D01*
X5734467Y-16061984D02*
X5724943Y-16157222D01*
X5724943Y-16157222D02*
X5734467Y-16147698D01*
X5734467Y-16147698D02*
X5753515Y-16138174D01*
X5753515Y-16138174D02*
X5801134Y-16138174D01*
X5801134Y-16138174D02*
X5820182Y-16147698D01*
X5820182Y-16147698D02*
X5829705Y-16157222D01*
X5829705Y-16157222D02*
X5839229Y-16176269D01*
X5839229Y-16176269D02*
X5839229Y-16223888D01*
X5839229Y-16223888D02*
X5829705Y-16242936D01*
X5829705Y-16242936D02*
X5820182Y-16252460D01*
X5820182Y-16252460D02*
X5801134Y-16261984D01*
X5801134Y-16261984D02*
X5753515Y-16261984D01*
X5753515Y-16261984D02*
X5734467Y-16252460D01*
X5734467Y-16252460D02*
X5724943Y-16242936D01*
X5963039Y-16061984D02*
X5982086Y-16061984D01*
X5982086Y-16061984D02*
X6001134Y-16071508D01*
X6001134Y-16071508D02*
X6010658Y-16081031D01*
X6010658Y-16081031D02*
X6020182Y-16100079D01*
X6020182Y-16100079D02*
X6029705Y-16138174D01*
X6029705Y-16138174D02*
X6029705Y-16185793D01*
X6029705Y-16185793D02*
X6020182Y-16223888D01*
X6020182Y-16223888D02*
X6010658Y-16242936D01*
X6010658Y-16242936D02*
X6001134Y-16252460D01*
X6001134Y-16252460D02*
X5982086Y-16261984D01*
X5982086Y-16261984D02*
X5963039Y-16261984D01*
X5963039Y-16261984D02*
X5943991Y-16252460D01*
X5943991Y-16252460D02*
X5934467Y-16242936D01*
X5934467Y-16242936D02*
X5924943Y-16223888D01*
X5924943Y-16223888D02*
X5915420Y-16185793D01*
X5915420Y-16185793D02*
X5915420Y-16138174D01*
X5915420Y-16138174D02*
X5924943Y-16100079D01*
X5924943Y-16100079D02*
X5934467Y-16081031D01*
X5934467Y-16081031D02*
X5943991Y-16071508D01*
X5943991Y-16071508D02*
X5963039Y-16061984D01*
X6115420Y-16261984D02*
X6115420Y-16128650D01*
X6115420Y-16147698D02*
X6124943Y-16138174D01*
X6124943Y-16138174D02*
X6143991Y-16128650D01*
X6143991Y-16128650D02*
X6172563Y-16128650D01*
X6172563Y-16128650D02*
X6191610Y-16138174D01*
X6191610Y-16138174D02*
X6201134Y-16157222D01*
X6201134Y-16157222D02*
X6201134Y-16261984D01*
X6201134Y-16157222D02*
X6210658Y-16138174D01*
X6210658Y-16138174D02*
X6229705Y-16128650D01*
X6229705Y-16128650D02*
X6258277Y-16128650D01*
X6258277Y-16128650D02*
X6277324Y-16138174D01*
X6277324Y-16138174D02*
X6286848Y-16157222D01*
X6286848Y-16157222D02*
X6286848Y-16261984D01*
X6382086Y-16261984D02*
X6382086Y-16128650D01*
X6382086Y-16147698D02*
X6391610Y-16138174D01*
X6391610Y-16138174D02*
X6410658Y-16128650D01*
X6410658Y-16128650D02*
X6439229Y-16128650D01*
X6439229Y-16128650D02*
X6458277Y-16138174D01*
X6458277Y-16138174D02*
X6467801Y-16157222D01*
X6467801Y-16157222D02*
X6467801Y-16261984D01*
X6467801Y-16157222D02*
X6477324Y-16138174D01*
X6477324Y-16138174D02*
X6496372Y-16128650D01*
X6496372Y-16128650D02*
X6524943Y-16128650D01*
X6524943Y-16128650D02*
X6543991Y-16138174D01*
X6543991Y-16138174D02*
X6553515Y-16157222D01*
X6553515Y-16157222D02*
X6553515Y-16261984D01*
X6943991Y-16052460D02*
X6772563Y-16309603D01*
X7201134Y-16061984D02*
X7220182Y-16061984D01*
X7220182Y-16061984D02*
X7239229Y-16071508D01*
X7239229Y-16071508D02*
X7248753Y-16081031D01*
X7248753Y-16081031D02*
X7258277Y-16100079D01*
X7258277Y-16100079D02*
X7267801Y-16138174D01*
X7267801Y-16138174D02*
X7267801Y-16185793D01*
X7267801Y-16185793D02*
X7258277Y-16223888D01*
X7258277Y-16223888D02*
X7248753Y-16242936D01*
X7248753Y-16242936D02*
X7239229Y-16252460D01*
X7239229Y-16252460D02*
X7220182Y-16261984D01*
X7220182Y-16261984D02*
X7201134Y-16261984D01*
X7201134Y-16261984D02*
X7182086Y-16252460D01*
X7182086Y-16252460D02*
X7172563Y-16242936D01*
X7172563Y-16242936D02*
X7163039Y-16223888D01*
X7163039Y-16223888D02*
X7153515Y-16185793D01*
X7153515Y-16185793D02*
X7153515Y-16138174D01*
X7153515Y-16138174D02*
X7163039Y-16100079D01*
X7163039Y-16100079D02*
X7172563Y-16081031D01*
X7172563Y-16081031D02*
X7182086Y-16071508D01*
X7182086Y-16071508D02*
X7201134Y-16061984D01*
X7353515Y-16242936D02*
X7363039Y-16252460D01*
X7363039Y-16252460D02*
X7353515Y-16261984D01*
X7353515Y-16261984D02*
X7343991Y-16252460D01*
X7343991Y-16252460D02*
X7353515Y-16242936D01*
X7353515Y-16242936D02*
X7353515Y-16261984D01*
X7486848Y-16061984D02*
X7505896Y-16061984D01*
X7505896Y-16061984D02*
X7524944Y-16071508D01*
X7524944Y-16071508D02*
X7534467Y-16081031D01*
X7534467Y-16081031D02*
X7543991Y-16100079D01*
X7543991Y-16100079D02*
X7553515Y-16138174D01*
X7553515Y-16138174D02*
X7553515Y-16185793D01*
X7553515Y-16185793D02*
X7543991Y-16223888D01*
X7543991Y-16223888D02*
X7534467Y-16242936D01*
X7534467Y-16242936D02*
X7524944Y-16252460D01*
X7524944Y-16252460D02*
X7505896Y-16261984D01*
X7505896Y-16261984D02*
X7486848Y-16261984D01*
X7486848Y-16261984D02*
X7467801Y-16252460D01*
X7467801Y-16252460D02*
X7458277Y-16242936D01*
X7458277Y-16242936D02*
X7448753Y-16223888D01*
X7448753Y-16223888D02*
X7439229Y-16185793D01*
X7439229Y-16185793D02*
X7439229Y-16138174D01*
X7439229Y-16138174D02*
X7448753Y-16100079D01*
X7448753Y-16100079D02*
X7458277Y-16081031D01*
X7458277Y-16081031D02*
X7467801Y-16071508D01*
X7467801Y-16071508D02*
X7486848Y-16061984D01*
X7629706Y-16081031D02*
X7639229Y-16071508D01*
X7639229Y-16071508D02*
X7658277Y-16061984D01*
X7658277Y-16061984D02*
X7705896Y-16061984D01*
X7705896Y-16061984D02*
X7724944Y-16071508D01*
X7724944Y-16071508D02*
X7734467Y-16081031D01*
X7734467Y-16081031D02*
X7743991Y-16100079D01*
X7743991Y-16100079D02*
X7743991Y-16119127D01*
X7743991Y-16119127D02*
X7734467Y-16147698D01*
X7734467Y-16147698D02*
X7620182Y-16261984D01*
X7620182Y-16261984D02*
X7743991Y-16261984D01*
X7839229Y-16261984D02*
X7877325Y-16261984D01*
X7877325Y-16261984D02*
X7896372Y-16252460D01*
X7896372Y-16252460D02*
X7905896Y-16242936D01*
X7905896Y-16242936D02*
X7924944Y-16214365D01*
X7924944Y-16214365D02*
X7934467Y-16176269D01*
X7934467Y-16176269D02*
X7934467Y-16100079D01*
X7934467Y-16100079D02*
X7924944Y-16081031D01*
X7924944Y-16081031D02*
X7915420Y-16071508D01*
X7915420Y-16071508D02*
X7896372Y-16061984D01*
X7896372Y-16061984D02*
X7858277Y-16061984D01*
X7858277Y-16061984D02*
X7839229Y-16071508D01*
X7839229Y-16071508D02*
X7829706Y-16081031D01*
X7829706Y-16081031D02*
X7820182Y-16100079D01*
X7820182Y-16100079D02*
X7820182Y-16147698D01*
X7820182Y-16147698D02*
X7829706Y-16166746D01*
X7829706Y-16166746D02*
X7839229Y-16176269D01*
X7839229Y-16176269D02*
X7858277Y-16185793D01*
X7858277Y-16185793D02*
X7896372Y-16185793D01*
X7896372Y-16185793D02*
X7915420Y-16176269D01*
X7915420Y-16176269D02*
X7924944Y-16166746D01*
X7924944Y-16166746D02*
X7934467Y-16147698D01*
X8115420Y-16061984D02*
X8020182Y-16061984D01*
X8020182Y-16061984D02*
X8010658Y-16157222D01*
X8010658Y-16157222D02*
X8020182Y-16147698D01*
X8020182Y-16147698D02*
X8039229Y-16138174D01*
X8039229Y-16138174D02*
X8086848Y-16138174D01*
X8086848Y-16138174D02*
X8105896Y-16147698D01*
X8105896Y-16147698D02*
X8115420Y-16157222D01*
X8115420Y-16157222D02*
X8124944Y-16176269D01*
X8124944Y-16176269D02*
X8124944Y-16223888D01*
X8124944Y-16223888D02*
X8115420Y-16242936D01*
X8115420Y-16242936D02*
X8105896Y-16252460D01*
X8105896Y-16252460D02*
X8086848Y-16261984D01*
X8086848Y-16261984D02*
X8039229Y-16261984D01*
X8039229Y-16261984D02*
X8020182Y-16252460D01*
X8020182Y-16252460D02*
X8010658Y-16242936D01*
X8201134Y-16061984D02*
X8201134Y-16100079D01*
X8277325Y-16061984D02*
X8277325Y-16100079D01*
X8572563Y-16338174D02*
X8563039Y-16328650D01*
X8563039Y-16328650D02*
X8543991Y-16300079D01*
X8543991Y-16300079D02*
X8534468Y-16281031D01*
X8534468Y-16281031D02*
X8524944Y-16252460D01*
X8524944Y-16252460D02*
X8515420Y-16204841D01*
X8515420Y-16204841D02*
X8515420Y-16166746D01*
X8515420Y-16166746D02*
X8524944Y-16119127D01*
X8524944Y-16119127D02*
X8534468Y-16090555D01*
X8534468Y-16090555D02*
X8543991Y-16071508D01*
X8543991Y-16071508D02*
X8563039Y-16042936D01*
X8563039Y-16042936D02*
X8572563Y-16033412D01*
X8753515Y-16261984D02*
X8639230Y-16261984D01*
X8696372Y-16261984D02*
X8696372Y-16061984D01*
X8696372Y-16061984D02*
X8677325Y-16090555D01*
X8677325Y-16090555D02*
X8658277Y-16109603D01*
X8658277Y-16109603D02*
X8639230Y-16119127D01*
X8934468Y-16061984D02*
X8839230Y-16061984D01*
X8839230Y-16061984D02*
X8829706Y-16157222D01*
X8829706Y-16157222D02*
X8839230Y-16147698D01*
X8839230Y-16147698D02*
X8858277Y-16138174D01*
X8858277Y-16138174D02*
X8905896Y-16138174D01*
X8905896Y-16138174D02*
X8924944Y-16147698D01*
X8924944Y-16147698D02*
X8934468Y-16157222D01*
X8934468Y-16157222D02*
X8943991Y-16176269D01*
X8943991Y-16176269D02*
X8943991Y-16223888D01*
X8943991Y-16223888D02*
X8934468Y-16242936D01*
X8934468Y-16242936D02*
X8924944Y-16252460D01*
X8924944Y-16252460D02*
X8905896Y-16261984D01*
X8905896Y-16261984D02*
X8858277Y-16261984D01*
X8858277Y-16261984D02*
X8839230Y-16252460D01*
X8839230Y-16252460D02*
X8829706Y-16242936D01*
X9182087Y-16261984D02*
X9182087Y-16061984D01*
X9267801Y-16261984D02*
X9267801Y-16157222D01*
X9267801Y-16157222D02*
X9258277Y-16138174D01*
X9258277Y-16138174D02*
X9239230Y-16128650D01*
X9239230Y-16128650D02*
X9210658Y-16128650D01*
X9210658Y-16128650D02*
X9191611Y-16138174D01*
X9191611Y-16138174D02*
X9182087Y-16147698D01*
X9391611Y-16261984D02*
X9372563Y-16252460D01*
X9372563Y-16252460D02*
X9363039Y-16242936D01*
X9363039Y-16242936D02*
X9353515Y-16223888D01*
X9353515Y-16223888D02*
X9353515Y-16166746D01*
X9353515Y-16166746D02*
X9363039Y-16147698D01*
X9363039Y-16147698D02*
X9372563Y-16138174D01*
X9372563Y-16138174D02*
X9391611Y-16128650D01*
X9391611Y-16128650D02*
X9420182Y-16128650D01*
X9420182Y-16128650D02*
X9439230Y-16138174D01*
X9439230Y-16138174D02*
X9448753Y-16147698D01*
X9448753Y-16147698D02*
X9458277Y-16166746D01*
X9458277Y-16166746D02*
X9458277Y-16223888D01*
X9458277Y-16223888D02*
X9448753Y-16242936D01*
X9448753Y-16242936D02*
X9439230Y-16252460D01*
X9439230Y-16252460D02*
X9420182Y-16261984D01*
X9420182Y-16261984D02*
X9391611Y-16261984D01*
X9572563Y-16261984D02*
X9553515Y-16252460D01*
X9553515Y-16252460D02*
X9543992Y-16233412D01*
X9543992Y-16233412D02*
X9543992Y-16061984D01*
X9724944Y-16252460D02*
X9705896Y-16261984D01*
X9705896Y-16261984D02*
X9667801Y-16261984D01*
X9667801Y-16261984D02*
X9648753Y-16252460D01*
X9648753Y-16252460D02*
X9639230Y-16233412D01*
X9639230Y-16233412D02*
X9639230Y-16157222D01*
X9639230Y-16157222D02*
X9648753Y-16138174D01*
X9648753Y-16138174D02*
X9667801Y-16128650D01*
X9667801Y-16128650D02*
X9705896Y-16128650D01*
X9705896Y-16128650D02*
X9724944Y-16138174D01*
X9724944Y-16138174D02*
X9734468Y-16157222D01*
X9734468Y-16157222D02*
X9734468Y-16176269D01*
X9734468Y-16176269D02*
X9639230Y-16195317D01*
X9810658Y-16252460D02*
X9829706Y-16261984D01*
X9829706Y-16261984D02*
X9867801Y-16261984D01*
X9867801Y-16261984D02*
X9886849Y-16252460D01*
X9886849Y-16252460D02*
X9896373Y-16233412D01*
X9896373Y-16233412D02*
X9896373Y-16223888D01*
X9896373Y-16223888D02*
X9886849Y-16204841D01*
X9886849Y-16204841D02*
X9867801Y-16195317D01*
X9867801Y-16195317D02*
X9839230Y-16195317D01*
X9839230Y-16195317D02*
X9820182Y-16185793D01*
X9820182Y-16185793D02*
X9810658Y-16166746D01*
X9810658Y-16166746D02*
X9810658Y-16157222D01*
X9810658Y-16157222D02*
X9820182Y-16138174D01*
X9820182Y-16138174D02*
X9839230Y-16128650D01*
X9839230Y-16128650D02*
X9867801Y-16128650D01*
X9867801Y-16128650D02*
X9886849Y-16138174D01*
X9963039Y-16338174D02*
X9972563Y-16328650D01*
X9972563Y-16328650D02*
X9991611Y-16300079D01*
X9991611Y-16300079D02*
X10001134Y-16281031D01*
X10001134Y-16281031D02*
X10010658Y-16252460D01*
X10010658Y-16252460D02*
X10020182Y-16204841D01*
X10020182Y-16204841D02*
X10020182Y-16166746D01*
X10020182Y-16166746D02*
X10010658Y-16119127D01*
X10010658Y-16119127D02*
X10001134Y-16090555D01*
X10001134Y-16090555D02*
X9991611Y-16071508D01*
X9991611Y-16071508D02*
X9972563Y-16042936D01*
X9972563Y-16042936D02*
X9963039Y-16033412D01*
D12*
X4986341Y-16461441D02*
X4986341Y-16407559D01*
X4932459Y-16407559D01*
X4932459Y-16461441D01*
X4986341Y-16461441D01*
D11*
X5296372Y-16325984D02*
X5315420Y-16325984D01*
X5315420Y-16325984D02*
X5334467Y-16335508D01*
X5334467Y-16335508D02*
X5343991Y-16345031D01*
X5343991Y-16345031D02*
X5353515Y-16364079D01*
X5353515Y-16364079D02*
X5363039Y-16402174D01*
X5363039Y-16402174D02*
X5363039Y-16449793D01*
X5363039Y-16449793D02*
X5353515Y-16487888D01*
X5353515Y-16487888D02*
X5343991Y-16506936D01*
X5343991Y-16506936D02*
X5334467Y-16516460D01*
X5334467Y-16516460D02*
X5315420Y-16525984D01*
X5315420Y-16525984D02*
X5296372Y-16525984D01*
X5296372Y-16525984D02*
X5277324Y-16516460D01*
X5277324Y-16516460D02*
X5267801Y-16506936D01*
X5267801Y-16506936D02*
X5258277Y-16487888D01*
X5258277Y-16487888D02*
X5248753Y-16449793D01*
X5248753Y-16449793D02*
X5248753Y-16402174D01*
X5248753Y-16402174D02*
X5258277Y-16364079D01*
X5258277Y-16364079D02*
X5267801Y-16345031D01*
X5267801Y-16345031D02*
X5277324Y-16335508D01*
X5277324Y-16335508D02*
X5296372Y-16325984D01*
X5448753Y-16506936D02*
X5458277Y-16516460D01*
X5458277Y-16516460D02*
X5448753Y-16525984D01*
X5448753Y-16525984D02*
X5439229Y-16516460D01*
X5439229Y-16516460D02*
X5448753Y-16506936D01*
X5448753Y-16506936D02*
X5448753Y-16525984D01*
X5524944Y-16325984D02*
X5658277Y-16325984D01*
X5658277Y-16325984D02*
X5572563Y-16525984D01*
X5820182Y-16325984D02*
X5782086Y-16325984D01*
X5782086Y-16325984D02*
X5763039Y-16335508D01*
X5763039Y-16335508D02*
X5753515Y-16345031D01*
X5753515Y-16345031D02*
X5734467Y-16373603D01*
X5734467Y-16373603D02*
X5724943Y-16411698D01*
X5724943Y-16411698D02*
X5724943Y-16487888D01*
X5724943Y-16487888D02*
X5734467Y-16506936D01*
X5734467Y-16506936D02*
X5743991Y-16516460D01*
X5743991Y-16516460D02*
X5763039Y-16525984D01*
X5763039Y-16525984D02*
X5801134Y-16525984D01*
X5801134Y-16525984D02*
X5820182Y-16516460D01*
X5820182Y-16516460D02*
X5829705Y-16506936D01*
X5829705Y-16506936D02*
X5839229Y-16487888D01*
X5839229Y-16487888D02*
X5839229Y-16440269D01*
X5839229Y-16440269D02*
X5829705Y-16421222D01*
X5829705Y-16421222D02*
X5820182Y-16411698D01*
X5820182Y-16411698D02*
X5801134Y-16402174D01*
X5801134Y-16402174D02*
X5763039Y-16402174D01*
X5763039Y-16402174D02*
X5743991Y-16411698D01*
X5743991Y-16411698D02*
X5734467Y-16421222D01*
X5734467Y-16421222D02*
X5724943Y-16440269D01*
X5915420Y-16345031D02*
X5924943Y-16335508D01*
X5924943Y-16335508D02*
X5943991Y-16325984D01*
X5943991Y-16325984D02*
X5991610Y-16325984D01*
X5991610Y-16325984D02*
X6010658Y-16335508D01*
X6010658Y-16335508D02*
X6020182Y-16345031D01*
X6020182Y-16345031D02*
X6029705Y-16364079D01*
X6029705Y-16364079D02*
X6029705Y-16383127D01*
X6029705Y-16383127D02*
X6020182Y-16411698D01*
X6020182Y-16411698D02*
X5905896Y-16525984D01*
X5905896Y-16525984D02*
X6029705Y-16525984D01*
X6115420Y-16525984D02*
X6115420Y-16392650D01*
X6115420Y-16411698D02*
X6124943Y-16402174D01*
X6124943Y-16402174D02*
X6143991Y-16392650D01*
X6143991Y-16392650D02*
X6172563Y-16392650D01*
X6172563Y-16392650D02*
X6191610Y-16402174D01*
X6191610Y-16402174D02*
X6201134Y-16421222D01*
X6201134Y-16421222D02*
X6201134Y-16525984D01*
X6201134Y-16421222D02*
X6210658Y-16402174D01*
X6210658Y-16402174D02*
X6229705Y-16392650D01*
X6229705Y-16392650D02*
X6258277Y-16392650D01*
X6258277Y-16392650D02*
X6277324Y-16402174D01*
X6277324Y-16402174D02*
X6286848Y-16421222D01*
X6286848Y-16421222D02*
X6286848Y-16525984D01*
X6382086Y-16525984D02*
X6382086Y-16392650D01*
X6382086Y-16411698D02*
X6391610Y-16402174D01*
X6391610Y-16402174D02*
X6410658Y-16392650D01*
X6410658Y-16392650D02*
X6439229Y-16392650D01*
X6439229Y-16392650D02*
X6458277Y-16402174D01*
X6458277Y-16402174D02*
X6467801Y-16421222D01*
X6467801Y-16421222D02*
X6467801Y-16525984D01*
X6467801Y-16421222D02*
X6477324Y-16402174D01*
X6477324Y-16402174D02*
X6496372Y-16392650D01*
X6496372Y-16392650D02*
X6524943Y-16392650D01*
X6524943Y-16392650D02*
X6543991Y-16402174D01*
X6543991Y-16402174D02*
X6553515Y-16421222D01*
X6553515Y-16421222D02*
X6553515Y-16525984D01*
X6943991Y-16316460D02*
X6772563Y-16573603D01*
X7201134Y-16325984D02*
X7220182Y-16325984D01*
X7220182Y-16325984D02*
X7239229Y-16335508D01*
X7239229Y-16335508D02*
X7248753Y-16345031D01*
X7248753Y-16345031D02*
X7258277Y-16364079D01*
X7258277Y-16364079D02*
X7267801Y-16402174D01*
X7267801Y-16402174D02*
X7267801Y-16449793D01*
X7267801Y-16449793D02*
X7258277Y-16487888D01*
X7258277Y-16487888D02*
X7248753Y-16506936D01*
X7248753Y-16506936D02*
X7239229Y-16516460D01*
X7239229Y-16516460D02*
X7220182Y-16525984D01*
X7220182Y-16525984D02*
X7201134Y-16525984D01*
X7201134Y-16525984D02*
X7182086Y-16516460D01*
X7182086Y-16516460D02*
X7172563Y-16506936D01*
X7172563Y-16506936D02*
X7163039Y-16487888D01*
X7163039Y-16487888D02*
X7153515Y-16449793D01*
X7153515Y-16449793D02*
X7153515Y-16402174D01*
X7153515Y-16402174D02*
X7163039Y-16364079D01*
X7163039Y-16364079D02*
X7172563Y-16345031D01*
X7172563Y-16345031D02*
X7182086Y-16335508D01*
X7182086Y-16335508D02*
X7201134Y-16325984D01*
X7353515Y-16506936D02*
X7363039Y-16516460D01*
X7363039Y-16516460D02*
X7353515Y-16525984D01*
X7353515Y-16525984D02*
X7343991Y-16516460D01*
X7343991Y-16516460D02*
X7353515Y-16506936D01*
X7353515Y-16506936D02*
X7353515Y-16525984D01*
X7486848Y-16325984D02*
X7505896Y-16325984D01*
X7505896Y-16325984D02*
X7524944Y-16335508D01*
X7524944Y-16335508D02*
X7534467Y-16345031D01*
X7534467Y-16345031D02*
X7543991Y-16364079D01*
X7543991Y-16364079D02*
X7553515Y-16402174D01*
X7553515Y-16402174D02*
X7553515Y-16449793D01*
X7553515Y-16449793D02*
X7543991Y-16487888D01*
X7543991Y-16487888D02*
X7534467Y-16506936D01*
X7534467Y-16506936D02*
X7524944Y-16516460D01*
X7524944Y-16516460D02*
X7505896Y-16525984D01*
X7505896Y-16525984D02*
X7486848Y-16525984D01*
X7486848Y-16525984D02*
X7467801Y-16516460D01*
X7467801Y-16516460D02*
X7458277Y-16506936D01*
X7458277Y-16506936D02*
X7448753Y-16487888D01*
X7448753Y-16487888D02*
X7439229Y-16449793D01*
X7439229Y-16449793D02*
X7439229Y-16402174D01*
X7439229Y-16402174D02*
X7448753Y-16364079D01*
X7448753Y-16364079D02*
X7458277Y-16345031D01*
X7458277Y-16345031D02*
X7467801Y-16335508D01*
X7467801Y-16335508D02*
X7486848Y-16325984D01*
X7620182Y-16325984D02*
X7743991Y-16325984D01*
X7743991Y-16325984D02*
X7677325Y-16402174D01*
X7677325Y-16402174D02*
X7705896Y-16402174D01*
X7705896Y-16402174D02*
X7724944Y-16411698D01*
X7724944Y-16411698D02*
X7734467Y-16421222D01*
X7734467Y-16421222D02*
X7743991Y-16440269D01*
X7743991Y-16440269D02*
X7743991Y-16487888D01*
X7743991Y-16487888D02*
X7734467Y-16506936D01*
X7734467Y-16506936D02*
X7724944Y-16516460D01*
X7724944Y-16516460D02*
X7705896Y-16525984D01*
X7705896Y-16525984D02*
X7648753Y-16525984D01*
X7648753Y-16525984D02*
X7629706Y-16516460D01*
X7629706Y-16516460D02*
X7620182Y-16506936D01*
X7867801Y-16325984D02*
X7886848Y-16325984D01*
X7886848Y-16325984D02*
X7905896Y-16335508D01*
X7905896Y-16335508D02*
X7915420Y-16345031D01*
X7915420Y-16345031D02*
X7924944Y-16364079D01*
X7924944Y-16364079D02*
X7934467Y-16402174D01*
X7934467Y-16402174D02*
X7934467Y-16449793D01*
X7934467Y-16449793D02*
X7924944Y-16487888D01*
X7924944Y-16487888D02*
X7915420Y-16506936D01*
X7915420Y-16506936D02*
X7905896Y-16516460D01*
X7905896Y-16516460D02*
X7886848Y-16525984D01*
X7886848Y-16525984D02*
X7867801Y-16525984D01*
X7867801Y-16525984D02*
X7848753Y-16516460D01*
X7848753Y-16516460D02*
X7839229Y-16506936D01*
X7839229Y-16506936D02*
X7829706Y-16487888D01*
X7829706Y-16487888D02*
X7820182Y-16449793D01*
X7820182Y-16449793D02*
X7820182Y-16402174D01*
X7820182Y-16402174D02*
X7829706Y-16364079D01*
X7829706Y-16364079D02*
X7839229Y-16345031D01*
X7839229Y-16345031D02*
X7848753Y-16335508D01*
X7848753Y-16335508D02*
X7867801Y-16325984D01*
X8058277Y-16325984D02*
X8077325Y-16325984D01*
X8077325Y-16325984D02*
X8096372Y-16335508D01*
X8096372Y-16335508D02*
X8105896Y-16345031D01*
X8105896Y-16345031D02*
X8115420Y-16364079D01*
X8115420Y-16364079D02*
X8124944Y-16402174D01*
X8124944Y-16402174D02*
X8124944Y-16449793D01*
X8124944Y-16449793D02*
X8115420Y-16487888D01*
X8115420Y-16487888D02*
X8105896Y-16506936D01*
X8105896Y-16506936D02*
X8096372Y-16516460D01*
X8096372Y-16516460D02*
X8077325Y-16525984D01*
X8077325Y-16525984D02*
X8058277Y-16525984D01*
X8058277Y-16525984D02*
X8039229Y-16516460D01*
X8039229Y-16516460D02*
X8029706Y-16506936D01*
X8029706Y-16506936D02*
X8020182Y-16487888D01*
X8020182Y-16487888D02*
X8010658Y-16449793D01*
X8010658Y-16449793D02*
X8010658Y-16402174D01*
X8010658Y-16402174D02*
X8020182Y-16364079D01*
X8020182Y-16364079D02*
X8029706Y-16345031D01*
X8029706Y-16345031D02*
X8039229Y-16335508D01*
X8039229Y-16335508D02*
X8058277Y-16325984D01*
X8201134Y-16325984D02*
X8201134Y-16364079D01*
X8277325Y-16325984D02*
X8277325Y-16364079D01*
X8572563Y-16602174D02*
X8563039Y-16592650D01*
X8563039Y-16592650D02*
X8543991Y-16564079D01*
X8543991Y-16564079D02*
X8534468Y-16545031D01*
X8534468Y-16545031D02*
X8524944Y-16516460D01*
X8524944Y-16516460D02*
X8515420Y-16468841D01*
X8515420Y-16468841D02*
X8515420Y-16430746D01*
X8515420Y-16430746D02*
X8524944Y-16383127D01*
X8524944Y-16383127D02*
X8534468Y-16354555D01*
X8534468Y-16354555D02*
X8543991Y-16335508D01*
X8543991Y-16335508D02*
X8563039Y-16306936D01*
X8563039Y-16306936D02*
X8572563Y-16297412D01*
X8753515Y-16525984D02*
X8639230Y-16525984D01*
X8696372Y-16525984D02*
X8696372Y-16325984D01*
X8696372Y-16325984D02*
X8677325Y-16354555D01*
X8677325Y-16354555D02*
X8658277Y-16373603D01*
X8658277Y-16373603D02*
X8639230Y-16383127D01*
X8877325Y-16325984D02*
X8896372Y-16325984D01*
X8896372Y-16325984D02*
X8915420Y-16335508D01*
X8915420Y-16335508D02*
X8924944Y-16345031D01*
X8924944Y-16345031D02*
X8934468Y-16364079D01*
X8934468Y-16364079D02*
X8943991Y-16402174D01*
X8943991Y-16402174D02*
X8943991Y-16449793D01*
X8943991Y-16449793D02*
X8934468Y-16487888D01*
X8934468Y-16487888D02*
X8924944Y-16506936D01*
X8924944Y-16506936D02*
X8915420Y-16516460D01*
X8915420Y-16516460D02*
X8896372Y-16525984D01*
X8896372Y-16525984D02*
X8877325Y-16525984D01*
X8877325Y-16525984D02*
X8858277Y-16516460D01*
X8858277Y-16516460D02*
X8848753Y-16506936D01*
X8848753Y-16506936D02*
X8839230Y-16487888D01*
X8839230Y-16487888D02*
X8829706Y-16449793D01*
X8829706Y-16449793D02*
X8829706Y-16402174D01*
X8829706Y-16402174D02*
X8839230Y-16364079D01*
X8839230Y-16364079D02*
X8848753Y-16345031D01*
X8848753Y-16345031D02*
X8858277Y-16335508D01*
X8858277Y-16335508D02*
X8877325Y-16325984D01*
X9182087Y-16525984D02*
X9182087Y-16325984D01*
X9267801Y-16525984D02*
X9267801Y-16421222D01*
X9267801Y-16421222D02*
X9258277Y-16402174D01*
X9258277Y-16402174D02*
X9239230Y-16392650D01*
X9239230Y-16392650D02*
X9210658Y-16392650D01*
X9210658Y-16392650D02*
X9191611Y-16402174D01*
X9191611Y-16402174D02*
X9182087Y-16411698D01*
X9391611Y-16525984D02*
X9372563Y-16516460D01*
X9372563Y-16516460D02*
X9363039Y-16506936D01*
X9363039Y-16506936D02*
X9353515Y-16487888D01*
X9353515Y-16487888D02*
X9353515Y-16430746D01*
X9353515Y-16430746D02*
X9363039Y-16411698D01*
X9363039Y-16411698D02*
X9372563Y-16402174D01*
X9372563Y-16402174D02*
X9391611Y-16392650D01*
X9391611Y-16392650D02*
X9420182Y-16392650D01*
X9420182Y-16392650D02*
X9439230Y-16402174D01*
X9439230Y-16402174D02*
X9448753Y-16411698D01*
X9448753Y-16411698D02*
X9458277Y-16430746D01*
X9458277Y-16430746D02*
X9458277Y-16487888D01*
X9458277Y-16487888D02*
X9448753Y-16506936D01*
X9448753Y-16506936D02*
X9439230Y-16516460D01*
X9439230Y-16516460D02*
X9420182Y-16525984D01*
X9420182Y-16525984D02*
X9391611Y-16525984D01*
X9572563Y-16525984D02*
X9553515Y-16516460D01*
X9553515Y-16516460D02*
X9543992Y-16497412D01*
X9543992Y-16497412D02*
X9543992Y-16325984D01*
X9724944Y-16516460D02*
X9705896Y-16525984D01*
X9705896Y-16525984D02*
X9667801Y-16525984D01*
X9667801Y-16525984D02*
X9648753Y-16516460D01*
X9648753Y-16516460D02*
X9639230Y-16497412D01*
X9639230Y-16497412D02*
X9639230Y-16421222D01*
X9639230Y-16421222D02*
X9648753Y-16402174D01*
X9648753Y-16402174D02*
X9667801Y-16392650D01*
X9667801Y-16392650D02*
X9705896Y-16392650D01*
X9705896Y-16392650D02*
X9724944Y-16402174D01*
X9724944Y-16402174D02*
X9734468Y-16421222D01*
X9734468Y-16421222D02*
X9734468Y-16440269D01*
X9734468Y-16440269D02*
X9639230Y-16459317D01*
X9810658Y-16516460D02*
X9829706Y-16525984D01*
X9829706Y-16525984D02*
X9867801Y-16525984D01*
X9867801Y-16525984D02*
X9886849Y-16516460D01*
X9886849Y-16516460D02*
X9896373Y-16497412D01*
X9896373Y-16497412D02*
X9896373Y-16487888D01*
X9896373Y-16487888D02*
X9886849Y-16468841D01*
X9886849Y-16468841D02*
X9867801Y-16459317D01*
X9867801Y-16459317D02*
X9839230Y-16459317D01*
X9839230Y-16459317D02*
X9820182Y-16449793D01*
X9820182Y-16449793D02*
X9810658Y-16430746D01*
X9810658Y-16430746D02*
X9810658Y-16421222D01*
X9810658Y-16421222D02*
X9820182Y-16402174D01*
X9820182Y-16402174D02*
X9839230Y-16392650D01*
X9839230Y-16392650D02*
X9867801Y-16392650D01*
X9867801Y-16392650D02*
X9886849Y-16402174D01*
X9963039Y-16602174D02*
X9972563Y-16592650D01*
X9972563Y-16592650D02*
X9991611Y-16564079D01*
X9991611Y-16564079D02*
X10001134Y-16545031D01*
X10001134Y-16545031D02*
X10010658Y-16516460D01*
X10010658Y-16516460D02*
X10020182Y-16468841D01*
X10020182Y-16468841D02*
X10020182Y-16430746D01*
X10020182Y-16430746D02*
X10010658Y-16383127D01*
X10010658Y-16383127D02*
X10001134Y-16354555D01*
X10001134Y-16354555D02*
X9991611Y-16335508D01*
X9991611Y-16335508D02*
X9972563Y-16306936D01*
X9972563Y-16306936D02*
X9963039Y-16297412D01*
D12*
X4957500Y-16738500D02*
X4997500Y-16698500D01*
X4957500Y-16658500D01*
X4917500Y-16698500D01*
X4957500Y-16738500D01*
D11*
X5296372Y-16589984D02*
X5315420Y-16589984D01*
X5315420Y-16589984D02*
X5334467Y-16599508D01*
X5334467Y-16599508D02*
X5343991Y-16609031D01*
X5343991Y-16609031D02*
X5353515Y-16628079D01*
X5353515Y-16628079D02*
X5363039Y-16666174D01*
X5363039Y-16666174D02*
X5363039Y-16713793D01*
X5363039Y-16713793D02*
X5353515Y-16751888D01*
X5353515Y-16751888D02*
X5343991Y-16770936D01*
X5343991Y-16770936D02*
X5334467Y-16780460D01*
X5334467Y-16780460D02*
X5315420Y-16789984D01*
X5315420Y-16789984D02*
X5296372Y-16789984D01*
X5296372Y-16789984D02*
X5277324Y-16780460D01*
X5277324Y-16780460D02*
X5267801Y-16770936D01*
X5267801Y-16770936D02*
X5258277Y-16751888D01*
X5258277Y-16751888D02*
X5248753Y-16713793D01*
X5248753Y-16713793D02*
X5248753Y-16666174D01*
X5248753Y-16666174D02*
X5258277Y-16628079D01*
X5258277Y-16628079D02*
X5267801Y-16609031D01*
X5267801Y-16609031D02*
X5277324Y-16599508D01*
X5277324Y-16599508D02*
X5296372Y-16589984D01*
X5448753Y-16770936D02*
X5458277Y-16780460D01*
X5458277Y-16780460D02*
X5448753Y-16789984D01*
X5448753Y-16789984D02*
X5439229Y-16780460D01*
X5439229Y-16780460D02*
X5448753Y-16770936D01*
X5448753Y-16770936D02*
X5448753Y-16789984D01*
X5572563Y-16675698D02*
X5553515Y-16666174D01*
X5553515Y-16666174D02*
X5543991Y-16656650D01*
X5543991Y-16656650D02*
X5534467Y-16637603D01*
X5534467Y-16637603D02*
X5534467Y-16628079D01*
X5534467Y-16628079D02*
X5543991Y-16609031D01*
X5543991Y-16609031D02*
X5553515Y-16599508D01*
X5553515Y-16599508D02*
X5572563Y-16589984D01*
X5572563Y-16589984D02*
X5610658Y-16589984D01*
X5610658Y-16589984D02*
X5629705Y-16599508D01*
X5629705Y-16599508D02*
X5639229Y-16609031D01*
X5639229Y-16609031D02*
X5648753Y-16628079D01*
X5648753Y-16628079D02*
X5648753Y-16637603D01*
X5648753Y-16637603D02*
X5639229Y-16656650D01*
X5639229Y-16656650D02*
X5629705Y-16666174D01*
X5629705Y-16666174D02*
X5610658Y-16675698D01*
X5610658Y-16675698D02*
X5572563Y-16675698D01*
X5572563Y-16675698D02*
X5553515Y-16685222D01*
X5553515Y-16685222D02*
X5543991Y-16694746D01*
X5543991Y-16694746D02*
X5534467Y-16713793D01*
X5534467Y-16713793D02*
X5534467Y-16751888D01*
X5534467Y-16751888D02*
X5543991Y-16770936D01*
X5543991Y-16770936D02*
X5553515Y-16780460D01*
X5553515Y-16780460D02*
X5572563Y-16789984D01*
X5572563Y-16789984D02*
X5610658Y-16789984D01*
X5610658Y-16789984D02*
X5629705Y-16780460D01*
X5629705Y-16780460D02*
X5639229Y-16770936D01*
X5639229Y-16770936D02*
X5648753Y-16751888D01*
X5648753Y-16751888D02*
X5648753Y-16713793D01*
X5648753Y-16713793D02*
X5639229Y-16694746D01*
X5639229Y-16694746D02*
X5629705Y-16685222D01*
X5629705Y-16685222D02*
X5610658Y-16675698D01*
X5772562Y-16589984D02*
X5791610Y-16589984D01*
X5791610Y-16589984D02*
X5810658Y-16599508D01*
X5810658Y-16599508D02*
X5820182Y-16609031D01*
X5820182Y-16609031D02*
X5829705Y-16628079D01*
X5829705Y-16628079D02*
X5839229Y-16666174D01*
X5839229Y-16666174D02*
X5839229Y-16713793D01*
X5839229Y-16713793D02*
X5829705Y-16751888D01*
X5829705Y-16751888D02*
X5820182Y-16770936D01*
X5820182Y-16770936D02*
X5810658Y-16780460D01*
X5810658Y-16780460D02*
X5791610Y-16789984D01*
X5791610Y-16789984D02*
X5772562Y-16789984D01*
X5772562Y-16789984D02*
X5753515Y-16780460D01*
X5753515Y-16780460D02*
X5743991Y-16770936D01*
X5743991Y-16770936D02*
X5734467Y-16751888D01*
X5734467Y-16751888D02*
X5724943Y-16713793D01*
X5724943Y-16713793D02*
X5724943Y-16666174D01*
X5724943Y-16666174D02*
X5734467Y-16628079D01*
X5734467Y-16628079D02*
X5743991Y-16609031D01*
X5743991Y-16609031D02*
X5753515Y-16599508D01*
X5753515Y-16599508D02*
X5772562Y-16589984D01*
X5963039Y-16589984D02*
X5982086Y-16589984D01*
X5982086Y-16589984D02*
X6001134Y-16599508D01*
X6001134Y-16599508D02*
X6010658Y-16609031D01*
X6010658Y-16609031D02*
X6020182Y-16628079D01*
X6020182Y-16628079D02*
X6029705Y-16666174D01*
X6029705Y-16666174D02*
X6029705Y-16713793D01*
X6029705Y-16713793D02*
X6020182Y-16751888D01*
X6020182Y-16751888D02*
X6010658Y-16770936D01*
X6010658Y-16770936D02*
X6001134Y-16780460D01*
X6001134Y-16780460D02*
X5982086Y-16789984D01*
X5982086Y-16789984D02*
X5963039Y-16789984D01*
X5963039Y-16789984D02*
X5943991Y-16780460D01*
X5943991Y-16780460D02*
X5934467Y-16770936D01*
X5934467Y-16770936D02*
X5924943Y-16751888D01*
X5924943Y-16751888D02*
X5915420Y-16713793D01*
X5915420Y-16713793D02*
X5915420Y-16666174D01*
X5915420Y-16666174D02*
X5924943Y-16628079D01*
X5924943Y-16628079D02*
X5934467Y-16609031D01*
X5934467Y-16609031D02*
X5943991Y-16599508D01*
X5943991Y-16599508D02*
X5963039Y-16589984D01*
X6115420Y-16789984D02*
X6115420Y-16656650D01*
X6115420Y-16675698D02*
X6124943Y-16666174D01*
X6124943Y-16666174D02*
X6143991Y-16656650D01*
X6143991Y-16656650D02*
X6172563Y-16656650D01*
X6172563Y-16656650D02*
X6191610Y-16666174D01*
X6191610Y-16666174D02*
X6201134Y-16685222D01*
X6201134Y-16685222D02*
X6201134Y-16789984D01*
X6201134Y-16685222D02*
X6210658Y-16666174D01*
X6210658Y-16666174D02*
X6229705Y-16656650D01*
X6229705Y-16656650D02*
X6258277Y-16656650D01*
X6258277Y-16656650D02*
X6277324Y-16666174D01*
X6277324Y-16666174D02*
X6286848Y-16685222D01*
X6286848Y-16685222D02*
X6286848Y-16789984D01*
X6382086Y-16789984D02*
X6382086Y-16656650D01*
X6382086Y-16675698D02*
X6391610Y-16666174D01*
X6391610Y-16666174D02*
X6410658Y-16656650D01*
X6410658Y-16656650D02*
X6439229Y-16656650D01*
X6439229Y-16656650D02*
X6458277Y-16666174D01*
X6458277Y-16666174D02*
X6467801Y-16685222D01*
X6467801Y-16685222D02*
X6467801Y-16789984D01*
X6467801Y-16685222D02*
X6477324Y-16666174D01*
X6477324Y-16666174D02*
X6496372Y-16656650D01*
X6496372Y-16656650D02*
X6524943Y-16656650D01*
X6524943Y-16656650D02*
X6543991Y-16666174D01*
X6543991Y-16666174D02*
X6553515Y-16685222D01*
X6553515Y-16685222D02*
X6553515Y-16789984D01*
X6943991Y-16580460D02*
X6772563Y-16837603D01*
X7201134Y-16589984D02*
X7220182Y-16589984D01*
X7220182Y-16589984D02*
X7239229Y-16599508D01*
X7239229Y-16599508D02*
X7248753Y-16609031D01*
X7248753Y-16609031D02*
X7258277Y-16628079D01*
X7258277Y-16628079D02*
X7267801Y-16666174D01*
X7267801Y-16666174D02*
X7267801Y-16713793D01*
X7267801Y-16713793D02*
X7258277Y-16751888D01*
X7258277Y-16751888D02*
X7248753Y-16770936D01*
X7248753Y-16770936D02*
X7239229Y-16780460D01*
X7239229Y-16780460D02*
X7220182Y-16789984D01*
X7220182Y-16789984D02*
X7201134Y-16789984D01*
X7201134Y-16789984D02*
X7182086Y-16780460D01*
X7182086Y-16780460D02*
X7172563Y-16770936D01*
X7172563Y-16770936D02*
X7163039Y-16751888D01*
X7163039Y-16751888D02*
X7153515Y-16713793D01*
X7153515Y-16713793D02*
X7153515Y-16666174D01*
X7153515Y-16666174D02*
X7163039Y-16628079D01*
X7163039Y-16628079D02*
X7172563Y-16609031D01*
X7172563Y-16609031D02*
X7182086Y-16599508D01*
X7182086Y-16599508D02*
X7201134Y-16589984D01*
X7353515Y-16770936D02*
X7363039Y-16780460D01*
X7363039Y-16780460D02*
X7353515Y-16789984D01*
X7353515Y-16789984D02*
X7343991Y-16780460D01*
X7343991Y-16780460D02*
X7353515Y-16770936D01*
X7353515Y-16770936D02*
X7353515Y-16789984D01*
X7486848Y-16589984D02*
X7505896Y-16589984D01*
X7505896Y-16589984D02*
X7524944Y-16599508D01*
X7524944Y-16599508D02*
X7534467Y-16609031D01*
X7534467Y-16609031D02*
X7543991Y-16628079D01*
X7543991Y-16628079D02*
X7553515Y-16666174D01*
X7553515Y-16666174D02*
X7553515Y-16713793D01*
X7553515Y-16713793D02*
X7543991Y-16751888D01*
X7543991Y-16751888D02*
X7534467Y-16770936D01*
X7534467Y-16770936D02*
X7524944Y-16780460D01*
X7524944Y-16780460D02*
X7505896Y-16789984D01*
X7505896Y-16789984D02*
X7486848Y-16789984D01*
X7486848Y-16789984D02*
X7467801Y-16780460D01*
X7467801Y-16780460D02*
X7458277Y-16770936D01*
X7458277Y-16770936D02*
X7448753Y-16751888D01*
X7448753Y-16751888D02*
X7439229Y-16713793D01*
X7439229Y-16713793D02*
X7439229Y-16666174D01*
X7439229Y-16666174D02*
X7448753Y-16628079D01*
X7448753Y-16628079D02*
X7458277Y-16609031D01*
X7458277Y-16609031D02*
X7467801Y-16599508D01*
X7467801Y-16599508D02*
X7486848Y-16589984D01*
X7620182Y-16589984D02*
X7743991Y-16589984D01*
X7743991Y-16589984D02*
X7677325Y-16666174D01*
X7677325Y-16666174D02*
X7705896Y-16666174D01*
X7705896Y-16666174D02*
X7724944Y-16675698D01*
X7724944Y-16675698D02*
X7734467Y-16685222D01*
X7734467Y-16685222D02*
X7743991Y-16704269D01*
X7743991Y-16704269D02*
X7743991Y-16751888D01*
X7743991Y-16751888D02*
X7734467Y-16770936D01*
X7734467Y-16770936D02*
X7724944Y-16780460D01*
X7724944Y-16780460D02*
X7705896Y-16789984D01*
X7705896Y-16789984D02*
X7648753Y-16789984D01*
X7648753Y-16789984D02*
X7629706Y-16780460D01*
X7629706Y-16780460D02*
X7620182Y-16770936D01*
X7934467Y-16789984D02*
X7820182Y-16789984D01*
X7877325Y-16789984D02*
X7877325Y-16589984D01*
X7877325Y-16589984D02*
X7858277Y-16618555D01*
X7858277Y-16618555D02*
X7839229Y-16637603D01*
X7839229Y-16637603D02*
X7820182Y-16647127D01*
X8115420Y-16589984D02*
X8020182Y-16589984D01*
X8020182Y-16589984D02*
X8010658Y-16685222D01*
X8010658Y-16685222D02*
X8020182Y-16675698D01*
X8020182Y-16675698D02*
X8039229Y-16666174D01*
X8039229Y-16666174D02*
X8086848Y-16666174D01*
X8086848Y-16666174D02*
X8105896Y-16675698D01*
X8105896Y-16675698D02*
X8115420Y-16685222D01*
X8115420Y-16685222D02*
X8124944Y-16704269D01*
X8124944Y-16704269D02*
X8124944Y-16751888D01*
X8124944Y-16751888D02*
X8115420Y-16770936D01*
X8115420Y-16770936D02*
X8105896Y-16780460D01*
X8105896Y-16780460D02*
X8086848Y-16789984D01*
X8086848Y-16789984D02*
X8039229Y-16789984D01*
X8039229Y-16789984D02*
X8020182Y-16780460D01*
X8020182Y-16780460D02*
X8010658Y-16770936D01*
X8201134Y-16589984D02*
X8201134Y-16628079D01*
X8277325Y-16589984D02*
X8277325Y-16628079D01*
X8572563Y-16866174D02*
X8563039Y-16856650D01*
X8563039Y-16856650D02*
X8543991Y-16828079D01*
X8543991Y-16828079D02*
X8534468Y-16809031D01*
X8534468Y-16809031D02*
X8524944Y-16780460D01*
X8524944Y-16780460D02*
X8515420Y-16732841D01*
X8515420Y-16732841D02*
X8515420Y-16694746D01*
X8515420Y-16694746D02*
X8524944Y-16647127D01*
X8524944Y-16647127D02*
X8534468Y-16618555D01*
X8534468Y-16618555D02*
X8543991Y-16599508D01*
X8543991Y-16599508D02*
X8563039Y-16570936D01*
X8563039Y-16570936D02*
X8572563Y-16561412D01*
X8753515Y-16789984D02*
X8639230Y-16789984D01*
X8696372Y-16789984D02*
X8696372Y-16589984D01*
X8696372Y-16589984D02*
X8677325Y-16618555D01*
X8677325Y-16618555D02*
X8658277Y-16637603D01*
X8658277Y-16637603D02*
X8639230Y-16647127D01*
X8924944Y-16656650D02*
X8924944Y-16789984D01*
X8877325Y-16580460D02*
X8829706Y-16723317D01*
X8829706Y-16723317D02*
X8953515Y-16723317D01*
X9010658Y-16589984D02*
X9143991Y-16589984D01*
X9143991Y-16589984D02*
X9058277Y-16789984D01*
X9372563Y-16789984D02*
X9372563Y-16589984D01*
X9458277Y-16789984D02*
X9458277Y-16685222D01*
X9458277Y-16685222D02*
X9448753Y-16666174D01*
X9448753Y-16666174D02*
X9429706Y-16656650D01*
X9429706Y-16656650D02*
X9401134Y-16656650D01*
X9401134Y-16656650D02*
X9382087Y-16666174D01*
X9382087Y-16666174D02*
X9372563Y-16675698D01*
X9582087Y-16789984D02*
X9563039Y-16780460D01*
X9563039Y-16780460D02*
X9553515Y-16770936D01*
X9553515Y-16770936D02*
X9543992Y-16751888D01*
X9543992Y-16751888D02*
X9543992Y-16694746D01*
X9543992Y-16694746D02*
X9553515Y-16675698D01*
X9553515Y-16675698D02*
X9563039Y-16666174D01*
X9563039Y-16666174D02*
X9582087Y-16656650D01*
X9582087Y-16656650D02*
X9610658Y-16656650D01*
X9610658Y-16656650D02*
X9629706Y-16666174D01*
X9629706Y-16666174D02*
X9639230Y-16675698D01*
X9639230Y-16675698D02*
X9648753Y-16694746D01*
X9648753Y-16694746D02*
X9648753Y-16751888D01*
X9648753Y-16751888D02*
X9639230Y-16770936D01*
X9639230Y-16770936D02*
X9629706Y-16780460D01*
X9629706Y-16780460D02*
X9610658Y-16789984D01*
X9610658Y-16789984D02*
X9582087Y-16789984D01*
X9763039Y-16789984D02*
X9743992Y-16780460D01*
X9743992Y-16780460D02*
X9734468Y-16761412D01*
X9734468Y-16761412D02*
X9734468Y-16589984D01*
X9915420Y-16780460D02*
X9896373Y-16789984D01*
X9896373Y-16789984D02*
X9858277Y-16789984D01*
X9858277Y-16789984D02*
X9839230Y-16780460D01*
X9839230Y-16780460D02*
X9829706Y-16761412D01*
X9829706Y-16761412D02*
X9829706Y-16685222D01*
X9829706Y-16685222D02*
X9839230Y-16666174D01*
X9839230Y-16666174D02*
X9858277Y-16656650D01*
X9858277Y-16656650D02*
X9896373Y-16656650D01*
X9896373Y-16656650D02*
X9915420Y-16666174D01*
X9915420Y-16666174D02*
X9924944Y-16685222D01*
X9924944Y-16685222D02*
X9924944Y-16704269D01*
X9924944Y-16704269D02*
X9829706Y-16723317D01*
X10001134Y-16780460D02*
X10020182Y-16789984D01*
X10020182Y-16789984D02*
X10058277Y-16789984D01*
X10058277Y-16789984D02*
X10077325Y-16780460D01*
X10077325Y-16780460D02*
X10086849Y-16761412D01*
X10086849Y-16761412D02*
X10086849Y-16751888D01*
X10086849Y-16751888D02*
X10077325Y-16732841D01*
X10077325Y-16732841D02*
X10058277Y-16723317D01*
X10058277Y-16723317D02*
X10029706Y-16723317D01*
X10029706Y-16723317D02*
X10010658Y-16713793D01*
X10010658Y-16713793D02*
X10001134Y-16694746D01*
X10001134Y-16694746D02*
X10001134Y-16685222D01*
X10001134Y-16685222D02*
X10010658Y-16666174D01*
X10010658Y-16666174D02*
X10029706Y-16656650D01*
X10029706Y-16656650D02*
X10058277Y-16656650D01*
X10058277Y-16656650D02*
X10077325Y-16666174D01*
X10324944Y-16713793D02*
X10477325Y-16713793D01*
X10401135Y-16789984D02*
X10401135Y-16637603D01*
X10810658Y-16589984D02*
X10772563Y-16589984D01*
X10772563Y-16589984D02*
X10753515Y-16599508D01*
X10753515Y-16599508D02*
X10743992Y-16609031D01*
X10743992Y-16609031D02*
X10724944Y-16637603D01*
X10724944Y-16637603D02*
X10715420Y-16675698D01*
X10715420Y-16675698D02*
X10715420Y-16751888D01*
X10715420Y-16751888D02*
X10724944Y-16770936D01*
X10724944Y-16770936D02*
X10734468Y-16780460D01*
X10734468Y-16780460D02*
X10753515Y-16789984D01*
X10753515Y-16789984D02*
X10791611Y-16789984D01*
X10791611Y-16789984D02*
X10810658Y-16780460D01*
X10810658Y-16780460D02*
X10820182Y-16770936D01*
X10820182Y-16770936D02*
X10829706Y-16751888D01*
X10829706Y-16751888D02*
X10829706Y-16704269D01*
X10829706Y-16704269D02*
X10820182Y-16685222D01*
X10820182Y-16685222D02*
X10810658Y-16675698D01*
X10810658Y-16675698D02*
X10791611Y-16666174D01*
X10791611Y-16666174D02*
X10753515Y-16666174D01*
X10753515Y-16666174D02*
X10734468Y-16675698D01*
X10734468Y-16675698D02*
X10724944Y-16685222D01*
X10724944Y-16685222D02*
X10715420Y-16704269D01*
X11058277Y-16780460D02*
X11077325Y-16789984D01*
X11077325Y-16789984D02*
X11115420Y-16789984D01*
X11115420Y-16789984D02*
X11134468Y-16780460D01*
X11134468Y-16780460D02*
X11143992Y-16761412D01*
X11143992Y-16761412D02*
X11143992Y-16751888D01*
X11143992Y-16751888D02*
X11134468Y-16732841D01*
X11134468Y-16732841D02*
X11115420Y-16723317D01*
X11115420Y-16723317D02*
X11086849Y-16723317D01*
X11086849Y-16723317D02*
X11067801Y-16713793D01*
X11067801Y-16713793D02*
X11058277Y-16694746D01*
X11058277Y-16694746D02*
X11058277Y-16685222D01*
X11058277Y-16685222D02*
X11067801Y-16666174D01*
X11067801Y-16666174D02*
X11086849Y-16656650D01*
X11086849Y-16656650D02*
X11115420Y-16656650D01*
X11115420Y-16656650D02*
X11134468Y-16666174D01*
X11258277Y-16789984D02*
X11239230Y-16780460D01*
X11239230Y-16780460D02*
X11229706Y-16761412D01*
X11229706Y-16761412D02*
X11229706Y-16589984D01*
X11363039Y-16789984D02*
X11343992Y-16780460D01*
X11343992Y-16780460D02*
X11334468Y-16770936D01*
X11334468Y-16770936D02*
X11324944Y-16751888D01*
X11324944Y-16751888D02*
X11324944Y-16694746D01*
X11324944Y-16694746D02*
X11334468Y-16675698D01*
X11334468Y-16675698D02*
X11343992Y-16666174D01*
X11343992Y-16666174D02*
X11363039Y-16656650D01*
X11363039Y-16656650D02*
X11391611Y-16656650D01*
X11391611Y-16656650D02*
X11410658Y-16666174D01*
X11410658Y-16666174D02*
X11420182Y-16675698D01*
X11420182Y-16675698D02*
X11429706Y-16694746D01*
X11429706Y-16694746D02*
X11429706Y-16751888D01*
X11429706Y-16751888D02*
X11420182Y-16770936D01*
X11420182Y-16770936D02*
X11410658Y-16780460D01*
X11410658Y-16780460D02*
X11391611Y-16789984D01*
X11391611Y-16789984D02*
X11363039Y-16789984D01*
X11486849Y-16656650D02*
X11563039Y-16656650D01*
X11515420Y-16589984D02*
X11515420Y-16761412D01*
X11515420Y-16761412D02*
X11524944Y-16780460D01*
X11524944Y-16780460D02*
X11543992Y-16789984D01*
X11543992Y-16789984D02*
X11563039Y-16789984D01*
X11620182Y-16780460D02*
X11639230Y-16789984D01*
X11639230Y-16789984D02*
X11677325Y-16789984D01*
X11677325Y-16789984D02*
X11696373Y-16780460D01*
X11696373Y-16780460D02*
X11705896Y-16761412D01*
X11705896Y-16761412D02*
X11705896Y-16751888D01*
X11705896Y-16751888D02*
X11696373Y-16732841D01*
X11696373Y-16732841D02*
X11677325Y-16723317D01*
X11677325Y-16723317D02*
X11648754Y-16723317D01*
X11648754Y-16723317D02*
X11629706Y-16713793D01*
X11629706Y-16713793D02*
X11620182Y-16694746D01*
X11620182Y-16694746D02*
X11620182Y-16685222D01*
X11620182Y-16685222D02*
X11629706Y-16666174D01*
X11629706Y-16666174D02*
X11648754Y-16656650D01*
X11648754Y-16656650D02*
X11677325Y-16656650D01*
X11677325Y-16656650D02*
X11696373Y-16666174D01*
X11772563Y-16866174D02*
X11782087Y-16856650D01*
X11782087Y-16856650D02*
X11801135Y-16828079D01*
X11801135Y-16828079D02*
X11810658Y-16809031D01*
X11810658Y-16809031D02*
X11820182Y-16780460D01*
X11820182Y-16780460D02*
X11829706Y-16732841D01*
X11829706Y-16732841D02*
X11829706Y-16694746D01*
X11829706Y-16694746D02*
X11820182Y-16647127D01*
X11820182Y-16647127D02*
X11810658Y-16618555D01*
X11810658Y-16618555D02*
X11801135Y-16599508D01*
X11801135Y-16599508D02*
X11782087Y-16570936D01*
X11782087Y-16570936D02*
X11772563Y-16561412D01*
D12*
X4907500Y-16917500D02*
X4997500Y-17007500D01*
X4997500Y-16917500D02*
X4907500Y-17007500D01*
X4997500Y-16962500D02*
G75*
G02*
X4907500Y-16962500I-45000J0D01*
G01*
X4907500Y-16962500D02*
G75*
G02*
X4997500Y-16962500I45000J0D01*
G01*
D11*
X5296372Y-16853984D02*
X5315420Y-16853984D01*
X5315420Y-16853984D02*
X5334467Y-16863508D01*
X5334467Y-16863508D02*
X5343991Y-16873031D01*
X5343991Y-16873031D02*
X5353515Y-16892079D01*
X5353515Y-16892079D02*
X5363039Y-16930174D01*
X5363039Y-16930174D02*
X5363039Y-16977793D01*
X5363039Y-16977793D02*
X5353515Y-17015889D01*
X5353515Y-17015889D02*
X5343991Y-17034936D01*
X5343991Y-17034936D02*
X5334467Y-17044460D01*
X5334467Y-17044460D02*
X5315420Y-17053984D01*
X5315420Y-17053984D02*
X5296372Y-17053984D01*
X5296372Y-17053984D02*
X5277324Y-17044460D01*
X5277324Y-17044460D02*
X5267801Y-17034936D01*
X5267801Y-17034936D02*
X5258277Y-17015889D01*
X5258277Y-17015889D02*
X5248753Y-16977793D01*
X5248753Y-16977793D02*
X5248753Y-16930174D01*
X5248753Y-16930174D02*
X5258277Y-16892079D01*
X5258277Y-16892079D02*
X5267801Y-16873031D01*
X5267801Y-16873031D02*
X5277324Y-16863508D01*
X5277324Y-16863508D02*
X5296372Y-16853984D01*
X5448753Y-17034936D02*
X5458277Y-17044460D01*
X5458277Y-17044460D02*
X5448753Y-17053984D01*
X5448753Y-17053984D02*
X5439229Y-17044460D01*
X5439229Y-17044460D02*
X5448753Y-17034936D01*
X5448753Y-17034936D02*
X5448753Y-17053984D01*
X5553515Y-17053984D02*
X5591610Y-17053984D01*
X5591610Y-17053984D02*
X5610658Y-17044460D01*
X5610658Y-17044460D02*
X5620182Y-17034936D01*
X5620182Y-17034936D02*
X5639229Y-17006365D01*
X5639229Y-17006365D02*
X5648753Y-16968270D01*
X5648753Y-16968270D02*
X5648753Y-16892079D01*
X5648753Y-16892079D02*
X5639229Y-16873031D01*
X5639229Y-16873031D02*
X5629705Y-16863508D01*
X5629705Y-16863508D02*
X5610658Y-16853984D01*
X5610658Y-16853984D02*
X5572563Y-16853984D01*
X5572563Y-16853984D02*
X5553515Y-16863508D01*
X5553515Y-16863508D02*
X5543991Y-16873031D01*
X5543991Y-16873031D02*
X5534467Y-16892079D01*
X5534467Y-16892079D02*
X5534467Y-16939698D01*
X5534467Y-16939698D02*
X5543991Y-16958746D01*
X5543991Y-16958746D02*
X5553515Y-16968270D01*
X5553515Y-16968270D02*
X5572563Y-16977793D01*
X5572563Y-16977793D02*
X5610658Y-16977793D01*
X5610658Y-16977793D02*
X5629705Y-16968270D01*
X5629705Y-16968270D02*
X5639229Y-16958746D01*
X5639229Y-16958746D02*
X5648753Y-16939698D01*
X5772562Y-16853984D02*
X5791610Y-16853984D01*
X5791610Y-16853984D02*
X5810658Y-16863508D01*
X5810658Y-16863508D02*
X5820182Y-16873031D01*
X5820182Y-16873031D02*
X5829705Y-16892079D01*
X5829705Y-16892079D02*
X5839229Y-16930174D01*
X5839229Y-16930174D02*
X5839229Y-16977793D01*
X5839229Y-16977793D02*
X5829705Y-17015889D01*
X5829705Y-17015889D02*
X5820182Y-17034936D01*
X5820182Y-17034936D02*
X5810658Y-17044460D01*
X5810658Y-17044460D02*
X5791610Y-17053984D01*
X5791610Y-17053984D02*
X5772562Y-17053984D01*
X5772562Y-17053984D02*
X5753515Y-17044460D01*
X5753515Y-17044460D02*
X5743991Y-17034936D01*
X5743991Y-17034936D02*
X5734467Y-17015889D01*
X5734467Y-17015889D02*
X5724943Y-16977793D01*
X5724943Y-16977793D02*
X5724943Y-16930174D01*
X5724943Y-16930174D02*
X5734467Y-16892079D01*
X5734467Y-16892079D02*
X5743991Y-16873031D01*
X5743991Y-16873031D02*
X5753515Y-16863508D01*
X5753515Y-16863508D02*
X5772562Y-16853984D01*
X5963039Y-16853984D02*
X5982086Y-16853984D01*
X5982086Y-16853984D02*
X6001134Y-16863508D01*
X6001134Y-16863508D02*
X6010658Y-16873031D01*
X6010658Y-16873031D02*
X6020182Y-16892079D01*
X6020182Y-16892079D02*
X6029705Y-16930174D01*
X6029705Y-16930174D02*
X6029705Y-16977793D01*
X6029705Y-16977793D02*
X6020182Y-17015889D01*
X6020182Y-17015889D02*
X6010658Y-17034936D01*
X6010658Y-17034936D02*
X6001134Y-17044460D01*
X6001134Y-17044460D02*
X5982086Y-17053984D01*
X5982086Y-17053984D02*
X5963039Y-17053984D01*
X5963039Y-17053984D02*
X5943991Y-17044460D01*
X5943991Y-17044460D02*
X5934467Y-17034936D01*
X5934467Y-17034936D02*
X5924943Y-17015889D01*
X5924943Y-17015889D02*
X5915420Y-16977793D01*
X5915420Y-16977793D02*
X5915420Y-16930174D01*
X5915420Y-16930174D02*
X5924943Y-16892079D01*
X5924943Y-16892079D02*
X5934467Y-16873031D01*
X5934467Y-16873031D02*
X5943991Y-16863508D01*
X5943991Y-16863508D02*
X5963039Y-16853984D01*
X6115420Y-17053984D02*
X6115420Y-16920650D01*
X6115420Y-16939698D02*
X6124943Y-16930174D01*
X6124943Y-16930174D02*
X6143991Y-16920650D01*
X6143991Y-16920650D02*
X6172563Y-16920650D01*
X6172563Y-16920650D02*
X6191610Y-16930174D01*
X6191610Y-16930174D02*
X6201134Y-16949222D01*
X6201134Y-16949222D02*
X6201134Y-17053984D01*
X6201134Y-16949222D02*
X6210658Y-16930174D01*
X6210658Y-16930174D02*
X6229705Y-16920650D01*
X6229705Y-16920650D02*
X6258277Y-16920650D01*
X6258277Y-16920650D02*
X6277324Y-16930174D01*
X6277324Y-16930174D02*
X6286848Y-16949222D01*
X6286848Y-16949222D02*
X6286848Y-17053984D01*
X6382086Y-17053984D02*
X6382086Y-16920650D01*
X6382086Y-16939698D02*
X6391610Y-16930174D01*
X6391610Y-16930174D02*
X6410658Y-16920650D01*
X6410658Y-16920650D02*
X6439229Y-16920650D01*
X6439229Y-16920650D02*
X6458277Y-16930174D01*
X6458277Y-16930174D02*
X6467801Y-16949222D01*
X6467801Y-16949222D02*
X6467801Y-17053984D01*
X6467801Y-16949222D02*
X6477324Y-16930174D01*
X6477324Y-16930174D02*
X6496372Y-16920650D01*
X6496372Y-16920650D02*
X6524943Y-16920650D01*
X6524943Y-16920650D02*
X6543991Y-16930174D01*
X6543991Y-16930174D02*
X6553515Y-16949222D01*
X6553515Y-16949222D02*
X6553515Y-17053984D01*
X6943991Y-16844460D02*
X6772563Y-17101603D01*
X7201134Y-16853984D02*
X7220182Y-16853984D01*
X7220182Y-16853984D02*
X7239229Y-16863508D01*
X7239229Y-16863508D02*
X7248753Y-16873031D01*
X7248753Y-16873031D02*
X7258277Y-16892079D01*
X7258277Y-16892079D02*
X7267801Y-16930174D01*
X7267801Y-16930174D02*
X7267801Y-16977793D01*
X7267801Y-16977793D02*
X7258277Y-17015889D01*
X7258277Y-17015889D02*
X7248753Y-17034936D01*
X7248753Y-17034936D02*
X7239229Y-17044460D01*
X7239229Y-17044460D02*
X7220182Y-17053984D01*
X7220182Y-17053984D02*
X7201134Y-17053984D01*
X7201134Y-17053984D02*
X7182086Y-17044460D01*
X7182086Y-17044460D02*
X7172563Y-17034936D01*
X7172563Y-17034936D02*
X7163039Y-17015889D01*
X7163039Y-17015889D02*
X7153515Y-16977793D01*
X7153515Y-16977793D02*
X7153515Y-16930174D01*
X7153515Y-16930174D02*
X7163039Y-16892079D01*
X7163039Y-16892079D02*
X7172563Y-16873031D01*
X7172563Y-16873031D02*
X7182086Y-16863508D01*
X7182086Y-16863508D02*
X7201134Y-16853984D01*
X7353515Y-17034936D02*
X7363039Y-17044460D01*
X7363039Y-17044460D02*
X7353515Y-17053984D01*
X7353515Y-17053984D02*
X7343991Y-17044460D01*
X7343991Y-17044460D02*
X7353515Y-17034936D01*
X7353515Y-17034936D02*
X7353515Y-17053984D01*
X7486848Y-16853984D02*
X7505896Y-16853984D01*
X7505896Y-16853984D02*
X7524944Y-16863508D01*
X7524944Y-16863508D02*
X7534467Y-16873031D01*
X7534467Y-16873031D02*
X7543991Y-16892079D01*
X7543991Y-16892079D02*
X7553515Y-16930174D01*
X7553515Y-16930174D02*
X7553515Y-16977793D01*
X7553515Y-16977793D02*
X7543991Y-17015889D01*
X7543991Y-17015889D02*
X7534467Y-17034936D01*
X7534467Y-17034936D02*
X7524944Y-17044460D01*
X7524944Y-17044460D02*
X7505896Y-17053984D01*
X7505896Y-17053984D02*
X7486848Y-17053984D01*
X7486848Y-17053984D02*
X7467801Y-17044460D01*
X7467801Y-17044460D02*
X7458277Y-17034936D01*
X7458277Y-17034936D02*
X7448753Y-17015889D01*
X7448753Y-17015889D02*
X7439229Y-16977793D01*
X7439229Y-16977793D02*
X7439229Y-16930174D01*
X7439229Y-16930174D02*
X7448753Y-16892079D01*
X7448753Y-16892079D02*
X7458277Y-16873031D01*
X7458277Y-16873031D02*
X7467801Y-16863508D01*
X7467801Y-16863508D02*
X7486848Y-16853984D01*
X7620182Y-16853984D02*
X7743991Y-16853984D01*
X7743991Y-16853984D02*
X7677325Y-16930174D01*
X7677325Y-16930174D02*
X7705896Y-16930174D01*
X7705896Y-16930174D02*
X7724944Y-16939698D01*
X7724944Y-16939698D02*
X7734467Y-16949222D01*
X7734467Y-16949222D02*
X7743991Y-16968270D01*
X7743991Y-16968270D02*
X7743991Y-17015889D01*
X7743991Y-17015889D02*
X7734467Y-17034936D01*
X7734467Y-17034936D02*
X7724944Y-17044460D01*
X7724944Y-17044460D02*
X7705896Y-17053984D01*
X7705896Y-17053984D02*
X7648753Y-17053984D01*
X7648753Y-17053984D02*
X7629706Y-17044460D01*
X7629706Y-17044460D02*
X7620182Y-17034936D01*
X7924944Y-16853984D02*
X7829706Y-16853984D01*
X7829706Y-16853984D02*
X7820182Y-16949222D01*
X7820182Y-16949222D02*
X7829706Y-16939698D01*
X7829706Y-16939698D02*
X7848753Y-16930174D01*
X7848753Y-16930174D02*
X7896372Y-16930174D01*
X7896372Y-16930174D02*
X7915420Y-16939698D01*
X7915420Y-16939698D02*
X7924944Y-16949222D01*
X7924944Y-16949222D02*
X7934467Y-16968270D01*
X7934467Y-16968270D02*
X7934467Y-17015889D01*
X7934467Y-17015889D02*
X7924944Y-17034936D01*
X7924944Y-17034936D02*
X7915420Y-17044460D01*
X7915420Y-17044460D02*
X7896372Y-17053984D01*
X7896372Y-17053984D02*
X7848753Y-17053984D01*
X7848753Y-17053984D02*
X7829706Y-17044460D01*
X7829706Y-17044460D02*
X7820182Y-17034936D01*
X8105896Y-16920650D02*
X8105896Y-17053984D01*
X8058277Y-16844460D02*
X8010658Y-16987317D01*
X8010658Y-16987317D02*
X8134467Y-16987317D01*
X8201134Y-16853984D02*
X8201134Y-16892079D01*
X8277325Y-16853984D02*
X8277325Y-16892079D01*
X8572563Y-17130174D02*
X8563039Y-17120650D01*
X8563039Y-17120650D02*
X8543991Y-17092079D01*
X8543991Y-17092079D02*
X8534468Y-17073031D01*
X8534468Y-17073031D02*
X8524944Y-17044460D01*
X8524944Y-17044460D02*
X8515420Y-16996841D01*
X8515420Y-16996841D02*
X8515420Y-16958746D01*
X8515420Y-16958746D02*
X8524944Y-16911127D01*
X8524944Y-16911127D02*
X8534468Y-16882555D01*
X8534468Y-16882555D02*
X8543991Y-16863508D01*
X8543991Y-16863508D02*
X8563039Y-16834936D01*
X8563039Y-16834936D02*
X8572563Y-16825412D01*
X8639230Y-16873031D02*
X8648753Y-16863508D01*
X8648753Y-16863508D02*
X8667801Y-16853984D01*
X8667801Y-16853984D02*
X8715420Y-16853984D01*
X8715420Y-16853984D02*
X8734468Y-16863508D01*
X8734468Y-16863508D02*
X8743991Y-16873031D01*
X8743991Y-16873031D02*
X8753515Y-16892079D01*
X8753515Y-16892079D02*
X8753515Y-16911127D01*
X8753515Y-16911127D02*
X8743991Y-16939698D01*
X8743991Y-16939698D02*
X8629706Y-17053984D01*
X8629706Y-17053984D02*
X8753515Y-17053984D01*
X8991611Y-17053984D02*
X8991611Y-16853984D01*
X9077325Y-17053984D02*
X9077325Y-16949222D01*
X9077325Y-16949222D02*
X9067801Y-16930174D01*
X9067801Y-16930174D02*
X9048753Y-16920650D01*
X9048753Y-16920650D02*
X9020182Y-16920650D01*
X9020182Y-16920650D02*
X9001134Y-16930174D01*
X9001134Y-16930174D02*
X8991611Y-16939698D01*
X9201134Y-17053984D02*
X9182087Y-17044460D01*
X9182087Y-17044460D02*
X9172563Y-17034936D01*
X9172563Y-17034936D02*
X9163039Y-17015889D01*
X9163039Y-17015889D02*
X9163039Y-16958746D01*
X9163039Y-16958746D02*
X9172563Y-16939698D01*
X9172563Y-16939698D02*
X9182087Y-16930174D01*
X9182087Y-16930174D02*
X9201134Y-16920650D01*
X9201134Y-16920650D02*
X9229706Y-16920650D01*
X9229706Y-16920650D02*
X9248753Y-16930174D01*
X9248753Y-16930174D02*
X9258277Y-16939698D01*
X9258277Y-16939698D02*
X9267801Y-16958746D01*
X9267801Y-16958746D02*
X9267801Y-17015889D01*
X9267801Y-17015889D02*
X9258277Y-17034936D01*
X9258277Y-17034936D02*
X9248753Y-17044460D01*
X9248753Y-17044460D02*
X9229706Y-17053984D01*
X9229706Y-17053984D02*
X9201134Y-17053984D01*
X9382087Y-17053984D02*
X9363039Y-17044460D01*
X9363039Y-17044460D02*
X9353515Y-17025412D01*
X9353515Y-17025412D02*
X9353515Y-16853984D01*
X9534468Y-17044460D02*
X9515420Y-17053984D01*
X9515420Y-17053984D02*
X9477325Y-17053984D01*
X9477325Y-17053984D02*
X9458277Y-17044460D01*
X9458277Y-17044460D02*
X9448753Y-17025412D01*
X9448753Y-17025412D02*
X9448753Y-16949222D01*
X9448753Y-16949222D02*
X9458277Y-16930174D01*
X9458277Y-16930174D02*
X9477325Y-16920650D01*
X9477325Y-16920650D02*
X9515420Y-16920650D01*
X9515420Y-16920650D02*
X9534468Y-16930174D01*
X9534468Y-16930174D02*
X9543992Y-16949222D01*
X9543992Y-16949222D02*
X9543992Y-16968270D01*
X9543992Y-16968270D02*
X9448753Y-16987317D01*
X9620182Y-17044460D02*
X9639230Y-17053984D01*
X9639230Y-17053984D02*
X9677325Y-17053984D01*
X9677325Y-17053984D02*
X9696373Y-17044460D01*
X9696373Y-17044460D02*
X9705896Y-17025412D01*
X9705896Y-17025412D02*
X9705896Y-17015889D01*
X9705896Y-17015889D02*
X9696373Y-16996841D01*
X9696373Y-16996841D02*
X9677325Y-16987317D01*
X9677325Y-16987317D02*
X9648753Y-16987317D01*
X9648753Y-16987317D02*
X9629706Y-16977793D01*
X9629706Y-16977793D02*
X9620182Y-16958746D01*
X9620182Y-16958746D02*
X9620182Y-16949222D01*
X9620182Y-16949222D02*
X9629706Y-16930174D01*
X9629706Y-16930174D02*
X9648753Y-16920650D01*
X9648753Y-16920650D02*
X9677325Y-16920650D01*
X9677325Y-16920650D02*
X9696373Y-16930174D01*
X9772563Y-17130174D02*
X9782087Y-17120650D01*
X9782087Y-17120650D02*
X9801134Y-17092079D01*
X9801134Y-17092079D02*
X9810658Y-17073031D01*
X9810658Y-17073031D02*
X9820182Y-17044460D01*
X9820182Y-17044460D02*
X9829706Y-16996841D01*
X9829706Y-16996841D02*
X9829706Y-16958746D01*
X9829706Y-16958746D02*
X9820182Y-16911127D01*
X9820182Y-16911127D02*
X9810658Y-16882555D01*
X9810658Y-16882555D02*
X9801134Y-16863508D01*
X9801134Y-16863508D02*
X9782087Y-16834936D01*
X9782087Y-16834936D02*
X9772563Y-16825412D01*
D12*
X4897500Y-17176500D02*
X4997500Y-17276500D01*
X4997500Y-17176500D02*
X4897500Y-17276500D01*
X4947500Y-17176500D02*
X4947500Y-17276500D01*
X4897500Y-17226500D02*
X4997500Y-17226500D01*
D11*
X5363039Y-17317984D02*
X5248753Y-17317984D01*
X5305896Y-17317984D02*
X5305896Y-17117984D01*
X5305896Y-17117984D02*
X5286848Y-17146555D01*
X5286848Y-17146555D02*
X5267801Y-17165603D01*
X5267801Y-17165603D02*
X5248753Y-17175127D01*
X5448753Y-17298936D02*
X5458277Y-17308460D01*
X5458277Y-17308460D02*
X5448753Y-17317984D01*
X5448753Y-17317984D02*
X5439229Y-17308460D01*
X5439229Y-17308460D02*
X5448753Y-17298936D01*
X5448753Y-17298936D02*
X5448753Y-17317984D01*
X5582086Y-17117984D02*
X5601134Y-17117984D01*
X5601134Y-17117984D02*
X5620182Y-17127508D01*
X5620182Y-17127508D02*
X5629705Y-17137031D01*
X5629705Y-17137031D02*
X5639229Y-17156079D01*
X5639229Y-17156079D02*
X5648753Y-17194174D01*
X5648753Y-17194174D02*
X5648753Y-17241793D01*
X5648753Y-17241793D02*
X5639229Y-17279889D01*
X5639229Y-17279889D02*
X5629705Y-17298936D01*
X5629705Y-17298936D02*
X5620182Y-17308460D01*
X5620182Y-17308460D02*
X5601134Y-17317984D01*
X5601134Y-17317984D02*
X5582086Y-17317984D01*
X5582086Y-17317984D02*
X5563039Y-17308460D01*
X5563039Y-17308460D02*
X5553515Y-17298936D01*
X5553515Y-17298936D02*
X5543991Y-17279889D01*
X5543991Y-17279889D02*
X5534467Y-17241793D01*
X5534467Y-17241793D02*
X5534467Y-17194174D01*
X5534467Y-17194174D02*
X5543991Y-17156079D01*
X5543991Y-17156079D02*
X5553515Y-17137031D01*
X5553515Y-17137031D02*
X5563039Y-17127508D01*
X5563039Y-17127508D02*
X5582086Y-17117984D01*
X5772562Y-17117984D02*
X5791610Y-17117984D01*
X5791610Y-17117984D02*
X5810658Y-17127508D01*
X5810658Y-17127508D02*
X5820182Y-17137031D01*
X5820182Y-17137031D02*
X5829705Y-17156079D01*
X5829705Y-17156079D02*
X5839229Y-17194174D01*
X5839229Y-17194174D02*
X5839229Y-17241793D01*
X5839229Y-17241793D02*
X5829705Y-17279889D01*
X5829705Y-17279889D02*
X5820182Y-17298936D01*
X5820182Y-17298936D02*
X5810658Y-17308460D01*
X5810658Y-17308460D02*
X5791610Y-17317984D01*
X5791610Y-17317984D02*
X5772562Y-17317984D01*
X5772562Y-17317984D02*
X5753515Y-17308460D01*
X5753515Y-17308460D02*
X5743991Y-17298936D01*
X5743991Y-17298936D02*
X5734467Y-17279889D01*
X5734467Y-17279889D02*
X5724943Y-17241793D01*
X5724943Y-17241793D02*
X5724943Y-17194174D01*
X5724943Y-17194174D02*
X5734467Y-17156079D01*
X5734467Y-17156079D02*
X5743991Y-17137031D01*
X5743991Y-17137031D02*
X5753515Y-17127508D01*
X5753515Y-17127508D02*
X5772562Y-17117984D01*
X5963039Y-17117984D02*
X5982086Y-17117984D01*
X5982086Y-17117984D02*
X6001134Y-17127508D01*
X6001134Y-17127508D02*
X6010658Y-17137031D01*
X6010658Y-17137031D02*
X6020182Y-17156079D01*
X6020182Y-17156079D02*
X6029705Y-17194174D01*
X6029705Y-17194174D02*
X6029705Y-17241793D01*
X6029705Y-17241793D02*
X6020182Y-17279889D01*
X6020182Y-17279889D02*
X6010658Y-17298936D01*
X6010658Y-17298936D02*
X6001134Y-17308460D01*
X6001134Y-17308460D02*
X5982086Y-17317984D01*
X5982086Y-17317984D02*
X5963039Y-17317984D01*
X5963039Y-17317984D02*
X5943991Y-17308460D01*
X5943991Y-17308460D02*
X5934467Y-17298936D01*
X5934467Y-17298936D02*
X5924943Y-17279889D01*
X5924943Y-17279889D02*
X5915420Y-17241793D01*
X5915420Y-17241793D02*
X5915420Y-17194174D01*
X5915420Y-17194174D02*
X5924943Y-17156079D01*
X5924943Y-17156079D02*
X5934467Y-17137031D01*
X5934467Y-17137031D02*
X5943991Y-17127508D01*
X5943991Y-17127508D02*
X5963039Y-17117984D01*
X6115420Y-17317984D02*
X6115420Y-17184650D01*
X6115420Y-17203698D02*
X6124943Y-17194174D01*
X6124943Y-17194174D02*
X6143991Y-17184650D01*
X6143991Y-17184650D02*
X6172563Y-17184650D01*
X6172563Y-17184650D02*
X6191610Y-17194174D01*
X6191610Y-17194174D02*
X6201134Y-17213222D01*
X6201134Y-17213222D02*
X6201134Y-17317984D01*
X6201134Y-17213222D02*
X6210658Y-17194174D01*
X6210658Y-17194174D02*
X6229705Y-17184650D01*
X6229705Y-17184650D02*
X6258277Y-17184650D01*
X6258277Y-17184650D02*
X6277324Y-17194174D01*
X6277324Y-17194174D02*
X6286848Y-17213222D01*
X6286848Y-17213222D02*
X6286848Y-17317984D01*
X6382086Y-17317984D02*
X6382086Y-17184650D01*
X6382086Y-17203698D02*
X6391610Y-17194174D01*
X6391610Y-17194174D02*
X6410658Y-17184650D01*
X6410658Y-17184650D02*
X6439229Y-17184650D01*
X6439229Y-17184650D02*
X6458277Y-17194174D01*
X6458277Y-17194174D02*
X6467801Y-17213222D01*
X6467801Y-17213222D02*
X6467801Y-17317984D01*
X6467801Y-17213222D02*
X6477324Y-17194174D01*
X6477324Y-17194174D02*
X6496372Y-17184650D01*
X6496372Y-17184650D02*
X6524943Y-17184650D01*
X6524943Y-17184650D02*
X6543991Y-17194174D01*
X6543991Y-17194174D02*
X6553515Y-17213222D01*
X6553515Y-17213222D02*
X6553515Y-17317984D01*
X6943991Y-17108460D02*
X6772563Y-17365603D01*
X7201134Y-17117984D02*
X7220182Y-17117984D01*
X7220182Y-17117984D02*
X7239229Y-17127508D01*
X7239229Y-17127508D02*
X7248753Y-17137031D01*
X7248753Y-17137031D02*
X7258277Y-17156079D01*
X7258277Y-17156079D02*
X7267801Y-17194174D01*
X7267801Y-17194174D02*
X7267801Y-17241793D01*
X7267801Y-17241793D02*
X7258277Y-17279889D01*
X7258277Y-17279889D02*
X7248753Y-17298936D01*
X7248753Y-17298936D02*
X7239229Y-17308460D01*
X7239229Y-17308460D02*
X7220182Y-17317984D01*
X7220182Y-17317984D02*
X7201134Y-17317984D01*
X7201134Y-17317984D02*
X7182086Y-17308460D01*
X7182086Y-17308460D02*
X7172563Y-17298936D01*
X7172563Y-17298936D02*
X7163039Y-17279889D01*
X7163039Y-17279889D02*
X7153515Y-17241793D01*
X7153515Y-17241793D02*
X7153515Y-17194174D01*
X7153515Y-17194174D02*
X7163039Y-17156079D01*
X7163039Y-17156079D02*
X7172563Y-17137031D01*
X7172563Y-17137031D02*
X7182086Y-17127508D01*
X7182086Y-17127508D02*
X7201134Y-17117984D01*
X7353515Y-17298936D02*
X7363039Y-17308460D01*
X7363039Y-17308460D02*
X7353515Y-17317984D01*
X7353515Y-17317984D02*
X7343991Y-17308460D01*
X7343991Y-17308460D02*
X7353515Y-17298936D01*
X7353515Y-17298936D02*
X7353515Y-17317984D01*
X7486848Y-17117984D02*
X7505896Y-17117984D01*
X7505896Y-17117984D02*
X7524944Y-17127508D01*
X7524944Y-17127508D02*
X7534467Y-17137031D01*
X7534467Y-17137031D02*
X7543991Y-17156079D01*
X7543991Y-17156079D02*
X7553515Y-17194174D01*
X7553515Y-17194174D02*
X7553515Y-17241793D01*
X7553515Y-17241793D02*
X7543991Y-17279889D01*
X7543991Y-17279889D02*
X7534467Y-17298936D01*
X7534467Y-17298936D02*
X7524944Y-17308460D01*
X7524944Y-17308460D02*
X7505896Y-17317984D01*
X7505896Y-17317984D02*
X7486848Y-17317984D01*
X7486848Y-17317984D02*
X7467801Y-17308460D01*
X7467801Y-17308460D02*
X7458277Y-17298936D01*
X7458277Y-17298936D02*
X7448753Y-17279889D01*
X7448753Y-17279889D02*
X7439229Y-17241793D01*
X7439229Y-17241793D02*
X7439229Y-17194174D01*
X7439229Y-17194174D02*
X7448753Y-17156079D01*
X7448753Y-17156079D02*
X7458277Y-17137031D01*
X7458277Y-17137031D02*
X7467801Y-17127508D01*
X7467801Y-17127508D02*
X7486848Y-17117984D01*
X7620182Y-17117984D02*
X7743991Y-17117984D01*
X7743991Y-17117984D02*
X7677325Y-17194174D01*
X7677325Y-17194174D02*
X7705896Y-17194174D01*
X7705896Y-17194174D02*
X7724944Y-17203698D01*
X7724944Y-17203698D02*
X7734467Y-17213222D01*
X7734467Y-17213222D02*
X7743991Y-17232270D01*
X7743991Y-17232270D02*
X7743991Y-17279889D01*
X7743991Y-17279889D02*
X7734467Y-17298936D01*
X7734467Y-17298936D02*
X7724944Y-17308460D01*
X7724944Y-17308460D02*
X7705896Y-17317984D01*
X7705896Y-17317984D02*
X7648753Y-17317984D01*
X7648753Y-17317984D02*
X7629706Y-17308460D01*
X7629706Y-17308460D02*
X7620182Y-17298936D01*
X7839229Y-17317984D02*
X7877325Y-17317984D01*
X7877325Y-17317984D02*
X7896372Y-17308460D01*
X7896372Y-17308460D02*
X7905896Y-17298936D01*
X7905896Y-17298936D02*
X7924944Y-17270365D01*
X7924944Y-17270365D02*
X7934467Y-17232270D01*
X7934467Y-17232270D02*
X7934467Y-17156079D01*
X7934467Y-17156079D02*
X7924944Y-17137031D01*
X7924944Y-17137031D02*
X7915420Y-17127508D01*
X7915420Y-17127508D02*
X7896372Y-17117984D01*
X7896372Y-17117984D02*
X7858277Y-17117984D01*
X7858277Y-17117984D02*
X7839229Y-17127508D01*
X7839229Y-17127508D02*
X7829706Y-17137031D01*
X7829706Y-17137031D02*
X7820182Y-17156079D01*
X7820182Y-17156079D02*
X7820182Y-17203698D01*
X7820182Y-17203698D02*
X7829706Y-17222746D01*
X7829706Y-17222746D02*
X7839229Y-17232270D01*
X7839229Y-17232270D02*
X7858277Y-17241793D01*
X7858277Y-17241793D02*
X7896372Y-17241793D01*
X7896372Y-17241793D02*
X7915420Y-17232270D01*
X7915420Y-17232270D02*
X7924944Y-17222746D01*
X7924944Y-17222746D02*
X7934467Y-17203698D01*
X8105896Y-17184650D02*
X8105896Y-17317984D01*
X8058277Y-17108460D02*
X8010658Y-17251317D01*
X8010658Y-17251317D02*
X8134467Y-17251317D01*
X8201134Y-17117984D02*
X8201134Y-17156079D01*
X8277325Y-17117984D02*
X8277325Y-17156079D01*
X8572563Y-17394174D02*
X8563039Y-17384650D01*
X8563039Y-17384650D02*
X8543991Y-17356079D01*
X8543991Y-17356079D02*
X8534468Y-17337031D01*
X8534468Y-17337031D02*
X8524944Y-17308460D01*
X8524944Y-17308460D02*
X8515420Y-17260841D01*
X8515420Y-17260841D02*
X8515420Y-17222746D01*
X8515420Y-17222746D02*
X8524944Y-17175127D01*
X8524944Y-17175127D02*
X8534468Y-17146555D01*
X8534468Y-17146555D02*
X8543991Y-17127508D01*
X8543991Y-17127508D02*
X8563039Y-17098936D01*
X8563039Y-17098936D02*
X8572563Y-17089412D01*
X8629706Y-17117984D02*
X8753515Y-17117984D01*
X8753515Y-17117984D02*
X8686849Y-17194174D01*
X8686849Y-17194174D02*
X8715420Y-17194174D01*
X8715420Y-17194174D02*
X8734468Y-17203698D01*
X8734468Y-17203698D02*
X8743991Y-17213222D01*
X8743991Y-17213222D02*
X8753515Y-17232270D01*
X8753515Y-17232270D02*
X8753515Y-17279889D01*
X8753515Y-17279889D02*
X8743991Y-17298936D01*
X8743991Y-17298936D02*
X8734468Y-17308460D01*
X8734468Y-17308460D02*
X8715420Y-17317984D01*
X8715420Y-17317984D02*
X8658277Y-17317984D01*
X8658277Y-17317984D02*
X8639230Y-17308460D01*
X8639230Y-17308460D02*
X8629706Y-17298936D01*
X8991611Y-17317984D02*
X8991611Y-17117984D01*
X9077325Y-17317984D02*
X9077325Y-17213222D01*
X9077325Y-17213222D02*
X9067801Y-17194174D01*
X9067801Y-17194174D02*
X9048753Y-17184650D01*
X9048753Y-17184650D02*
X9020182Y-17184650D01*
X9020182Y-17184650D02*
X9001134Y-17194174D01*
X9001134Y-17194174D02*
X8991611Y-17203698D01*
X9201134Y-17317984D02*
X9182087Y-17308460D01*
X9182087Y-17308460D02*
X9172563Y-17298936D01*
X9172563Y-17298936D02*
X9163039Y-17279889D01*
X9163039Y-17279889D02*
X9163039Y-17222746D01*
X9163039Y-17222746D02*
X9172563Y-17203698D01*
X9172563Y-17203698D02*
X9182087Y-17194174D01*
X9182087Y-17194174D02*
X9201134Y-17184650D01*
X9201134Y-17184650D02*
X9229706Y-17184650D01*
X9229706Y-17184650D02*
X9248753Y-17194174D01*
X9248753Y-17194174D02*
X9258277Y-17203698D01*
X9258277Y-17203698D02*
X9267801Y-17222746D01*
X9267801Y-17222746D02*
X9267801Y-17279889D01*
X9267801Y-17279889D02*
X9258277Y-17298936D01*
X9258277Y-17298936D02*
X9248753Y-17308460D01*
X9248753Y-17308460D02*
X9229706Y-17317984D01*
X9229706Y-17317984D02*
X9201134Y-17317984D01*
X9382087Y-17317984D02*
X9363039Y-17308460D01*
X9363039Y-17308460D02*
X9353515Y-17289412D01*
X9353515Y-17289412D02*
X9353515Y-17117984D01*
X9534468Y-17308460D02*
X9515420Y-17317984D01*
X9515420Y-17317984D02*
X9477325Y-17317984D01*
X9477325Y-17317984D02*
X9458277Y-17308460D01*
X9458277Y-17308460D02*
X9448753Y-17289412D01*
X9448753Y-17289412D02*
X9448753Y-17213222D01*
X9448753Y-17213222D02*
X9458277Y-17194174D01*
X9458277Y-17194174D02*
X9477325Y-17184650D01*
X9477325Y-17184650D02*
X9515420Y-17184650D01*
X9515420Y-17184650D02*
X9534468Y-17194174D01*
X9534468Y-17194174D02*
X9543992Y-17213222D01*
X9543992Y-17213222D02*
X9543992Y-17232270D01*
X9543992Y-17232270D02*
X9448753Y-17251317D01*
X9620182Y-17308460D02*
X9639230Y-17317984D01*
X9639230Y-17317984D02*
X9677325Y-17317984D01*
X9677325Y-17317984D02*
X9696373Y-17308460D01*
X9696373Y-17308460D02*
X9705896Y-17289412D01*
X9705896Y-17289412D02*
X9705896Y-17279889D01*
X9705896Y-17279889D02*
X9696373Y-17260841D01*
X9696373Y-17260841D02*
X9677325Y-17251317D01*
X9677325Y-17251317D02*
X9648753Y-17251317D01*
X9648753Y-17251317D02*
X9629706Y-17241793D01*
X9629706Y-17241793D02*
X9620182Y-17222746D01*
X9620182Y-17222746D02*
X9620182Y-17213222D01*
X9620182Y-17213222D02*
X9629706Y-17194174D01*
X9629706Y-17194174D02*
X9648753Y-17184650D01*
X9648753Y-17184650D02*
X9677325Y-17184650D01*
X9677325Y-17184650D02*
X9696373Y-17194174D01*
X9772563Y-17394174D02*
X9782087Y-17384650D01*
X9782087Y-17384650D02*
X9801134Y-17356079D01*
X9801134Y-17356079D02*
X9810658Y-17337031D01*
X9810658Y-17337031D02*
X9820182Y-17308460D01*
X9820182Y-17308460D02*
X9829706Y-17260841D01*
X9829706Y-17260841D02*
X9829706Y-17222746D01*
X9829706Y-17222746D02*
X9820182Y-17175127D01*
X9820182Y-17175127D02*
X9810658Y-17146555D01*
X9810658Y-17146555D02*
X9801134Y-17127508D01*
X9801134Y-17127508D02*
X9782087Y-17098936D01*
X9782087Y-17098936D02*
X9772563Y-17089412D01*
D13*
X4887500Y-17435500D02*
X4997500Y-17545500D01*
X4997500Y-17435500D02*
X4887500Y-17545500D01*
X4981391Y-17529391D02*
X4981391Y-17451609D01*
X4903609Y-17451609D01*
X4903609Y-17529391D01*
X4981391Y-17529391D01*
D11*
X5363039Y-17581984D02*
X5248753Y-17581984D01*
X5305896Y-17581984D02*
X5305896Y-17381984D01*
X5305896Y-17381984D02*
X5286848Y-17410555D01*
X5286848Y-17410555D02*
X5267801Y-17429603D01*
X5267801Y-17429603D02*
X5248753Y-17439127D01*
X5448753Y-17562936D02*
X5458277Y-17572460D01*
X5458277Y-17572460D02*
X5448753Y-17581984D01*
X5448753Y-17581984D02*
X5439229Y-17572460D01*
X5439229Y-17572460D02*
X5448753Y-17562936D01*
X5448753Y-17562936D02*
X5448753Y-17581984D01*
X5648753Y-17581984D02*
X5534467Y-17581984D01*
X5591610Y-17581984D02*
X5591610Y-17381984D01*
X5591610Y-17381984D02*
X5572563Y-17410555D01*
X5572563Y-17410555D02*
X5553515Y-17429603D01*
X5553515Y-17429603D02*
X5534467Y-17439127D01*
X5772562Y-17381984D02*
X5791610Y-17381984D01*
X5791610Y-17381984D02*
X5810658Y-17391508D01*
X5810658Y-17391508D02*
X5820182Y-17401031D01*
X5820182Y-17401031D02*
X5829705Y-17420079D01*
X5829705Y-17420079D02*
X5839229Y-17458174D01*
X5839229Y-17458174D02*
X5839229Y-17505793D01*
X5839229Y-17505793D02*
X5829705Y-17543889D01*
X5829705Y-17543889D02*
X5820182Y-17562936D01*
X5820182Y-17562936D02*
X5810658Y-17572460D01*
X5810658Y-17572460D02*
X5791610Y-17581984D01*
X5791610Y-17581984D02*
X5772562Y-17581984D01*
X5772562Y-17581984D02*
X5753515Y-17572460D01*
X5753515Y-17572460D02*
X5743991Y-17562936D01*
X5743991Y-17562936D02*
X5734467Y-17543889D01*
X5734467Y-17543889D02*
X5724943Y-17505793D01*
X5724943Y-17505793D02*
X5724943Y-17458174D01*
X5724943Y-17458174D02*
X5734467Y-17420079D01*
X5734467Y-17420079D02*
X5743991Y-17401031D01*
X5743991Y-17401031D02*
X5753515Y-17391508D01*
X5753515Y-17391508D02*
X5772562Y-17381984D01*
X5963039Y-17381984D02*
X5982086Y-17381984D01*
X5982086Y-17381984D02*
X6001134Y-17391508D01*
X6001134Y-17391508D02*
X6010658Y-17401031D01*
X6010658Y-17401031D02*
X6020182Y-17420079D01*
X6020182Y-17420079D02*
X6029705Y-17458174D01*
X6029705Y-17458174D02*
X6029705Y-17505793D01*
X6029705Y-17505793D02*
X6020182Y-17543889D01*
X6020182Y-17543889D02*
X6010658Y-17562936D01*
X6010658Y-17562936D02*
X6001134Y-17572460D01*
X6001134Y-17572460D02*
X5982086Y-17581984D01*
X5982086Y-17581984D02*
X5963039Y-17581984D01*
X5963039Y-17581984D02*
X5943991Y-17572460D01*
X5943991Y-17572460D02*
X5934467Y-17562936D01*
X5934467Y-17562936D02*
X5924943Y-17543889D01*
X5924943Y-17543889D02*
X5915420Y-17505793D01*
X5915420Y-17505793D02*
X5915420Y-17458174D01*
X5915420Y-17458174D02*
X5924943Y-17420079D01*
X5924943Y-17420079D02*
X5934467Y-17401031D01*
X5934467Y-17401031D02*
X5943991Y-17391508D01*
X5943991Y-17391508D02*
X5963039Y-17381984D01*
X6115420Y-17581984D02*
X6115420Y-17448650D01*
X6115420Y-17467698D02*
X6124943Y-17458174D01*
X6124943Y-17458174D02*
X6143991Y-17448650D01*
X6143991Y-17448650D02*
X6172563Y-17448650D01*
X6172563Y-17448650D02*
X6191610Y-17458174D01*
X6191610Y-17458174D02*
X6201134Y-17477222D01*
X6201134Y-17477222D02*
X6201134Y-17581984D01*
X6201134Y-17477222D02*
X6210658Y-17458174D01*
X6210658Y-17458174D02*
X6229705Y-17448650D01*
X6229705Y-17448650D02*
X6258277Y-17448650D01*
X6258277Y-17448650D02*
X6277324Y-17458174D01*
X6277324Y-17458174D02*
X6286848Y-17477222D01*
X6286848Y-17477222D02*
X6286848Y-17581984D01*
X6382086Y-17581984D02*
X6382086Y-17448650D01*
X6382086Y-17467698D02*
X6391610Y-17458174D01*
X6391610Y-17458174D02*
X6410658Y-17448650D01*
X6410658Y-17448650D02*
X6439229Y-17448650D01*
X6439229Y-17448650D02*
X6458277Y-17458174D01*
X6458277Y-17458174D02*
X6467801Y-17477222D01*
X6467801Y-17477222D02*
X6467801Y-17581984D01*
X6467801Y-17477222D02*
X6477324Y-17458174D01*
X6477324Y-17458174D02*
X6496372Y-17448650D01*
X6496372Y-17448650D02*
X6524943Y-17448650D01*
X6524943Y-17448650D02*
X6543991Y-17458174D01*
X6543991Y-17458174D02*
X6553515Y-17477222D01*
X6553515Y-17477222D02*
X6553515Y-17581984D01*
X6943991Y-17372460D02*
X6772563Y-17629603D01*
X7201134Y-17381984D02*
X7220182Y-17381984D01*
X7220182Y-17381984D02*
X7239229Y-17391508D01*
X7239229Y-17391508D02*
X7248753Y-17401031D01*
X7248753Y-17401031D02*
X7258277Y-17420079D01*
X7258277Y-17420079D02*
X7267801Y-17458174D01*
X7267801Y-17458174D02*
X7267801Y-17505793D01*
X7267801Y-17505793D02*
X7258277Y-17543889D01*
X7258277Y-17543889D02*
X7248753Y-17562936D01*
X7248753Y-17562936D02*
X7239229Y-17572460D01*
X7239229Y-17572460D02*
X7220182Y-17581984D01*
X7220182Y-17581984D02*
X7201134Y-17581984D01*
X7201134Y-17581984D02*
X7182086Y-17572460D01*
X7182086Y-17572460D02*
X7172563Y-17562936D01*
X7172563Y-17562936D02*
X7163039Y-17543889D01*
X7163039Y-17543889D02*
X7153515Y-17505793D01*
X7153515Y-17505793D02*
X7153515Y-17458174D01*
X7153515Y-17458174D02*
X7163039Y-17420079D01*
X7163039Y-17420079D02*
X7172563Y-17401031D01*
X7172563Y-17401031D02*
X7182086Y-17391508D01*
X7182086Y-17391508D02*
X7201134Y-17381984D01*
X7353515Y-17562936D02*
X7363039Y-17572460D01*
X7363039Y-17572460D02*
X7353515Y-17581984D01*
X7353515Y-17581984D02*
X7343991Y-17572460D01*
X7343991Y-17572460D02*
X7353515Y-17562936D01*
X7353515Y-17562936D02*
X7353515Y-17581984D01*
X7486848Y-17381984D02*
X7505896Y-17381984D01*
X7505896Y-17381984D02*
X7524944Y-17391508D01*
X7524944Y-17391508D02*
X7534467Y-17401031D01*
X7534467Y-17401031D02*
X7543991Y-17420079D01*
X7543991Y-17420079D02*
X7553515Y-17458174D01*
X7553515Y-17458174D02*
X7553515Y-17505793D01*
X7553515Y-17505793D02*
X7543991Y-17543889D01*
X7543991Y-17543889D02*
X7534467Y-17562936D01*
X7534467Y-17562936D02*
X7524944Y-17572460D01*
X7524944Y-17572460D02*
X7505896Y-17581984D01*
X7505896Y-17581984D02*
X7486848Y-17581984D01*
X7486848Y-17581984D02*
X7467801Y-17572460D01*
X7467801Y-17572460D02*
X7458277Y-17562936D01*
X7458277Y-17562936D02*
X7448753Y-17543889D01*
X7448753Y-17543889D02*
X7439229Y-17505793D01*
X7439229Y-17505793D02*
X7439229Y-17458174D01*
X7439229Y-17458174D02*
X7448753Y-17420079D01*
X7448753Y-17420079D02*
X7458277Y-17401031D01*
X7458277Y-17401031D02*
X7467801Y-17391508D01*
X7467801Y-17391508D02*
X7486848Y-17381984D01*
X7724944Y-17448650D02*
X7724944Y-17581984D01*
X7677325Y-17372460D02*
X7629706Y-17515317D01*
X7629706Y-17515317D02*
X7753515Y-17515317D01*
X7810658Y-17381984D02*
X7934467Y-17381984D01*
X7934467Y-17381984D02*
X7867801Y-17458174D01*
X7867801Y-17458174D02*
X7896372Y-17458174D01*
X7896372Y-17458174D02*
X7915420Y-17467698D01*
X7915420Y-17467698D02*
X7924944Y-17477222D01*
X7924944Y-17477222D02*
X7934467Y-17496270D01*
X7934467Y-17496270D02*
X7934467Y-17543889D01*
X7934467Y-17543889D02*
X7924944Y-17562936D01*
X7924944Y-17562936D02*
X7915420Y-17572460D01*
X7915420Y-17572460D02*
X7896372Y-17581984D01*
X7896372Y-17581984D02*
X7839229Y-17581984D01*
X7839229Y-17581984D02*
X7820182Y-17572460D01*
X7820182Y-17572460D02*
X7810658Y-17562936D01*
X8001134Y-17381984D02*
X8124944Y-17381984D01*
X8124944Y-17381984D02*
X8058277Y-17458174D01*
X8058277Y-17458174D02*
X8086848Y-17458174D01*
X8086848Y-17458174D02*
X8105896Y-17467698D01*
X8105896Y-17467698D02*
X8115420Y-17477222D01*
X8115420Y-17477222D02*
X8124944Y-17496270D01*
X8124944Y-17496270D02*
X8124944Y-17543889D01*
X8124944Y-17543889D02*
X8115420Y-17562936D01*
X8115420Y-17562936D02*
X8105896Y-17572460D01*
X8105896Y-17572460D02*
X8086848Y-17581984D01*
X8086848Y-17581984D02*
X8029706Y-17581984D01*
X8029706Y-17581984D02*
X8010658Y-17572460D01*
X8010658Y-17572460D02*
X8001134Y-17562936D01*
X8201134Y-17381984D02*
X8201134Y-17420079D01*
X8277325Y-17381984D02*
X8277325Y-17420079D01*
X8572563Y-17658174D02*
X8563039Y-17648650D01*
X8563039Y-17648650D02*
X8543991Y-17620079D01*
X8543991Y-17620079D02*
X8534468Y-17601031D01*
X8534468Y-17601031D02*
X8524944Y-17572460D01*
X8524944Y-17572460D02*
X8515420Y-17524841D01*
X8515420Y-17524841D02*
X8515420Y-17486746D01*
X8515420Y-17486746D02*
X8524944Y-17439127D01*
X8524944Y-17439127D02*
X8534468Y-17410555D01*
X8534468Y-17410555D02*
X8543991Y-17391508D01*
X8543991Y-17391508D02*
X8563039Y-17362936D01*
X8563039Y-17362936D02*
X8572563Y-17353412D01*
X8734468Y-17448650D02*
X8734468Y-17581984D01*
X8686849Y-17372460D02*
X8639230Y-17515317D01*
X8639230Y-17515317D02*
X8763039Y-17515317D01*
X8991611Y-17581984D02*
X8991611Y-17381984D01*
X9077325Y-17581984D02*
X9077325Y-17477222D01*
X9077325Y-17477222D02*
X9067801Y-17458174D01*
X9067801Y-17458174D02*
X9048753Y-17448650D01*
X9048753Y-17448650D02*
X9020182Y-17448650D01*
X9020182Y-17448650D02*
X9001134Y-17458174D01*
X9001134Y-17458174D02*
X8991611Y-17467698D01*
X9201134Y-17581984D02*
X9182087Y-17572460D01*
X9182087Y-17572460D02*
X9172563Y-17562936D01*
X9172563Y-17562936D02*
X9163039Y-17543889D01*
X9163039Y-17543889D02*
X9163039Y-17486746D01*
X9163039Y-17486746D02*
X9172563Y-17467698D01*
X9172563Y-17467698D02*
X9182087Y-17458174D01*
X9182087Y-17458174D02*
X9201134Y-17448650D01*
X9201134Y-17448650D02*
X9229706Y-17448650D01*
X9229706Y-17448650D02*
X9248753Y-17458174D01*
X9248753Y-17458174D02*
X9258277Y-17467698D01*
X9258277Y-17467698D02*
X9267801Y-17486746D01*
X9267801Y-17486746D02*
X9267801Y-17543889D01*
X9267801Y-17543889D02*
X9258277Y-17562936D01*
X9258277Y-17562936D02*
X9248753Y-17572460D01*
X9248753Y-17572460D02*
X9229706Y-17581984D01*
X9229706Y-17581984D02*
X9201134Y-17581984D01*
X9382087Y-17581984D02*
X9363039Y-17572460D01*
X9363039Y-17572460D02*
X9353515Y-17553412D01*
X9353515Y-17553412D02*
X9353515Y-17381984D01*
X9534468Y-17572460D02*
X9515420Y-17581984D01*
X9515420Y-17581984D02*
X9477325Y-17581984D01*
X9477325Y-17581984D02*
X9458277Y-17572460D01*
X9458277Y-17572460D02*
X9448753Y-17553412D01*
X9448753Y-17553412D02*
X9448753Y-17477222D01*
X9448753Y-17477222D02*
X9458277Y-17458174D01*
X9458277Y-17458174D02*
X9477325Y-17448650D01*
X9477325Y-17448650D02*
X9515420Y-17448650D01*
X9515420Y-17448650D02*
X9534468Y-17458174D01*
X9534468Y-17458174D02*
X9543992Y-17477222D01*
X9543992Y-17477222D02*
X9543992Y-17496270D01*
X9543992Y-17496270D02*
X9448753Y-17515317D01*
X9620182Y-17572460D02*
X9639230Y-17581984D01*
X9639230Y-17581984D02*
X9677325Y-17581984D01*
X9677325Y-17581984D02*
X9696373Y-17572460D01*
X9696373Y-17572460D02*
X9705896Y-17553412D01*
X9705896Y-17553412D02*
X9705896Y-17543889D01*
X9705896Y-17543889D02*
X9696373Y-17524841D01*
X9696373Y-17524841D02*
X9677325Y-17515317D01*
X9677325Y-17515317D02*
X9648753Y-17515317D01*
X9648753Y-17515317D02*
X9629706Y-17505793D01*
X9629706Y-17505793D02*
X9620182Y-17486746D01*
X9620182Y-17486746D02*
X9620182Y-17477222D01*
X9620182Y-17477222D02*
X9629706Y-17458174D01*
X9629706Y-17458174D02*
X9648753Y-17448650D01*
X9648753Y-17448650D02*
X9677325Y-17448650D01*
X9677325Y-17448650D02*
X9696373Y-17458174D01*
X9772563Y-17658174D02*
X9782087Y-17648650D01*
X9782087Y-17648650D02*
X9801134Y-17620079D01*
X9801134Y-17620079D02*
X9810658Y-17601031D01*
X9810658Y-17601031D02*
X9820182Y-17572460D01*
X9820182Y-17572460D02*
X9829706Y-17524841D01*
X9829706Y-17524841D02*
X9829706Y-17486746D01*
X9829706Y-17486746D02*
X9820182Y-17439127D01*
X9820182Y-17439127D02*
X9810658Y-17410555D01*
X9810658Y-17410555D02*
X9801134Y-17391508D01*
X9801134Y-17391508D02*
X9782087Y-17362936D01*
X9782087Y-17362936D02*
X9772563Y-17353412D01*
D14*
X4837500Y-17674500D02*
X4997500Y-17834500D01*
X4997500Y-17674500D02*
X4837500Y-17834500D01*
X4917500Y-17834500D02*
X4997500Y-17754500D01*
X4917500Y-17674500D01*
X4837500Y-17754500D01*
X4917500Y-17834500D01*
D11*
X5363039Y-17845984D02*
X5248753Y-17845984D01*
X5305896Y-17845984D02*
X5305896Y-17645984D01*
X5305896Y-17645984D02*
X5286848Y-17674555D01*
X5286848Y-17674555D02*
X5267801Y-17693603D01*
X5267801Y-17693603D02*
X5248753Y-17703127D01*
X5448753Y-17826936D02*
X5458277Y-17836460D01*
X5458277Y-17836460D02*
X5448753Y-17845984D01*
X5448753Y-17845984D02*
X5439229Y-17836460D01*
X5439229Y-17836460D02*
X5448753Y-17826936D01*
X5448753Y-17826936D02*
X5448753Y-17845984D01*
X5629705Y-17645984D02*
X5591610Y-17645984D01*
X5591610Y-17645984D02*
X5572563Y-17655508D01*
X5572563Y-17655508D02*
X5563039Y-17665031D01*
X5563039Y-17665031D02*
X5543991Y-17693603D01*
X5543991Y-17693603D02*
X5534467Y-17731698D01*
X5534467Y-17731698D02*
X5534467Y-17807889D01*
X5534467Y-17807889D02*
X5543991Y-17826936D01*
X5543991Y-17826936D02*
X5553515Y-17836460D01*
X5553515Y-17836460D02*
X5572563Y-17845984D01*
X5572563Y-17845984D02*
X5610658Y-17845984D01*
X5610658Y-17845984D02*
X5629705Y-17836460D01*
X5629705Y-17836460D02*
X5639229Y-17826936D01*
X5639229Y-17826936D02*
X5648753Y-17807889D01*
X5648753Y-17807889D02*
X5648753Y-17760270D01*
X5648753Y-17760270D02*
X5639229Y-17741222D01*
X5639229Y-17741222D02*
X5629705Y-17731698D01*
X5629705Y-17731698D02*
X5610658Y-17722174D01*
X5610658Y-17722174D02*
X5572563Y-17722174D01*
X5572563Y-17722174D02*
X5553515Y-17731698D01*
X5553515Y-17731698D02*
X5543991Y-17741222D01*
X5543991Y-17741222D02*
X5534467Y-17760270D01*
X5772562Y-17645984D02*
X5791610Y-17645984D01*
X5791610Y-17645984D02*
X5810658Y-17655508D01*
X5810658Y-17655508D02*
X5820182Y-17665031D01*
X5820182Y-17665031D02*
X5829705Y-17684079D01*
X5829705Y-17684079D02*
X5839229Y-17722174D01*
X5839229Y-17722174D02*
X5839229Y-17769793D01*
X5839229Y-17769793D02*
X5829705Y-17807889D01*
X5829705Y-17807889D02*
X5820182Y-17826936D01*
X5820182Y-17826936D02*
X5810658Y-17836460D01*
X5810658Y-17836460D02*
X5791610Y-17845984D01*
X5791610Y-17845984D02*
X5772562Y-17845984D01*
X5772562Y-17845984D02*
X5753515Y-17836460D01*
X5753515Y-17836460D02*
X5743991Y-17826936D01*
X5743991Y-17826936D02*
X5734467Y-17807889D01*
X5734467Y-17807889D02*
X5724943Y-17769793D01*
X5724943Y-17769793D02*
X5724943Y-17722174D01*
X5724943Y-17722174D02*
X5734467Y-17684079D01*
X5734467Y-17684079D02*
X5743991Y-17665031D01*
X5743991Y-17665031D02*
X5753515Y-17655508D01*
X5753515Y-17655508D02*
X5772562Y-17645984D01*
X5963039Y-17645984D02*
X5982086Y-17645984D01*
X5982086Y-17645984D02*
X6001134Y-17655508D01*
X6001134Y-17655508D02*
X6010658Y-17665031D01*
X6010658Y-17665031D02*
X6020182Y-17684079D01*
X6020182Y-17684079D02*
X6029705Y-17722174D01*
X6029705Y-17722174D02*
X6029705Y-17769793D01*
X6029705Y-17769793D02*
X6020182Y-17807889D01*
X6020182Y-17807889D02*
X6010658Y-17826936D01*
X6010658Y-17826936D02*
X6001134Y-17836460D01*
X6001134Y-17836460D02*
X5982086Y-17845984D01*
X5982086Y-17845984D02*
X5963039Y-17845984D01*
X5963039Y-17845984D02*
X5943991Y-17836460D01*
X5943991Y-17836460D02*
X5934467Y-17826936D01*
X5934467Y-17826936D02*
X5924943Y-17807889D01*
X5924943Y-17807889D02*
X5915420Y-17769793D01*
X5915420Y-17769793D02*
X5915420Y-17722174D01*
X5915420Y-17722174D02*
X5924943Y-17684079D01*
X5924943Y-17684079D02*
X5934467Y-17665031D01*
X5934467Y-17665031D02*
X5943991Y-17655508D01*
X5943991Y-17655508D02*
X5963039Y-17645984D01*
X6115420Y-17845984D02*
X6115420Y-17712650D01*
X6115420Y-17731698D02*
X6124943Y-17722174D01*
X6124943Y-17722174D02*
X6143991Y-17712650D01*
X6143991Y-17712650D02*
X6172563Y-17712650D01*
X6172563Y-17712650D02*
X6191610Y-17722174D01*
X6191610Y-17722174D02*
X6201134Y-17741222D01*
X6201134Y-17741222D02*
X6201134Y-17845984D01*
X6201134Y-17741222D02*
X6210658Y-17722174D01*
X6210658Y-17722174D02*
X6229705Y-17712650D01*
X6229705Y-17712650D02*
X6258277Y-17712650D01*
X6258277Y-17712650D02*
X6277324Y-17722174D01*
X6277324Y-17722174D02*
X6286848Y-17741222D01*
X6286848Y-17741222D02*
X6286848Y-17845984D01*
X6382086Y-17845984D02*
X6382086Y-17712650D01*
X6382086Y-17731698D02*
X6391610Y-17722174D01*
X6391610Y-17722174D02*
X6410658Y-17712650D01*
X6410658Y-17712650D02*
X6439229Y-17712650D01*
X6439229Y-17712650D02*
X6458277Y-17722174D01*
X6458277Y-17722174D02*
X6467801Y-17741222D01*
X6467801Y-17741222D02*
X6467801Y-17845984D01*
X6467801Y-17741222D02*
X6477324Y-17722174D01*
X6477324Y-17722174D02*
X6496372Y-17712650D01*
X6496372Y-17712650D02*
X6524943Y-17712650D01*
X6524943Y-17712650D02*
X6543991Y-17722174D01*
X6543991Y-17722174D02*
X6553515Y-17741222D01*
X6553515Y-17741222D02*
X6553515Y-17845984D01*
X6943991Y-17636460D02*
X6772563Y-17893603D01*
X7201134Y-17645984D02*
X7220182Y-17645984D01*
X7220182Y-17645984D02*
X7239229Y-17655508D01*
X7239229Y-17655508D02*
X7248753Y-17665031D01*
X7248753Y-17665031D02*
X7258277Y-17684079D01*
X7258277Y-17684079D02*
X7267801Y-17722174D01*
X7267801Y-17722174D02*
X7267801Y-17769793D01*
X7267801Y-17769793D02*
X7258277Y-17807889D01*
X7258277Y-17807889D02*
X7248753Y-17826936D01*
X7248753Y-17826936D02*
X7239229Y-17836460D01*
X7239229Y-17836460D02*
X7220182Y-17845984D01*
X7220182Y-17845984D02*
X7201134Y-17845984D01*
X7201134Y-17845984D02*
X7182086Y-17836460D01*
X7182086Y-17836460D02*
X7172563Y-17826936D01*
X7172563Y-17826936D02*
X7163039Y-17807889D01*
X7163039Y-17807889D02*
X7153515Y-17769793D01*
X7153515Y-17769793D02*
X7153515Y-17722174D01*
X7153515Y-17722174D02*
X7163039Y-17684079D01*
X7163039Y-17684079D02*
X7172563Y-17665031D01*
X7172563Y-17665031D02*
X7182086Y-17655508D01*
X7182086Y-17655508D02*
X7201134Y-17645984D01*
X7353515Y-17826936D02*
X7363039Y-17836460D01*
X7363039Y-17836460D02*
X7353515Y-17845984D01*
X7353515Y-17845984D02*
X7343991Y-17836460D01*
X7343991Y-17836460D02*
X7353515Y-17826936D01*
X7353515Y-17826936D02*
X7353515Y-17845984D01*
X7486848Y-17645984D02*
X7505896Y-17645984D01*
X7505896Y-17645984D02*
X7524944Y-17655508D01*
X7524944Y-17655508D02*
X7534467Y-17665031D01*
X7534467Y-17665031D02*
X7543991Y-17684079D01*
X7543991Y-17684079D02*
X7553515Y-17722174D01*
X7553515Y-17722174D02*
X7553515Y-17769793D01*
X7553515Y-17769793D02*
X7543991Y-17807889D01*
X7543991Y-17807889D02*
X7534467Y-17826936D01*
X7534467Y-17826936D02*
X7524944Y-17836460D01*
X7524944Y-17836460D02*
X7505896Y-17845984D01*
X7505896Y-17845984D02*
X7486848Y-17845984D01*
X7486848Y-17845984D02*
X7467801Y-17836460D01*
X7467801Y-17836460D02*
X7458277Y-17826936D01*
X7458277Y-17826936D02*
X7448753Y-17807889D01*
X7448753Y-17807889D02*
X7439229Y-17769793D01*
X7439229Y-17769793D02*
X7439229Y-17722174D01*
X7439229Y-17722174D02*
X7448753Y-17684079D01*
X7448753Y-17684079D02*
X7458277Y-17665031D01*
X7458277Y-17665031D02*
X7467801Y-17655508D01*
X7467801Y-17655508D02*
X7486848Y-17645984D01*
X7724944Y-17645984D02*
X7686848Y-17645984D01*
X7686848Y-17645984D02*
X7667801Y-17655508D01*
X7667801Y-17655508D02*
X7658277Y-17665031D01*
X7658277Y-17665031D02*
X7639229Y-17693603D01*
X7639229Y-17693603D02*
X7629706Y-17731698D01*
X7629706Y-17731698D02*
X7629706Y-17807889D01*
X7629706Y-17807889D02*
X7639229Y-17826936D01*
X7639229Y-17826936D02*
X7648753Y-17836460D01*
X7648753Y-17836460D02*
X7667801Y-17845984D01*
X7667801Y-17845984D02*
X7705896Y-17845984D01*
X7705896Y-17845984D02*
X7724944Y-17836460D01*
X7724944Y-17836460D02*
X7734467Y-17826936D01*
X7734467Y-17826936D02*
X7743991Y-17807889D01*
X7743991Y-17807889D02*
X7743991Y-17760270D01*
X7743991Y-17760270D02*
X7734467Y-17741222D01*
X7734467Y-17741222D02*
X7724944Y-17731698D01*
X7724944Y-17731698D02*
X7705896Y-17722174D01*
X7705896Y-17722174D02*
X7667801Y-17722174D01*
X7667801Y-17722174D02*
X7648753Y-17731698D01*
X7648753Y-17731698D02*
X7639229Y-17741222D01*
X7639229Y-17741222D02*
X7629706Y-17760270D01*
X7810658Y-17645984D02*
X7934467Y-17645984D01*
X7934467Y-17645984D02*
X7867801Y-17722174D01*
X7867801Y-17722174D02*
X7896372Y-17722174D01*
X7896372Y-17722174D02*
X7915420Y-17731698D01*
X7915420Y-17731698D02*
X7924944Y-17741222D01*
X7924944Y-17741222D02*
X7934467Y-17760270D01*
X7934467Y-17760270D02*
X7934467Y-17807889D01*
X7934467Y-17807889D02*
X7924944Y-17826936D01*
X7924944Y-17826936D02*
X7915420Y-17836460D01*
X7915420Y-17836460D02*
X7896372Y-17845984D01*
X7896372Y-17845984D02*
X7839229Y-17845984D01*
X7839229Y-17845984D02*
X7820182Y-17836460D01*
X7820182Y-17836460D02*
X7810658Y-17826936D01*
X8058277Y-17645984D02*
X8077325Y-17645984D01*
X8077325Y-17645984D02*
X8096372Y-17655508D01*
X8096372Y-17655508D02*
X8105896Y-17665031D01*
X8105896Y-17665031D02*
X8115420Y-17684079D01*
X8115420Y-17684079D02*
X8124944Y-17722174D01*
X8124944Y-17722174D02*
X8124944Y-17769793D01*
X8124944Y-17769793D02*
X8115420Y-17807889D01*
X8115420Y-17807889D02*
X8105896Y-17826936D01*
X8105896Y-17826936D02*
X8096372Y-17836460D01*
X8096372Y-17836460D02*
X8077325Y-17845984D01*
X8077325Y-17845984D02*
X8058277Y-17845984D01*
X8058277Y-17845984D02*
X8039229Y-17836460D01*
X8039229Y-17836460D02*
X8029706Y-17826936D01*
X8029706Y-17826936D02*
X8020182Y-17807889D01*
X8020182Y-17807889D02*
X8010658Y-17769793D01*
X8010658Y-17769793D02*
X8010658Y-17722174D01*
X8010658Y-17722174D02*
X8020182Y-17684079D01*
X8020182Y-17684079D02*
X8029706Y-17665031D01*
X8029706Y-17665031D02*
X8039229Y-17655508D01*
X8039229Y-17655508D02*
X8058277Y-17645984D01*
X8201134Y-17645984D02*
X8201134Y-17684079D01*
X8277325Y-17645984D02*
X8277325Y-17684079D01*
X8572563Y-17922174D02*
X8563039Y-17912650D01*
X8563039Y-17912650D02*
X8543991Y-17884079D01*
X8543991Y-17884079D02*
X8534468Y-17865031D01*
X8534468Y-17865031D02*
X8524944Y-17836460D01*
X8524944Y-17836460D02*
X8515420Y-17788841D01*
X8515420Y-17788841D02*
X8515420Y-17750746D01*
X8515420Y-17750746D02*
X8524944Y-17703127D01*
X8524944Y-17703127D02*
X8534468Y-17674555D01*
X8534468Y-17674555D02*
X8543991Y-17655508D01*
X8543991Y-17655508D02*
X8563039Y-17626936D01*
X8563039Y-17626936D02*
X8572563Y-17617412D01*
X8686849Y-17645984D02*
X8705896Y-17645984D01*
X8705896Y-17645984D02*
X8724944Y-17655508D01*
X8724944Y-17655508D02*
X8734468Y-17665031D01*
X8734468Y-17665031D02*
X8743991Y-17684079D01*
X8743991Y-17684079D02*
X8753515Y-17722174D01*
X8753515Y-17722174D02*
X8753515Y-17769793D01*
X8753515Y-17769793D02*
X8743991Y-17807889D01*
X8743991Y-17807889D02*
X8734468Y-17826936D01*
X8734468Y-17826936D02*
X8724944Y-17836460D01*
X8724944Y-17836460D02*
X8705896Y-17845984D01*
X8705896Y-17845984D02*
X8686849Y-17845984D01*
X8686849Y-17845984D02*
X8667801Y-17836460D01*
X8667801Y-17836460D02*
X8658277Y-17826936D01*
X8658277Y-17826936D02*
X8648753Y-17807889D01*
X8648753Y-17807889D02*
X8639230Y-17769793D01*
X8639230Y-17769793D02*
X8639230Y-17722174D01*
X8639230Y-17722174D02*
X8648753Y-17684079D01*
X8648753Y-17684079D02*
X8658277Y-17665031D01*
X8658277Y-17665031D02*
X8667801Y-17655508D01*
X8667801Y-17655508D02*
X8686849Y-17645984D01*
X8991611Y-17845984D02*
X8991611Y-17645984D01*
X9077325Y-17845984D02*
X9077325Y-17741222D01*
X9077325Y-17741222D02*
X9067801Y-17722174D01*
X9067801Y-17722174D02*
X9048753Y-17712650D01*
X9048753Y-17712650D02*
X9020182Y-17712650D01*
X9020182Y-17712650D02*
X9001134Y-17722174D01*
X9001134Y-17722174D02*
X8991611Y-17731698D01*
X9201134Y-17845984D02*
X9182087Y-17836460D01*
X9182087Y-17836460D02*
X9172563Y-17826936D01*
X9172563Y-17826936D02*
X9163039Y-17807889D01*
X9163039Y-17807889D02*
X9163039Y-17750746D01*
X9163039Y-17750746D02*
X9172563Y-17731698D01*
X9172563Y-17731698D02*
X9182087Y-17722174D01*
X9182087Y-17722174D02*
X9201134Y-17712650D01*
X9201134Y-17712650D02*
X9229706Y-17712650D01*
X9229706Y-17712650D02*
X9248753Y-17722174D01*
X9248753Y-17722174D02*
X9258277Y-17731698D01*
X9258277Y-17731698D02*
X9267801Y-17750746D01*
X9267801Y-17750746D02*
X9267801Y-17807889D01*
X9267801Y-17807889D02*
X9258277Y-17826936D01*
X9258277Y-17826936D02*
X9248753Y-17836460D01*
X9248753Y-17836460D02*
X9229706Y-17845984D01*
X9229706Y-17845984D02*
X9201134Y-17845984D01*
X9382087Y-17845984D02*
X9363039Y-17836460D01*
X9363039Y-17836460D02*
X9353515Y-17817412D01*
X9353515Y-17817412D02*
X9353515Y-17645984D01*
X9534468Y-17836460D02*
X9515420Y-17845984D01*
X9515420Y-17845984D02*
X9477325Y-17845984D01*
X9477325Y-17845984D02*
X9458277Y-17836460D01*
X9458277Y-17836460D02*
X9448753Y-17817412D01*
X9448753Y-17817412D02*
X9448753Y-17741222D01*
X9448753Y-17741222D02*
X9458277Y-17722174D01*
X9458277Y-17722174D02*
X9477325Y-17712650D01*
X9477325Y-17712650D02*
X9515420Y-17712650D01*
X9515420Y-17712650D02*
X9534468Y-17722174D01*
X9534468Y-17722174D02*
X9543992Y-17741222D01*
X9543992Y-17741222D02*
X9543992Y-17760270D01*
X9543992Y-17760270D02*
X9448753Y-17779317D01*
X9620182Y-17836460D02*
X9639230Y-17845984D01*
X9639230Y-17845984D02*
X9677325Y-17845984D01*
X9677325Y-17845984D02*
X9696373Y-17836460D01*
X9696373Y-17836460D02*
X9705896Y-17817412D01*
X9705896Y-17817412D02*
X9705896Y-17807889D01*
X9705896Y-17807889D02*
X9696373Y-17788841D01*
X9696373Y-17788841D02*
X9677325Y-17779317D01*
X9677325Y-17779317D02*
X9648753Y-17779317D01*
X9648753Y-17779317D02*
X9629706Y-17769793D01*
X9629706Y-17769793D02*
X9620182Y-17750746D01*
X9620182Y-17750746D02*
X9620182Y-17741222D01*
X9620182Y-17741222D02*
X9629706Y-17722174D01*
X9629706Y-17722174D02*
X9648753Y-17712650D01*
X9648753Y-17712650D02*
X9677325Y-17712650D01*
X9677325Y-17712650D02*
X9696373Y-17722174D01*
X9943992Y-17769793D02*
X10096373Y-17769793D01*
X10020182Y-17845984D02*
X10020182Y-17693603D01*
X10324944Y-17645984D02*
X10448754Y-17645984D01*
X10448754Y-17645984D02*
X10382087Y-17722174D01*
X10382087Y-17722174D02*
X10410658Y-17722174D01*
X10410658Y-17722174D02*
X10429706Y-17731698D01*
X10429706Y-17731698D02*
X10439230Y-17741222D01*
X10439230Y-17741222D02*
X10448754Y-17760270D01*
X10448754Y-17760270D02*
X10448754Y-17807889D01*
X10448754Y-17807889D02*
X10439230Y-17826936D01*
X10439230Y-17826936D02*
X10429706Y-17836460D01*
X10429706Y-17836460D02*
X10410658Y-17845984D01*
X10410658Y-17845984D02*
X10353515Y-17845984D01*
X10353515Y-17845984D02*
X10334468Y-17836460D01*
X10334468Y-17836460D02*
X10324944Y-17826936D01*
X10677325Y-17836460D02*
X10696373Y-17845984D01*
X10696373Y-17845984D02*
X10734468Y-17845984D01*
X10734468Y-17845984D02*
X10753516Y-17836460D01*
X10753516Y-17836460D02*
X10763039Y-17817412D01*
X10763039Y-17817412D02*
X10763039Y-17807889D01*
X10763039Y-17807889D02*
X10753516Y-17788841D01*
X10753516Y-17788841D02*
X10734468Y-17779317D01*
X10734468Y-17779317D02*
X10705896Y-17779317D01*
X10705896Y-17779317D02*
X10686849Y-17769793D01*
X10686849Y-17769793D02*
X10677325Y-17750746D01*
X10677325Y-17750746D02*
X10677325Y-17741222D01*
X10677325Y-17741222D02*
X10686849Y-17722174D01*
X10686849Y-17722174D02*
X10705896Y-17712650D01*
X10705896Y-17712650D02*
X10734468Y-17712650D01*
X10734468Y-17712650D02*
X10753516Y-17722174D01*
X10877325Y-17845984D02*
X10858277Y-17836460D01*
X10858277Y-17836460D02*
X10848754Y-17817412D01*
X10848754Y-17817412D02*
X10848754Y-17645984D01*
X10982087Y-17845984D02*
X10963039Y-17836460D01*
X10963039Y-17836460D02*
X10953516Y-17826936D01*
X10953516Y-17826936D02*
X10943992Y-17807889D01*
X10943992Y-17807889D02*
X10943992Y-17750746D01*
X10943992Y-17750746D02*
X10953516Y-17731698D01*
X10953516Y-17731698D02*
X10963039Y-17722174D01*
X10963039Y-17722174D02*
X10982087Y-17712650D01*
X10982087Y-17712650D02*
X11010658Y-17712650D01*
X11010658Y-17712650D02*
X11029706Y-17722174D01*
X11029706Y-17722174D02*
X11039230Y-17731698D01*
X11039230Y-17731698D02*
X11048754Y-17750746D01*
X11048754Y-17750746D02*
X11048754Y-17807889D01*
X11048754Y-17807889D02*
X11039230Y-17826936D01*
X11039230Y-17826936D02*
X11029706Y-17836460D01*
X11029706Y-17836460D02*
X11010658Y-17845984D01*
X11010658Y-17845984D02*
X10982087Y-17845984D01*
X11105897Y-17712650D02*
X11182087Y-17712650D01*
X11134468Y-17645984D02*
X11134468Y-17817412D01*
X11134468Y-17817412D02*
X11143992Y-17836460D01*
X11143992Y-17836460D02*
X11163039Y-17845984D01*
X11163039Y-17845984D02*
X11182087Y-17845984D01*
X11239230Y-17836460D02*
X11258277Y-17845984D01*
X11258277Y-17845984D02*
X11296373Y-17845984D01*
X11296373Y-17845984D02*
X11315420Y-17836460D01*
X11315420Y-17836460D02*
X11324944Y-17817412D01*
X11324944Y-17817412D02*
X11324944Y-17807889D01*
X11324944Y-17807889D02*
X11315420Y-17788841D01*
X11315420Y-17788841D02*
X11296373Y-17779317D01*
X11296373Y-17779317D02*
X11267801Y-17779317D01*
X11267801Y-17779317D02*
X11248754Y-17769793D01*
X11248754Y-17769793D02*
X11239230Y-17750746D01*
X11239230Y-17750746D02*
X11239230Y-17741222D01*
X11239230Y-17741222D02*
X11248754Y-17722174D01*
X11248754Y-17722174D02*
X11267801Y-17712650D01*
X11267801Y-17712650D02*
X11296373Y-17712650D01*
X11296373Y-17712650D02*
X11315420Y-17722174D01*
X11391611Y-17922174D02*
X11401135Y-17912650D01*
X11401135Y-17912650D02*
X11420182Y-17884079D01*
X11420182Y-17884079D02*
X11429706Y-17865031D01*
X11429706Y-17865031D02*
X11439230Y-17836460D01*
X11439230Y-17836460D02*
X11448754Y-17788841D01*
X11448754Y-17788841D02*
X11448754Y-17750746D01*
X11448754Y-17750746D02*
X11439230Y-17703127D01*
X11439230Y-17703127D02*
X11429706Y-17674555D01*
X11429706Y-17674555D02*
X11420182Y-17655508D01*
X11420182Y-17655508D02*
X11401135Y-17626936D01*
X11401135Y-17626936D02*
X11391611Y-17617412D01*
D15*
X4907500Y-17944500D02*
X4907500Y-18124500D01*
X4817500Y-18034500D02*
X4997500Y-18034500D01*
X4997500Y-18034500D02*
G75*
G02*
X4817500Y-18034500I-90000J0D01*
G01*
X4817500Y-18034500D02*
G75*
G02*
X4997500Y-18034500I90000J0D01*
G01*
D11*
X5363039Y-18125984D02*
X5248753Y-18125984D01*
X5305896Y-18125984D02*
X5305896Y-17925984D01*
X5305896Y-17925984D02*
X5286848Y-17954555D01*
X5286848Y-17954555D02*
X5267801Y-17973603D01*
X5267801Y-17973603D02*
X5248753Y-17983127D01*
X5448753Y-18106936D02*
X5458277Y-18116460D01*
X5458277Y-18116460D02*
X5448753Y-18125984D01*
X5448753Y-18125984D02*
X5439229Y-18116460D01*
X5439229Y-18116460D02*
X5448753Y-18106936D01*
X5448753Y-18106936D02*
X5448753Y-18125984D01*
X5572563Y-18011698D02*
X5553515Y-18002174D01*
X5553515Y-18002174D02*
X5543991Y-17992650D01*
X5543991Y-17992650D02*
X5534467Y-17973603D01*
X5534467Y-17973603D02*
X5534467Y-17964079D01*
X5534467Y-17964079D02*
X5543991Y-17945031D01*
X5543991Y-17945031D02*
X5553515Y-17935508D01*
X5553515Y-17935508D02*
X5572563Y-17925984D01*
X5572563Y-17925984D02*
X5610658Y-17925984D01*
X5610658Y-17925984D02*
X5629705Y-17935508D01*
X5629705Y-17935508D02*
X5639229Y-17945031D01*
X5639229Y-17945031D02*
X5648753Y-17964079D01*
X5648753Y-17964079D02*
X5648753Y-17973603D01*
X5648753Y-17973603D02*
X5639229Y-17992650D01*
X5639229Y-17992650D02*
X5629705Y-18002174D01*
X5629705Y-18002174D02*
X5610658Y-18011698D01*
X5610658Y-18011698D02*
X5572563Y-18011698D01*
X5572563Y-18011698D02*
X5553515Y-18021222D01*
X5553515Y-18021222D02*
X5543991Y-18030746D01*
X5543991Y-18030746D02*
X5534467Y-18049793D01*
X5534467Y-18049793D02*
X5534467Y-18087889D01*
X5534467Y-18087889D02*
X5543991Y-18106936D01*
X5543991Y-18106936D02*
X5553515Y-18116460D01*
X5553515Y-18116460D02*
X5572563Y-18125984D01*
X5572563Y-18125984D02*
X5610658Y-18125984D01*
X5610658Y-18125984D02*
X5629705Y-18116460D01*
X5629705Y-18116460D02*
X5639229Y-18106936D01*
X5639229Y-18106936D02*
X5648753Y-18087889D01*
X5648753Y-18087889D02*
X5648753Y-18049793D01*
X5648753Y-18049793D02*
X5639229Y-18030746D01*
X5639229Y-18030746D02*
X5629705Y-18021222D01*
X5629705Y-18021222D02*
X5610658Y-18011698D01*
X5772562Y-17925984D02*
X5791610Y-17925984D01*
X5791610Y-17925984D02*
X5810658Y-17935508D01*
X5810658Y-17935508D02*
X5820182Y-17945031D01*
X5820182Y-17945031D02*
X5829705Y-17964079D01*
X5829705Y-17964079D02*
X5839229Y-18002174D01*
X5839229Y-18002174D02*
X5839229Y-18049793D01*
X5839229Y-18049793D02*
X5829705Y-18087889D01*
X5829705Y-18087889D02*
X5820182Y-18106936D01*
X5820182Y-18106936D02*
X5810658Y-18116460D01*
X5810658Y-18116460D02*
X5791610Y-18125984D01*
X5791610Y-18125984D02*
X5772562Y-18125984D01*
X5772562Y-18125984D02*
X5753515Y-18116460D01*
X5753515Y-18116460D02*
X5743991Y-18106936D01*
X5743991Y-18106936D02*
X5734467Y-18087889D01*
X5734467Y-18087889D02*
X5724943Y-18049793D01*
X5724943Y-18049793D02*
X5724943Y-18002174D01*
X5724943Y-18002174D02*
X5734467Y-17964079D01*
X5734467Y-17964079D02*
X5743991Y-17945031D01*
X5743991Y-17945031D02*
X5753515Y-17935508D01*
X5753515Y-17935508D02*
X5772562Y-17925984D01*
X5963039Y-17925984D02*
X5982086Y-17925984D01*
X5982086Y-17925984D02*
X6001134Y-17935508D01*
X6001134Y-17935508D02*
X6010658Y-17945031D01*
X6010658Y-17945031D02*
X6020182Y-17964079D01*
X6020182Y-17964079D02*
X6029705Y-18002174D01*
X6029705Y-18002174D02*
X6029705Y-18049793D01*
X6029705Y-18049793D02*
X6020182Y-18087889D01*
X6020182Y-18087889D02*
X6010658Y-18106936D01*
X6010658Y-18106936D02*
X6001134Y-18116460D01*
X6001134Y-18116460D02*
X5982086Y-18125984D01*
X5982086Y-18125984D02*
X5963039Y-18125984D01*
X5963039Y-18125984D02*
X5943991Y-18116460D01*
X5943991Y-18116460D02*
X5934467Y-18106936D01*
X5934467Y-18106936D02*
X5924943Y-18087889D01*
X5924943Y-18087889D02*
X5915420Y-18049793D01*
X5915420Y-18049793D02*
X5915420Y-18002174D01*
X5915420Y-18002174D02*
X5924943Y-17964079D01*
X5924943Y-17964079D02*
X5934467Y-17945031D01*
X5934467Y-17945031D02*
X5943991Y-17935508D01*
X5943991Y-17935508D02*
X5963039Y-17925984D01*
X6115420Y-18125984D02*
X6115420Y-17992650D01*
X6115420Y-18011698D02*
X6124943Y-18002174D01*
X6124943Y-18002174D02*
X6143991Y-17992650D01*
X6143991Y-17992650D02*
X6172563Y-17992650D01*
X6172563Y-17992650D02*
X6191610Y-18002174D01*
X6191610Y-18002174D02*
X6201134Y-18021222D01*
X6201134Y-18021222D02*
X6201134Y-18125984D01*
X6201134Y-18021222D02*
X6210658Y-18002174D01*
X6210658Y-18002174D02*
X6229705Y-17992650D01*
X6229705Y-17992650D02*
X6258277Y-17992650D01*
X6258277Y-17992650D02*
X6277324Y-18002174D01*
X6277324Y-18002174D02*
X6286848Y-18021222D01*
X6286848Y-18021222D02*
X6286848Y-18125984D01*
X6382086Y-18125984D02*
X6382086Y-17992650D01*
X6382086Y-18011698D02*
X6391610Y-18002174D01*
X6391610Y-18002174D02*
X6410658Y-17992650D01*
X6410658Y-17992650D02*
X6439229Y-17992650D01*
X6439229Y-17992650D02*
X6458277Y-18002174D01*
X6458277Y-18002174D02*
X6467801Y-18021222D01*
X6467801Y-18021222D02*
X6467801Y-18125984D01*
X6467801Y-18021222D02*
X6477324Y-18002174D01*
X6477324Y-18002174D02*
X6496372Y-17992650D01*
X6496372Y-17992650D02*
X6524943Y-17992650D01*
X6524943Y-17992650D02*
X6543991Y-18002174D01*
X6543991Y-18002174D02*
X6553515Y-18021222D01*
X6553515Y-18021222D02*
X6553515Y-18125984D01*
X6943991Y-17916460D02*
X6772563Y-18173603D01*
X7201134Y-17925984D02*
X7220182Y-17925984D01*
X7220182Y-17925984D02*
X7239229Y-17935508D01*
X7239229Y-17935508D02*
X7248753Y-17945031D01*
X7248753Y-17945031D02*
X7258277Y-17964079D01*
X7258277Y-17964079D02*
X7267801Y-18002174D01*
X7267801Y-18002174D02*
X7267801Y-18049793D01*
X7267801Y-18049793D02*
X7258277Y-18087889D01*
X7258277Y-18087889D02*
X7248753Y-18106936D01*
X7248753Y-18106936D02*
X7239229Y-18116460D01*
X7239229Y-18116460D02*
X7220182Y-18125984D01*
X7220182Y-18125984D02*
X7201134Y-18125984D01*
X7201134Y-18125984D02*
X7182086Y-18116460D01*
X7182086Y-18116460D02*
X7172563Y-18106936D01*
X7172563Y-18106936D02*
X7163039Y-18087889D01*
X7163039Y-18087889D02*
X7153515Y-18049793D01*
X7153515Y-18049793D02*
X7153515Y-18002174D01*
X7153515Y-18002174D02*
X7163039Y-17964079D01*
X7163039Y-17964079D02*
X7172563Y-17945031D01*
X7172563Y-17945031D02*
X7182086Y-17935508D01*
X7182086Y-17935508D02*
X7201134Y-17925984D01*
X7353515Y-18106936D02*
X7363039Y-18116460D01*
X7363039Y-18116460D02*
X7353515Y-18125984D01*
X7353515Y-18125984D02*
X7343991Y-18116460D01*
X7343991Y-18116460D02*
X7353515Y-18106936D01*
X7353515Y-18106936D02*
X7353515Y-18125984D01*
X7486848Y-17925984D02*
X7505896Y-17925984D01*
X7505896Y-17925984D02*
X7524944Y-17935508D01*
X7524944Y-17935508D02*
X7534467Y-17945031D01*
X7534467Y-17945031D02*
X7543991Y-17964079D01*
X7543991Y-17964079D02*
X7553515Y-18002174D01*
X7553515Y-18002174D02*
X7553515Y-18049793D01*
X7553515Y-18049793D02*
X7543991Y-18087889D01*
X7543991Y-18087889D02*
X7534467Y-18106936D01*
X7534467Y-18106936D02*
X7524944Y-18116460D01*
X7524944Y-18116460D02*
X7505896Y-18125984D01*
X7505896Y-18125984D02*
X7486848Y-18125984D01*
X7486848Y-18125984D02*
X7467801Y-18116460D01*
X7467801Y-18116460D02*
X7458277Y-18106936D01*
X7458277Y-18106936D02*
X7448753Y-18087889D01*
X7448753Y-18087889D02*
X7439229Y-18049793D01*
X7439229Y-18049793D02*
X7439229Y-18002174D01*
X7439229Y-18002174D02*
X7448753Y-17964079D01*
X7448753Y-17964079D02*
X7458277Y-17945031D01*
X7458277Y-17945031D02*
X7467801Y-17935508D01*
X7467801Y-17935508D02*
X7486848Y-17925984D01*
X7620182Y-17925984D02*
X7753515Y-17925984D01*
X7753515Y-17925984D02*
X7667801Y-18125984D01*
X7867801Y-17925984D02*
X7886848Y-17925984D01*
X7886848Y-17925984D02*
X7905896Y-17935508D01*
X7905896Y-17935508D02*
X7915420Y-17945031D01*
X7915420Y-17945031D02*
X7924944Y-17964079D01*
X7924944Y-17964079D02*
X7934467Y-18002174D01*
X7934467Y-18002174D02*
X7934467Y-18049793D01*
X7934467Y-18049793D02*
X7924944Y-18087889D01*
X7924944Y-18087889D02*
X7915420Y-18106936D01*
X7915420Y-18106936D02*
X7905896Y-18116460D01*
X7905896Y-18116460D02*
X7886848Y-18125984D01*
X7886848Y-18125984D02*
X7867801Y-18125984D01*
X7867801Y-18125984D02*
X7848753Y-18116460D01*
X7848753Y-18116460D02*
X7839229Y-18106936D01*
X7839229Y-18106936D02*
X7829706Y-18087889D01*
X7829706Y-18087889D02*
X7820182Y-18049793D01*
X7820182Y-18049793D02*
X7820182Y-18002174D01*
X7820182Y-18002174D02*
X7829706Y-17964079D01*
X7829706Y-17964079D02*
X7839229Y-17945031D01*
X7839229Y-17945031D02*
X7848753Y-17935508D01*
X7848753Y-17935508D02*
X7867801Y-17925984D01*
X8029706Y-18125984D02*
X8067801Y-18125984D01*
X8067801Y-18125984D02*
X8086848Y-18116460D01*
X8086848Y-18116460D02*
X8096372Y-18106936D01*
X8096372Y-18106936D02*
X8115420Y-18078365D01*
X8115420Y-18078365D02*
X8124944Y-18040270D01*
X8124944Y-18040270D02*
X8124944Y-17964079D01*
X8124944Y-17964079D02*
X8115420Y-17945031D01*
X8115420Y-17945031D02*
X8105896Y-17935508D01*
X8105896Y-17935508D02*
X8086848Y-17925984D01*
X8086848Y-17925984D02*
X8048753Y-17925984D01*
X8048753Y-17925984D02*
X8029706Y-17935508D01*
X8029706Y-17935508D02*
X8020182Y-17945031D01*
X8020182Y-17945031D02*
X8010658Y-17964079D01*
X8010658Y-17964079D02*
X8010658Y-18011698D01*
X8010658Y-18011698D02*
X8020182Y-18030746D01*
X8020182Y-18030746D02*
X8029706Y-18040270D01*
X8029706Y-18040270D02*
X8048753Y-18049793D01*
X8048753Y-18049793D02*
X8086848Y-18049793D01*
X8086848Y-18049793D02*
X8105896Y-18040270D01*
X8105896Y-18040270D02*
X8115420Y-18030746D01*
X8115420Y-18030746D02*
X8124944Y-18011698D01*
X8201134Y-17925984D02*
X8201134Y-17964079D01*
X8277325Y-17925984D02*
X8277325Y-17964079D01*
X8572563Y-18202174D02*
X8563039Y-18192650D01*
X8563039Y-18192650D02*
X8543991Y-18164079D01*
X8543991Y-18164079D02*
X8534468Y-18145031D01*
X8534468Y-18145031D02*
X8524944Y-18116460D01*
X8524944Y-18116460D02*
X8515420Y-18068841D01*
X8515420Y-18068841D02*
X8515420Y-18030746D01*
X8515420Y-18030746D02*
X8524944Y-17983127D01*
X8524944Y-17983127D02*
X8534468Y-17954555D01*
X8534468Y-17954555D02*
X8543991Y-17935508D01*
X8543991Y-17935508D02*
X8563039Y-17906936D01*
X8563039Y-17906936D02*
X8572563Y-17897412D01*
X8686849Y-17925984D02*
X8705896Y-17925984D01*
X8705896Y-17925984D02*
X8724944Y-17935508D01*
X8724944Y-17935508D02*
X8734468Y-17945031D01*
X8734468Y-17945031D02*
X8743991Y-17964079D01*
X8743991Y-17964079D02*
X8753515Y-18002174D01*
X8753515Y-18002174D02*
X8753515Y-18049793D01*
X8753515Y-18049793D02*
X8743991Y-18087889D01*
X8743991Y-18087889D02*
X8734468Y-18106936D01*
X8734468Y-18106936D02*
X8724944Y-18116460D01*
X8724944Y-18116460D02*
X8705896Y-18125984D01*
X8705896Y-18125984D02*
X8686849Y-18125984D01*
X8686849Y-18125984D02*
X8667801Y-18116460D01*
X8667801Y-18116460D02*
X8658277Y-18106936D01*
X8658277Y-18106936D02*
X8648753Y-18087889D01*
X8648753Y-18087889D02*
X8639230Y-18049793D01*
X8639230Y-18049793D02*
X8639230Y-18002174D01*
X8639230Y-18002174D02*
X8648753Y-17964079D01*
X8648753Y-17964079D02*
X8658277Y-17945031D01*
X8658277Y-17945031D02*
X8667801Y-17935508D01*
X8667801Y-17935508D02*
X8686849Y-17925984D01*
X8991611Y-18125984D02*
X8991611Y-17925984D01*
X9077325Y-18125984D02*
X9077325Y-18021222D01*
X9077325Y-18021222D02*
X9067801Y-18002174D01*
X9067801Y-18002174D02*
X9048753Y-17992650D01*
X9048753Y-17992650D02*
X9020182Y-17992650D01*
X9020182Y-17992650D02*
X9001134Y-18002174D01*
X9001134Y-18002174D02*
X8991611Y-18011698D01*
X9201134Y-18125984D02*
X9182087Y-18116460D01*
X9182087Y-18116460D02*
X9172563Y-18106936D01*
X9172563Y-18106936D02*
X9163039Y-18087889D01*
X9163039Y-18087889D02*
X9163039Y-18030746D01*
X9163039Y-18030746D02*
X9172563Y-18011698D01*
X9172563Y-18011698D02*
X9182087Y-18002174D01*
X9182087Y-18002174D02*
X9201134Y-17992650D01*
X9201134Y-17992650D02*
X9229706Y-17992650D01*
X9229706Y-17992650D02*
X9248753Y-18002174D01*
X9248753Y-18002174D02*
X9258277Y-18011698D01*
X9258277Y-18011698D02*
X9267801Y-18030746D01*
X9267801Y-18030746D02*
X9267801Y-18087889D01*
X9267801Y-18087889D02*
X9258277Y-18106936D01*
X9258277Y-18106936D02*
X9248753Y-18116460D01*
X9248753Y-18116460D02*
X9229706Y-18125984D01*
X9229706Y-18125984D02*
X9201134Y-18125984D01*
X9382087Y-18125984D02*
X9363039Y-18116460D01*
X9363039Y-18116460D02*
X9353515Y-18097412D01*
X9353515Y-18097412D02*
X9353515Y-17925984D01*
X9534468Y-18116460D02*
X9515420Y-18125984D01*
X9515420Y-18125984D02*
X9477325Y-18125984D01*
X9477325Y-18125984D02*
X9458277Y-18116460D01*
X9458277Y-18116460D02*
X9448753Y-18097412D01*
X9448753Y-18097412D02*
X9448753Y-18021222D01*
X9448753Y-18021222D02*
X9458277Y-18002174D01*
X9458277Y-18002174D02*
X9477325Y-17992650D01*
X9477325Y-17992650D02*
X9515420Y-17992650D01*
X9515420Y-17992650D02*
X9534468Y-18002174D01*
X9534468Y-18002174D02*
X9543992Y-18021222D01*
X9543992Y-18021222D02*
X9543992Y-18040270D01*
X9543992Y-18040270D02*
X9448753Y-18059317D01*
X9620182Y-18116460D02*
X9639230Y-18125984D01*
X9639230Y-18125984D02*
X9677325Y-18125984D01*
X9677325Y-18125984D02*
X9696373Y-18116460D01*
X9696373Y-18116460D02*
X9705896Y-18097412D01*
X9705896Y-18097412D02*
X9705896Y-18087889D01*
X9705896Y-18087889D02*
X9696373Y-18068841D01*
X9696373Y-18068841D02*
X9677325Y-18059317D01*
X9677325Y-18059317D02*
X9648753Y-18059317D01*
X9648753Y-18059317D02*
X9629706Y-18049793D01*
X9629706Y-18049793D02*
X9620182Y-18030746D01*
X9620182Y-18030746D02*
X9620182Y-18021222D01*
X9620182Y-18021222D02*
X9629706Y-18002174D01*
X9629706Y-18002174D02*
X9648753Y-17992650D01*
X9648753Y-17992650D02*
X9677325Y-17992650D01*
X9677325Y-17992650D02*
X9696373Y-18002174D01*
X9943992Y-18049793D02*
X10096373Y-18049793D01*
X10020182Y-18125984D02*
X10020182Y-17973603D01*
X10334468Y-17945031D02*
X10343992Y-17935508D01*
X10343992Y-17935508D02*
X10363039Y-17925984D01*
X10363039Y-17925984D02*
X10410658Y-17925984D01*
X10410658Y-17925984D02*
X10429706Y-17935508D01*
X10429706Y-17935508D02*
X10439230Y-17945031D01*
X10439230Y-17945031D02*
X10448754Y-17964079D01*
X10448754Y-17964079D02*
X10448754Y-17983127D01*
X10448754Y-17983127D02*
X10439230Y-18011698D01*
X10439230Y-18011698D02*
X10324944Y-18125984D01*
X10324944Y-18125984D02*
X10448754Y-18125984D01*
X10677325Y-18116460D02*
X10696373Y-18125984D01*
X10696373Y-18125984D02*
X10734468Y-18125984D01*
X10734468Y-18125984D02*
X10753516Y-18116460D01*
X10753516Y-18116460D02*
X10763039Y-18097412D01*
X10763039Y-18097412D02*
X10763039Y-18087889D01*
X10763039Y-18087889D02*
X10753516Y-18068841D01*
X10753516Y-18068841D02*
X10734468Y-18059317D01*
X10734468Y-18059317D02*
X10705896Y-18059317D01*
X10705896Y-18059317D02*
X10686849Y-18049793D01*
X10686849Y-18049793D02*
X10677325Y-18030746D01*
X10677325Y-18030746D02*
X10677325Y-18021222D01*
X10677325Y-18021222D02*
X10686849Y-18002174D01*
X10686849Y-18002174D02*
X10705896Y-17992650D01*
X10705896Y-17992650D02*
X10734468Y-17992650D01*
X10734468Y-17992650D02*
X10753516Y-18002174D01*
X10877325Y-18125984D02*
X10858277Y-18116460D01*
X10858277Y-18116460D02*
X10848754Y-18097412D01*
X10848754Y-18097412D02*
X10848754Y-17925984D01*
X10982087Y-18125984D02*
X10963039Y-18116460D01*
X10963039Y-18116460D02*
X10953516Y-18106936D01*
X10953516Y-18106936D02*
X10943992Y-18087889D01*
X10943992Y-18087889D02*
X10943992Y-18030746D01*
X10943992Y-18030746D02*
X10953516Y-18011698D01*
X10953516Y-18011698D02*
X10963039Y-18002174D01*
X10963039Y-18002174D02*
X10982087Y-17992650D01*
X10982087Y-17992650D02*
X11010658Y-17992650D01*
X11010658Y-17992650D02*
X11029706Y-18002174D01*
X11029706Y-18002174D02*
X11039230Y-18011698D01*
X11039230Y-18011698D02*
X11048754Y-18030746D01*
X11048754Y-18030746D02*
X11048754Y-18087889D01*
X11048754Y-18087889D02*
X11039230Y-18106936D01*
X11039230Y-18106936D02*
X11029706Y-18116460D01*
X11029706Y-18116460D02*
X11010658Y-18125984D01*
X11010658Y-18125984D02*
X10982087Y-18125984D01*
X11105897Y-17992650D02*
X11182087Y-17992650D01*
X11134468Y-17925984D02*
X11134468Y-18097412D01*
X11134468Y-18097412D02*
X11143992Y-18116460D01*
X11143992Y-18116460D02*
X11163039Y-18125984D01*
X11163039Y-18125984D02*
X11182087Y-18125984D01*
X11239230Y-18116460D02*
X11258277Y-18125984D01*
X11258277Y-18125984D02*
X11296373Y-18125984D01*
X11296373Y-18125984D02*
X11315420Y-18116460D01*
X11315420Y-18116460D02*
X11324944Y-18097412D01*
X11324944Y-18097412D02*
X11324944Y-18087889D01*
X11324944Y-18087889D02*
X11315420Y-18068841D01*
X11315420Y-18068841D02*
X11296373Y-18059317D01*
X11296373Y-18059317D02*
X11267801Y-18059317D01*
X11267801Y-18059317D02*
X11248754Y-18049793D01*
X11248754Y-18049793D02*
X11239230Y-18030746D01*
X11239230Y-18030746D02*
X11239230Y-18021222D01*
X11239230Y-18021222D02*
X11248754Y-18002174D01*
X11248754Y-18002174D02*
X11267801Y-17992650D01*
X11267801Y-17992650D02*
X11296373Y-17992650D01*
X11296373Y-17992650D02*
X11315420Y-18002174D01*
X11391611Y-18202174D02*
X11401135Y-18192650D01*
X11401135Y-18192650D02*
X11420182Y-18164079D01*
X11420182Y-18164079D02*
X11429706Y-18145031D01*
X11429706Y-18145031D02*
X11439230Y-18116460D01*
X11439230Y-18116460D02*
X11448754Y-18068841D01*
X11448754Y-18068841D02*
X11448754Y-18030746D01*
X11448754Y-18030746D02*
X11439230Y-17983127D01*
X11439230Y-17983127D02*
X11429706Y-17954555D01*
X11429706Y-17954555D02*
X11420182Y-17935508D01*
X11420182Y-17935508D02*
X11401135Y-17906936D01*
X11401135Y-17906936D02*
X11391611Y-17897412D01*
M02*
